<svg viewBox="0 0 124.171 76.541" xmlns="http://www.w3.org/2000/svg"><path d="M8.231,76.541H110.564c23.5,0,16-40.5-18.166-30,2.905-8.914-.914-14.346-8.167-18,4.976-10.565,2.64-17.646-10.667-19.5-10.5-15.667-42.5-11.334-50,15.833C6.9,29.707.9,43.518,6.731,59.874-2.047,61.207-2.936,76.541,8.231,76.541Z"/><path d="M9.468,72.556H107.4c25.279,0,8.936-34.208-17.367-20.419a1.271,1.271,0,0,1-1.805-1.509c3.936-12.672-1.639-18.777-8.828-20.421,6.333-11.444,2.222-18.333-8.889-16.889C60.731-3.793,31.4,4.541,27.286,28.874,9.842,31.318,5.4,47.207,11.4,61.652,2.509,61.541,1.064,72.556,9.468,72.556Z" fill="#14416c"/><path d="M113.9,71.557a18.974,18.974,0,0,1-6.5,1H9.418c-1.22-2.64.72-6.52,5.54-6.46-4.63-11.13,1.52-26.31,19.58-27.03a19.918,19.918,0,0,0-6.36,18.58c5.51-11.29,18.78-19.88,29-11,6.33-4.22,13.11.45,13.89,6.89,3.33-7.22-.45-16-9.45-13.44-7.38-7.05-16.7-7.35-23.67-3.44-.3-19.83,19.31-23.02,24.01-14.89,12.44-3.34,17.66,4.22,8,12.44,7.55,2,14.11,8.67,13.52,22.77-.04.93.64,1.66,1.48,1.24C106.608,47.247,119.578,64.007,113.9,71.557Z" fill="#0f3356"/></svg>