<svg viewBox="0 0 197.083 93.754" xmlns="http://www.w3.org/2000/svg"><path d="m7.217 93.754h183.78c10.666 0 7.444-17.834-10.667-14.445 1.194-7.916-9.056-15.416-17.111-13.778 7.8-10.388 12.722-30.972-2-37.111 8.389-9.694 2.139-23.527-7.334-22.889-5.444-7.8-21.861-7.472-26.888 1.778-20.311-11.333-42.728 11.25-40.894 33.334-13.417-6.084-30.5 1.333-36.445 14.888-5.264-2.075-9.22-0.565-12.222 3.556-12.181-13.987-31.333 4.556-32.222 21.333-6.889 1-7.667 13.334 2 13.334z" fill="#000101"/><path d="m7.232 91.087h182.85c7.042 0 5.437-12.3-11.977-8.333 1.111-12.667-12.628-15.5-20-14 11.377-16.261 16.555-34.556-1.5-39.445 10.5-8.5 7.277-22.833-4.056-21.222a13.8 13.8 0 0 0 -24.444 2.444c-21.606-12.666-42.889 10.556-39.063 34.669-13.771-11.28-33.771-0.224-39.034 13.665-5.292-3.834-9.9-1.167-12.57 3.555-11.222-15.543-28.944 1.28-29.889 20.111-5.778 0-6.059 8.556-0.318 8.556z" fill="#14416c"/><path d="m96.592 46.206c-3.72-25.95 15.68-34.22 26.89-26.91a15.126 15.126 0 0 0 -1.04 3.35c-14.8-0.68-21.98 8.7-23.11 23.22-0.94 0.08-1.86 0.2-2.74 0.34z" fill="#0f3356"/><path d="m148.52 21.586c3.93 1.22 6.48 4.43 5.24 8.62a12.753 12.753 0 0 0 -4.66 -0.79 14.172 14.172 0 0 0 -0.58 -7.83z" fill="#0f3356"/><path d="M187.942,91.086H7.232a4.527,4.527,0,0,1-1.67-.29,5.263,5.263,0,0,1,5.32-5.82c2.23-16.07,14.77-24.63,23.44-14.34-7.01-2.04-12.69-.44-15.44,9.23,6.7-6.16,12.81-6.58,18.22,0,2.71-8.74,9.29-11.89,19.23-10.22-6.33-3.78-12.17-3.69-17.58-.16,3.84-5.62,9.97-7.23,14.69-5.51,6.23-16.26,22.93-20.69,33-13.9-4.14,3.02-6.58,7.74-6.89,14.57-7.57,1.61-11.59,5.57-12.45,11.11,5.52-5.99,11.87-9.49,20-7.67,1.36-10.88,6.84-16.55,16.89-16.44-2.22-12.34,5.89-26.37,18.78-25.23,6-8.55,20.94-6.08,22.11,6.89,11.94,5.23,19.58,13.29,6.91,34.82a18.552,18.552,0,0,0-4.13-1.82c4.04-10.95,5.3-20.67-7.56-24.11,9.43,6.9,9.54,15.73,0,26.56,5.14,2.02,9.2,5.36,9.67,13,5.15-2.01,10.53-1.36,13.33,3.66-.38-2.96-.92-5.87-7.22-6.77a14.621,14.621,0,0,0-.72-6.45c7.89.72,16.61,5.47,15.61,13.22C182.842,83.926,187.592,87.876,187.942,91.086Z" fill="#0f3356"/></svg>