<svg viewBox="0 0 262.571 117.138" xmlns="http://www.w3.org/2000/svg"><path d="m10.222 117.14h247.11c11.556 0 6-36.222-37.111-24.222-0.369-5.849-3.965-8.222-9.555-8.445 7.875-16.238 3.9-23.822-8-25.611 2.756-15.446-4.581-18.251-16-15.944-9.79-14.931-24.639-16.234-43.111-7.778 10.666-26-23.334-38.444-40.223-23.111-10.442-22.85-50.222-10.444-52.222 14.667-10.154 2.126-15.319 8.829-14.889 20.666-25.13 6.992-34.068 23.645-26 50.445-13.629 0-13.629 19.333 0 19.333z"/><path d="M11.833,114.07H252.444c10.469,0,4.5-29.126-34.916-16.126.424-9.97-6.994-11.247-12.25-9.584,11.833-23.666,1.25-25.75-9.084-24.833,6.765-13.866.917-19.75-11.083-13.75-9.417-19.5-29.75-17-46.833-6.333,10.083-30.834-14.167-41-35.494-26.19C91.778-6.056,56.256,7.111,54.444,29.86c-9.2,1.926-16.143,10.659-15.753,21.384-22.767,6.333-30.611,25.282-23.3,49.561C1.167,98.86-.514,114.07,11.833,114.07Z" fill="#14416c"/><path d="m215.7 101.78c-1.17-10-7.25-13.09-13-12.25 6.58-21.5-4.09-24.84-14.42-23.92 7.83-8.58-0.17-13.92-6.75-10.58-8.93-18.49-30.73-12.26-47.52-2.47 9.05 0.14 14.92 5.69 17.1 17.47-10.57-9.96-21.19-12.16-31.89-4-0.44-15.56-11.33-20.1-27.66-16 8.1-9.09 24.55-12.34 32.44 4.11a36.753 36.753 0 0 1 7.67 -1.51c8.06-33.57-12.45-43.11-27.72-21.6-10.82-22.91-41.59-13.36-37.58 9.07 6.35-0.22 13.43 1.99 20.52 6.37-16.22-4.44-30.93 5.52-32 24.22-13.64 1.21-18.54 10.11-19.67 22.34-5.86-11.97-2.52-21.26 8.45-28.34q0.285-1.68 0.66-3.24c-19.08 3.06-31.57 22.66-24.8 42.49-9.2-1.05-14.27 2.46-15.46 6.19 1.04 2.22 3.61 3.94 7.77 3.94h238.77c-1.842-9.68-11.552-19.99-34.91-12.29zm-33.36-25.2c-1.45-10.03-7.68-15.79-17.23-18.78 15.148-3.36 21.228 12.23 17.228 18.78z" fill="#0f3356"/></svg>