<svg viewBox="0 0 182.905 83.846" xmlns="http://www.w3.org/2000/svg"><path d="m8.205 83.846h159.08c18.916 0 20.893-27.491 4.583-28.167 4.833-27.5-23.333-34.333-35.833-20.5-2.834-44.167-55.667-45.167-66-11.833-7.167-5.834-15.9-0.857-16.334 8-19.833-4.334-30.333 8.833-26.166 25-10.167-3.5-18.4 2.384-21 12.166-8.27 0-9.722 15.334 1.666 15.334z"/><path d="M9.094,79.585H165.257c17.282,0,18.581-21.355,3.393-21.962,3.667-29.777-23.138-29.87-34.778-17.444C130.761-7.488,80.094-4.6,70.983,27.512c-6.673-5.239-14.807-.769-15.209,7.186-20.124-5.3-29.9,7.7-24.569,26.037-12-6.112-20.733-.035-22,9.888C3.983,69.846.277,79.585,9.094,79.585Z" fill="#14416c"/><path d="M170.629,78.786a17.418,17.418,0,0,1-5.37.8H9.1a8.59,8.59,0,0,1-2.23-.26c-.75-2.93,2.18-6.99,5.56-6.48,1.27-9.92,7.44-16.33,25.55-7-7.86-18.66,6.12-29.33,19.45-23.11-1.89-7.76,5.96-14.64,13.02-8.45a17.605,17.605,0,0,0-4.24,8.34c-10.89,1.11-19,13.44-11.34,22.66,1.58-10.84,6.25-17.42,17.45-15,2.28-15.02,15.22-20.77,27.33-16.44-4.12-7.08-13.42-8.25-21.22-5.08,12.73-29.17,52.03-22.66,47.28,20.41h-.01c-3.89-.27-8.8,1.4-14.83,6.23,12.88-2.03,22.44,1.01,25.89,13.33,2.14-4.4-.34-16.63-8.69-19.14,13.07-13.02,38.78-17.56,34.25,11.36C172.829,61.376,175.629,72.176,170.629,78.786Z" fill="#0f3356"/></svg>