<svg viewBox="0 0 806 938" xmlns="http://www.w3.org/2000/svg" clip-rule="evenodd" fill-rule="evenodd" stroke-linejoin="round" stroke-miterlimit="2"><g transform="translate(795.04 615.01)"><path d="m0-208.75v251.4c0 341.46-773.78 341.46-773.78 0v-284.21c0-155.71 91.99-289.94 224.59-351.3v293.59c0 114.59 331.3 114.59 331.3 0v-207.59c128.13 35.718 217.89 145.04 217.89 298.11" fill="#1a83af" fill-rule="nonzero"/></g><g transform="translate(775.2 407.67)"><path d="m0 122.66l-0.1 62.53-0.049 31.27-0.021 15.63-0.01 3.91v1.96c0 0.66 0 1.3-0.019 1.89-0.061 2.43-0.08 4.86-0.16 7.28-0.771 19.41-4.401 38.58-10.811 56.83s-15.609 35.54-26.97 51.42c-11.35 15.9-24.82 30.42-39.71 43.469-14.89 13.061-31.17 24.711-48.349 34.981-17.191 10.269-35.25 19.22-53.861 26.95-18.6 7.75-37.78 14.25-57.28 19.59-39 10.7-79.34 16.819-119.69 18.08l-7.571 0.18-7.56 0.05-7.48-0.1c-2.5-0.09-4.99-0.141-7.49-0.26-10-0.44-20.01-1.27-30.01-2.431-19.99-2.329-39.91-5.979-59.56-10.759-19.65-4.8-39.04-10.73-58.01-17.741-18.97-7-37.5-15.12-55.37-24.399-17.859-9.27-35.08-19.68-51.25-31.37-16.14-11.71-31.25-24.7-44.67-39.05-13.43-14.34-25.149-30.08-34.34-47.03-9.2-16.93-15.83-35.08-19.309-53.84-1.741-9.37-2.721-18.89-2.941-28.46l-0.08-3.59c-0.019-0.57-0.019-1.24-0.019-1.89v-87.94l-0.011-125.07v-31.27l-0.01-15.63v-7.82c0.01-2.59-0.019-5.26 0.05-7.71 0.14-19.99 1.87-39.95 5.19-59.64 3.321-19.68 8.14-39.12 14.56-58.03l2.53-7.05c0.87-2.34 1.63-4.72 2.6-7.02l2.79-6.95 1.39-3.48 1.52-3.42 3.01-6.86 0.76-1.72 0.81-1.68 1.63-3.37 3.25-6.75 3.5-6.63c9.37-17.65 20.1-34.6 32.2-50.54 12.07-15.95 25.441-30.93 39.84-44.86 23.851-22.98 50.79-42.74 79.82-58.88 0.77 30.58 1.34 61.17 1.88 91.76 0.67 37.91 1.18 75.81 1.58 113.72l0.55 56.86 0.05 7.11 0.011 1.78c0 0.28 9e-3 0.61 0.029 0.96l0.05 1.02 0.211 4.09c0.129 1.36 0.369 2.72 0.549 4.08l0.3 2.03c0.12 0.68 0.31 1.34 0.46 2.01l0.98 4.01 1.33 3.89c0.24 0.65 0.42 1.31 0.7 1.93l0.83 1.88c0.58 1.23 1.08 2.52 1.73 3.7l1.98 3.56 0.5 0.89 0.561 0.84 1.119 1.67c1.44 2.29 3.15 4.33 4.8 6.42 0.82 1.05 1.76 1.97 2.63 2.96 0.9 0.97 1.77 1.97 2.73 2.85 7.49 7.31 15.91 13.28 24.73 18.11 8.821 4.84 17.98 8.76 27.281 12.02 18.629 6.49 37.819 10.41 57.089 12.83 19.28 2.37 38.69 3.11 58.06 2.39 9.69-0.37 19.37-1.12 29.011-2.29 9.639-1.16 19.259-2.71 28.8-4.77 9.54-2.05 19.009-4.64 28.339-7.82 9.33-3.2 18.521-7.06 27.361-11.86 8.84-4.79 17.359-10.62 24.92-17.9l1.42-1.35c0.46-0.47 0.91-0.97 1.359-1.45l2.681-2.92c0.849-1.03 1.67-2.09 2.509-3.13l1.241-1.58 1.129-1.67c0.75-1.13 1.52-2.23 2.25-3.38l2-3.56c0.701-1.17 1.241-2.43 1.81-3.68l0.841-1.88c0.289-0.63 0.569-1.25 0.779-1.91l1.35-3.91c0.24-0.65 0.421-1.32 0.57-1.99l0.5-2.01c0.76-2.67 1.04-5.42 1.46-8.15 0.15-1.37 0.181-2.74 0.271-4.11l0.099-2.06c0.04-0.69 0.021-1.21 0.04-1.83l0.08-7.1 0.38-28.43 0.941-56.87c0.599-31.84 1.29-63.68 2.269-95.52 24.58 8.5 47.99 20.14 69.29 34.8 26.07 17.86 48.95 40.23 67.24 65.91 18.3 25.67 32.06 54.55 40.89 84.97 8.87 30.42 12.891 62.29 12.9 94.23l-0.19 125.07zm29.851 115.3v-1.96l-0.011-3.91-0.02-15.63-0.049-31.27-0.101-62.53-0.19-125.07c-0.14-34.43-4.599-69.07-14.45-102.38-9.82-33.28-25.05-65.17-45.5-93.42-20.399-28.28-45.87-52.88-74.7-72.35-28.84-19.48-60.93-33.85-94.26-42.97l-17.12-4.69v17.7c1.28 37.91 2.12 75.82 2.851 113.72l0.929 56.87 0.39 28.43 0.07 7.1c0 0.57 0.031 1.24 0.01 1.73l-0.059 1.49c-0.04 1-0.021 2-0.111 2.99-0.29 1.95-0.399 3.95-0.92 5.85l-0.32 1.45c-0.1 0.48-0.2 0.97-0.37 1.43l-0.91 2.83c-0.129 0.48-0.329 0.94-0.53 1.39l-0.589 1.38c-0.391 0.91-0.741 1.85-1.26 2.72l-1.421 2.67c-0.529 0.86-1.1 1.7-1.649 2.56l-0.831 1.29-0.94 1.23-1.89 2.46-2.089 2.34c-0.351 0.39-0.68 0.79-1.04 1.17l-1.14 1.11c-6 5.97-13.131 11.16-20.91 15.46-15.551 8.68-33.08 14.53-50.981 18.54-17.95 4.02-36.4 6.2-54.9 6.95-18.51 0.78-37.1-0.04-55.44-2.32-18.32-2.3-36.45-6.2-53.589-12.29-8.561-3.05-16.861-6.68-24.611-11.06-7.76-4.34-14.849-9.57-20.87-15.55-0.79-0.72-1.45-1.53-2.16-2.31-0.68-0.79-1.44-1.54-2.069-2.36-1.25-1.66-2.601-3.26-3.641-5.01l-0.84-1.29-0.42-0.64-1.8-3.35c-0.48-0.89-0.799-1.84-1.22-2.75l-0.6-1.38c-0.21-0.46-0.32-0.95-0.49-1.42l-0.93-2.84-0.65-2.91c-0.11-0.49-0.25-0.97-0.33-1.46l-0.18-1.49c-0.11-0.99-0.29-1.97-0.37-2.97l-0.1-3.01-0.03-0.75c-0.02-0.24-0.03-0.5-0.02-0.81l0.01-1.78 0.06-7.11 0.54-56.86c0.4-37.91 0.92-75.81 1.58-113.72 0.67-37.91 1.391-75.82 2.48-113.72l0.6-21.15-19.77 8.89-0.01 0.01c-19.72 8.76-38.73 19.17-56.78 31.07-9.06 5.91-17.78 12.32-26.35 18.93-2.15 1.64-4.19 3.41-6.3 5.11-2.08 1.73-4.2 3.42-6.25 5.17l-6.1 5.37c-2.02 1.79-4.08 3.56-6.02 5.45-31.72 29.47-58.81 64.08-79.38 102.32l-3.86 7.17-3.61 7.3-1.799 3.65-0.901 1.82-0.83 1.86-3.35 7.43-1.66 3.71-1.53 3.78-3.06 7.55c-1.06 2.5-1.9 5.08-2.85 7.62l-2.79 7.66c-7.029 20.55-12.42 41.67-16.029 63.08-3.621 21.42-5.5 43.13-5.651 64.83-0.07 2.76-0.05 5.3-0.05 7.92v23.45l-9e-3 31.27-0.011 125.07v87.94c0 0.65-0.01 1.29 0.011 2.01l0.089 4.23c0.26 11.27 1.411 22.55 3.48 33.66 4.13 22.25 11.98 43.74 22.71 63.4 10.73 19.7 24.19 37.61 39.27 53.66 15.09 16.07 31.79 30.33 49.411 43.06 17.639 12.71 36.229 23.88 55.379 33.78 19.15 9.89 38.9 18.49 59.05 25.89 20.16 7.41 40.71 13.649 61.571 18.7 20.869 5.03 42.04 8.88 63.459 11.33 10.71 1.22 21.48 2.08 32.31 2.52 2.71 0.12 5.43 0.16 8.14 0.25l8.15 0.08 8.07-0.08 8.071-0.21c42.979-1.47 85.63-8.09 127-19.57 20.689-5.74 41.059-12.71 60.92-21.05 19.859-8.33 39.219-17.981 57.79-29.16 18.559-11.18 36.299-23.93 52.719-38.411 16.401-14.469 31.451-30.739 44.281-48.819 12.819-18.06 23.359-37.96 30.71-59.09 7.349-21.11 11.479-43.37 12.279-65.62 0.09-2.79 0.11-5.57 0.17-8.35 0.011-0.71 0.02-1.37 0.011-2.01" fill-rule="nonzero"/></g><g transform="translate(484.97 741.69)"><path d="m0-163.66c-4.599 14.156-5.37 16.494-9.969 30.676l41.749 32.243c1.054 11.973 4.676 23.2 10.328 33.143l-15.029 48.634c12.049 8.761 14.027 10.2 26.103 18.961l41.544-28.364c5.909 1.362 12.075 2.081 18.395 2.081s12.485-0.719 18.396-2.081l41.568 28.364c12.05-8.761 14.028-10.2 26.077-18.961l-15.029-48.66c5.652-9.943 9.274-21.144 10.328-33.117l41.749-32.243c-4.599-14.182-5.344-16.52-9.968-30.676h-226.24z" fill="#ffe797" fill-rule="nonzero"/></g><g transform="translate(477.05 738.78)"><path d="m0-159.01c0.806-2.547 2.462-4.837 4.636-6.4 1.085-0.786 2.297-1.4 3.58-1.809 0.642-0.205 1.301-0.359 1.968-0.46 0.333-0.044 0.668-0.093 1.004-0.111l0.502-0.024 0.408-0.011 7.163-0.08 42.981-0.48 57.308-0.639 114.62-1.378 7.951-0.095 1.228 6.753 3e-3 0.019c1.218 6.986 2.933 13.808 4.738 20.601l1.403 5.078 0.743 2.526 0.187 0.659c0.078 0.279 0.138 0.563 0.19 0.849 0.11 0.569 0.172 1.149 0.193 1.728 0.045 1.158-0.079 2.319-0.366 3.435-0.568 2.231-1.801 4.299-3.517 5.85-0.211 0.195-0.436 0.375-0.659 0.556l-0.362 0.278-0.525 0.396-1.051 0.791-4.203 3.165-8.404 6.328-8.361 6.387c-5.586 4.24-11.106 8.568-16.649 12.866l2.721-4.974c-1.068 12.609-4.89 25.014-11.124 36.047l0.619-5.67 3.779 12.094 3.705 12.118c1.248 4.035 2.428 8.091 3.644 12.136 1.195 4.052 2.443 8.087 3.589 12.154l1.374 4.877-3.881 2.746-6.597 4.669-6.657 4.587c-2.21 1.541-4.46 3.028-6.694 4.536l-6.712 4.513-3.643 2.448-3.103-2.323-10.081-7.548c-3.363-2.512-6.749-4.99-10.136-7.467-3.421-2.427-6.796-4.921-10.254-7.293-3.453-2.38-6.872-4.81-10.371-7.122l3.576 0.673c-3.177 0.761-6.399 1.317-9.64 1.729-3.238 0.436-6.503 0.688-9.774 0.758-3.272 0.081-6.556 0.025-9.833-0.242-3.275-0.269-6.554-0.671-9.801-1.291l4.349-0.819-10.089 7.526c-3.37 2.498-6.71 5.041-10.106 7.501-3.398 2.457-6.768 4.956-10.205 7.356-3.426 2.416-6.835 4.857-10.293 7.227l-4.053 2.776-4.035-2.892-26.225-18.804-4.151-2.976 1.498-5c2.434-8.128 4.935-16.235 7.453-24.336l7.524-24.315 0.627 5.746c-6.259-11.051-10.072-23.482-11.133-36.111l2.756 5.039-31.651-24.555-3.957-3.067-1.979-1.534-0.989-0.767-0.495-0.384-0.329-0.259c-0.212-0.174-0.424-0.349-0.624-0.535-1.622-1.489-2.781-3.459-3.312-5.573-0.267-1.057-0.383-2.155-0.34-3.248 0.018-0.546 0.082-1.093 0.182-1.63 0.054-0.268 0.103-0.538 0.178-0.799l0.205-0.7 1.571-4.755c2.093-6.341 4.207-12.675 6.212-19.045m13.313 4.328c-2.122 6.329-4.135 12.693-6.17 19.051l-1.524 4.769c-0.028 0.084-5e-3 0.021 4e-3 -5e-3l0.025-0.093 0.043-0.189c0.025-0.128 0.038-0.258 0.045-0.387 0.011-0.261-0.015-0.519-0.079-0.768-0.122-0.497-0.401-0.966-0.789-1.329l7.456 5.724 31.757 24.416 2.47 1.9 0.286 3.14c0.966 10.606 4.237 20.954 9.522 30.172l1.561 2.721-0.934 3.026-7.505 24.319c-2.492 8.11-5.001 16.215-7.576 24.299l-2.653-7.976 25.979 19.117-8.086-0.116c3.465-2.358 6.98-4.643 10.478-6.954 3.486-2.328 7.041-4.557 10.566-6.827 3.529-2.267 7.113-4.451 10.666-6.681l10.684-6.655 2.248-1.4 2.101 0.58c2.778 0.768 5.607 1.408 8.476 1.832 2.867 0.426 5.767 0.716 8.681 0.798 2.912 0.069 5.831-0.024 8.738-0.282 2.905-0.282 5.788-0.766 8.638-1.393l1.996-0.439 1.58 1.112c3.43 2.415 6.939 4.712 10.414 7.059 3.47 2.356 7.023 4.589 10.53 6.89 3.541 2.249 7.083 4.499 10.649 6.714l10.704 6.634-6.745 0.125 6.29-5.084c2.099-1.69 4.184-3.402 6.307-5.061l6.346-5.008 6.406-4.928-2.506 7.623c-1.348-4.004-2.593-8.04-3.891-12.06-1.276-4.027-2.59-8.042-3.835-12.078l-3.774-12.096-3.7-12.119-0.916-3.003 1.536-2.668c5.304-9.221 8.577-19.573 9.532-30.186l0.279-3.096 2.441-1.878c5.56-4.277 11.142-8.523 16.658-12.856l8.292-6.475 8.248-6.532 4.124-3.267 1.03-0.816 0.645-0.51 0.064-0.051-0.038 0.024c-0.059 0.038-0.107 0.086-0.161 0.129-0.422 0.364-0.738 0.85-0.89 1.379-0.077 0.265-0.116 0.544-0.114 0.827 3e-3 0.141 0.016 0.284 0.035 0.425l0.04 0.208c9e-3 0.054 0.063 0.208 0 0.029l-0.883-2.477-1.848-4.927c-2.532-6.547-5.154-13.065-8.271-19.419l-9e-3 -0.018 9.18 6.658-114.62-1.378-57.308-0.639-42.981-0.48-7.163-0.079c-0.116-2e-3 -0.053 1e-3 -0.041 1e-3 0.018-1e-3 0.038-3e-3 0.056-7e-3 0.036-9e-3 0.076-3e-3 0.114-0.017 0.076-0.013 0.151-0.034 0.223-0.061 0.145-0.053 0.276-0.127 0.39-0.218 0.225-0.177 0.401-0.443 0.473-0.715" fill-rule="nonzero"/></g><g transform="translate(570.4 650.59)"><path d="m0-51.872c-14.322 8.174-19.312 26.418-11.135 40.747 8.175 14.321 26.422 19.303 40.743 11.128l14.004-18.068c2.02-7.373 1.222-15.512-2.866-22.673-8.178-14.328-26.418-19.312-40.746-11.134" fill="#fff" fill-rule="nonzero"/></g><g transform="translate(629.52 633.6)"><path d="m0 0c0 16.491-13.371 29.869-29.869 29.869-16.49 0-29.861-13.378-29.861-29.869h29.861l-21.111-21.118c5.402-5.41 12.866-8.751 21.111-8.751 16.498 0 29.869 13.371 29.869 29.869" fill-rule="nonzero"/></g><g transform="translate(282.96 575.26)"><path d="m0 98.683l14.998 48.559c-12.024 8.743-13.998 10.178-26.022 18.921l-41.483-28.305c-5.897 1.359-12.051 2.077-18.358 2.077s-12.46-0.718-18.357-2.077l-41.457 28.305c-12.05-8.743-14.024-10.178-26.049-18.921l14.999-48.534c-5.641-9.921-9.256-21.126-10.307-33.073l-41.662-32.176c4.589-14.152 5.358-16.485 9.948-30.612l53.609-0.257c7.204-7.666 15.87-13.921 25.562-18.331l17.614-51.739h32.201l17.614 51.739c9.691 4.41 18.357 10.665 25.561 18.331l53.61 0.257c4.615 14.127 5.358 16.46 9.948 30.612l-41.662 32.176c-1.052 11.947-4.667 23.126-10.307 33.048" fill="#ffe797" fill-rule="nonzero"/></g><g transform="translate(184.18 650.59)"><path d="m0-51.872c-14.322 8.174-19.312 26.418-11.134 40.747 8.175 14.321 26.421 19.303 40.743 11.128l14.003-18.068c2.02-7.373 1.222-15.512-2.865-22.673-8.178-14.328-26.419-19.312-40.747-11.134" fill="#fff" fill-rule="nonzero"/></g><g transform="translate(276.01 576.92)"><path d="m0 96.262c0.432-1.498 1.109-3.125 1.835-4.447l0.915-1.771c0.589-1.191 1.152-2.394 1.686-3.611 1.058-2.437 1.985-4.929 2.776-7.464 1.581-5.07 2.613-10.31 3.08-15.609l0.27-3.054 2.425-1.873 41.662-32.176-2.379 7.699-9.944-30.597 6.621 4.826-53.61-0.256-3.01-0.015-2.057-2.192c-6.605-7.034-14.586-12.766-23.36-16.753l-2.752-1.251-0.976-2.865-17.613-51.738 6.626 4.744-0.019 1e-3c-5.364 0.48-10.728 0.646-16.092 0.697-2.681 0.025-5.363 0.023-8.045-0.08-2.682-0.111-5.364-0.259-8.045-0.618l6.626-4.744-6e-3 0.018-17.556 51.737-0.962 2.834-2.795 1.314-0.016 7e-3c-8.769 3.968-16.752 9.68-23.366 16.697l-2.066 2.193-3.001 0.014h-0.018l-53.592 0.256 6.624-4.837-9.947 30.608-2.379-7.699 41.662 32.176 2.428 1.875 0.266 3.052c0.927 10.607 4.154 20.979 9.419 30.227l1.497 2.631-0.895 2.896-14.998 48.533-2.571-7.728 0.01 9e-3c5.183 4.817 10.663 9.228 16.214 13.538 2.767 2.168 5.605 4.238 8.425 6.332l0.265 0.196 0.132 0.099c5e-3 3e-3 -1.201-0.774-1.828-0.851-0.775-0.191-1.589-0.212-2.409-0.036-0.581-1e-3 -2.16 0.958-1.786 0.75l0.034-0.023 0.549-0.364 1.097-0.729 2.194-1.459 4.389-2.916 17.556-11.667c2.934-1.934 5.837-3.913 8.747-5.882l4.364-2.955 0.272-0.185 0.494-0.316c0.375-0.224 0.761-0.431 1.159-0.612 0.795-0.363 1.63-0.639 2.487-0.811 0.856-0.173 1.732-0.254 2.604-0.23 0.436 0.014 0.872 0.045 1.304 0.109l0.683 0.095c2.977 0.411 6.216 0.441 9.638 0.391l5.27-0.104c1.63-0.034 3.258-0.118 4.88-0.252 3.242-0.273 6.464-0.747 9.633-1.435l1.186-0.266 0.296-0.068 0.457-0.093c0.22-0.036 0.441-0.067 0.665-0.087 0.892-0.082 1.808-0.015 2.693 0.198 0.886 0.215 1.743 0.577 2.511 1.07l0.69 0.453 1.101 0.724 4.403 2.898 35.153 23.279-8.102 0.15 25.951-19.153-2.532 7.698c-5.254-16.993-10.327-34.123-15.197-51.152m13.917 1.519c5.082 15.188 9.96 30.276 14.657 45.502l1.465 4.748-3.997 2.95-25.951 19.153-4.056 2.993-4.046-2.844-34.495-24.242-4.304-3.044-1.076-0.76-0.268-0.19-0.135-0.096c-0.024-0.018-0.161-0.11 3e-3 -1e-3 0.401 0.252 0.848 0.442 1.307 0.55 0.459 0.111 0.932 0.14 1.386 0.097 0.114-0.011 0.227-0.025 0.339-0.046l0.165-0.032c0.083-0.019-0.031 5e-3 -0.031 5e-3l-0.348 0.068-1.395 0.264c-3.724 0.677-7.487 1.101-11.254 1.291-1.884 0.093-3.77 0.126-5.653 0.1l-5.269-0.054c-3.599-0.045-7.411-0.144-11.386-0.792l-0.62-0.102c-2e-3 -7e-3 -6e-3 -5e-3 -8e-3 -0.01-6e-3 -8e-3 -0.01-9e-3 -0.016-0.015-7e-3 -8e-3 -0.011-8e-3 -0.017-0.012l-0.01-6e-3h-3e-3c5e-3 -4e-3 3e-3 -6e-3 -0.06 0.036l-0.278 0.178-4.438 2.842c-2.958 1.895-5.923 3.781-8.857 5.712l-17.652 11.522-4.413 2.881-2.207 1.44-1.103 0.72-0.552 0.36-0.034 0.023c0.352-0.193-1.252 0.78-1.861 0.784-0.845 0.183-1.688 0.161-2.49-0.037-0.654-0.083-1.9-0.844-1.901-0.887l-0.135-0.095-0.268-0.192c-2.865-2.034-5.712-4.093-8.63-6.056-5.818-3.948-11.708-7.797-17.895-11.237l-0.012-8e-3 -4.147-2.631 1.575-5.098 14.999-48.533 0.602 5.526c-6.254-10.979-10.098-23.338-11.194-35.919l2.695 4.926-41.663-32.176-3.902-3.013 1.522-4.686 9.949-30.616 1.564-4.813 5.06-0.024 53.593-0.256h0.017l-5.068 2.206c7.824-8.358 17.29-15.186 27.722-19.95l0.019-8e-3 -3.756 4.147 17.659-51.703 6e-3 -0.018 1.287-4.031 5.34-0.714c2.681-0.358 5.363-0.506 8.045-0.618 2.682-0.103 5.364-0.105 8.045-0.08 5.364 0.052 10.728 0.218 16.092 0.697l0.019 2e-3 5.156 0.424 1.471 4.32 17.614 51.738-3.728-4.115c10.44 4.745 19.922 11.557 27.763 19.909l-5.067-2.206 53.61 0.256 5.06 0.024 1.56 4.802 9.952 30.627 1.523 4.686-3.902 3.013-41.663 32.176 2.695-4.926c-0.554 6.284-1.78 12.519-3.662 18.55-0.94 3.016-2.044 5.98-3.302 8.876-0.633 1.447-1.302 2.877-2.003 4.291l-1.086 2.104c0.028-0.047 1e-3 -0.403-0.269-0.627" fill-rule="nonzero"/></g><g transform="translate(243.3 633.6)"><path d="m0 0c0 16.491-13.371 29.869-29.869 29.869-16.49 0-29.861-13.378-29.861-29.869h29.861l-21.111-21.118c5.402-5.41 12.866-8.751 21.111-8.751 16.498 0 29.869 13.371 29.869 29.869" fill-rule="nonzero"/></g><g transform="matrix(-.55886 -.82926 -.82926 .55886 449.71 816.06)"><path d="m-43.968 83.277h92.451l-3.996-59.612-54.215-26.169-34.24 85.781z" fill="#ffaf37" fill-rule="nonzero"/></g><g transform="translate(362.22 873.67)"><path d="m0-50.943l43.035 63.857 45.73-63.542c1.01-1.402 0.557-3.373-0.965-4.193l-42.17-22.743c-1.622-0.991-3.658-1.008-5.295-0.042l-39.58 23.326c-1.166 0.688-1.511 2.215-0.755 3.337m42.972 88.816l-59.381-88.114c-1.214-1.801-0.651-4.252 1.227-5.342l55.685-32.334c1.55-0.899 3.464-0.898 5.013 5e-3l55.87 32.591c1.962 1.145 2.542 3.712 1.264 5.589l-59.678 87.605z" fill-rule="nonzero"/></g><g transform="matrix(-.89227 -.45151 -.45151 .89227 706.36 807.29)"><path d="m-9.162-39.889c-0.42 14.197 0.838 28.35 1.233 42.53 0.018 0.683-1.079 0.968-1.233 0.235-2.976-14.111-2.722-28.343-1.755-42.659 0.075-1.102 1.789-1.253 1.755-0.106" fill-rule="nonzero"/></g><g transform="translate(476.17 826.33)"><path d="m0-10.976c-1.704 0.874-3.031 2.165-4.895 2.714-2.037 0.599-4.555 0.364-6.679 0.308-3.604-0.093-7.212-2.766-10.659-1.703-1.71 0.528-2.789 2.295-2.308 4.065 1.471 5.419 9.918 5.945 14.548 4.885 4.221-0.966 9.841-5.12 11.439-9.157 0.341-0.862-0.759-1.465-1.446-1.112" fill-rule="nonzero"/></g><g transform="translate(331.95 821.25)"><path d="m0-5.004c1.316 4.88 8.55 8.854 13.323 9.34 5.515 0.561 14.867-3.307 18.203-7.584 1.668-2.139 0.956-6.653-2.585-6.242-5.332 0.62-8.655 4.919-13.575 6.672-5.889 2.098-9.254-3.04-14.552-3.253-0.554-0.023-0.952 0.556-0.814 1.067" fill-rule="nonzero"/></g><g transform="translate(439.34 882.68)"><path d="m0 0.1c0.064 0 0.064-0.1 0-0.1s-0.064 0.1 0 0.1" fill-rule="nonzero"/></g></svg>