<svg viewBox="0 0 774 902" xmlns="http://www.w3.org/2000/svg" clip-rule="evenodd" fill-rule="evenodd" stroke-linejoin="round" stroke-miterlimit="2"><g transform="translate(773.78 516.92)"><path d="m0-132.81v241.4c-1e-3 177.01-208.91 275.52-386.89 275.52-152.92 0-386.89-98.506-386.89-275.52v-274.21c0-155.71 91.99-289.94 224.59-351.3v293.59c0 114.59 331.3 114.59 331.3 0v-207.59c128.13 35.719 217.89 145.04 217.89 298.11" fill="#1a83af" fill-rule="nonzero"/></g><g transform="translate(468.72 720.54)"><path d="m0-163.66c-4.599 14.156-5.369 16.494-9.969 30.676l41.75 32.243c1.053 11.973 4.676 23.2 10.327 33.143l-15.029 48.634c12.05 8.761 14.028 10.2 26.104 18.961l41.543-28.364c5.909 1.362 12.075 2.081 18.395 2.081s12.486-0.719 18.396-2.081l41.569 28.364c12.049-8.761 14.027-10.2 26.077-18.961l-15.03-48.66c5.652-9.943 9.275-21.144 10.328-33.117l41.75-32.243c-4.6-14.182-5.345-16.52-9.969-30.676h-226.24z" fill="#ffe797" fill-rule="nonzero"/></g><g transform="translate(460.79 717.64)"><path d="m0-159.01c0.806-2.547 2.463-4.837 4.636-6.4 1.085-0.786 2.297-1.4 3.581-1.809 0.641-0.205 1.3-0.359 1.967-0.46 0.333-0.044 0.669-0.093 1.004-0.111l0.502-0.025 0.408-0.01 7.163-0.081 14.327-0.159 28.654-0.32 57.308-0.639 114.62-1.378 7.952-0.095 1.227 6.753 4e-3 0.019c1.217 6.986 2.932 13.808 4.737 20.601l1.403 5.078 0.743 2.526 0.188 0.659c0.077 0.279 0.137 0.563 0.189 0.849 0.11 0.569 0.172 1.149 0.193 1.728 0.045 1.158-0.079 2.319-0.365 3.435-0.569 2.231-1.801 4.299-3.517 5.849-0.212 0.196-0.437 0.376-0.66 0.557l-0.362 0.278-0.525 0.396-1.051 0.791-4.202 3.164-8.405 6.329-8.361 6.386c-5.586 4.241-11.106 8.569-16.649 12.866l2.721-4.974c-1.067 12.61-4.889 25.015-11.123 36.048l0.618-5.67 3.779 12.094 3.705 12.118c1.248 4.035 2.428 8.091 3.644 12.136 1.196 4.052 2.443 8.087 3.589 12.154l1.374 4.877-3.881 2.746-6.597 4.669-6.656 4.587c-2.211 1.541-4.461 3.028-6.695 4.536l-6.712 4.512-3.643 2.449-3.103-2.324-10.081-7.547c-3.363-2.513-6.749-4.99-10.135-7.468-3.421-2.427-6.796-4.921-10.255-7.292-3.453-2.38-6.872-4.81-10.371-7.123l3.576 0.674c-3.177 0.76-6.399 1.317-9.64 1.729-3.238 0.436-6.503 0.688-9.774 0.757-3.271 0.082-6.556 0.026-9.833-0.241-3.275-0.269-6.553-0.671-9.801-1.291l4.349-0.82-10.088 7.527c-3.371 2.498-6.71 5.041-10.107 7.501-3.397 2.457-6.767 4.956-10.205 7.356-3.425 2.416-6.835 4.857-10.293 7.227l-4.052 2.776-4.035-2.892-26.225-18.804-4.152-2.977 1.498-4.999c2.434-8.128 4.935-16.235 7.454-24.336l7.524-24.315 0.626 5.746c-6.258-11.052-10.072-23.482-11.133-36.111l2.756 5.038-31.65-24.554-3.958-3.067-1.979-1.535-0.989-0.767-0.494-0.383-0.33-0.26c-0.212-0.174-0.423-0.348-0.624-0.534-1.622-1.489-2.781-3.459-3.312-5.573-0.267-1.058-0.383-2.155-0.34-3.248 0.019-0.547 0.082-1.093 0.183-1.63 0.053-0.268 0.102-0.538 0.178-0.8l0.204-0.699 1.571-4.755c2.093-6.341 4.207-12.675 6.212-19.045m13.314 4.328c-2.123 6.329-4.136 12.693-6.17 19.051l-1.525 4.769c-0.028 0.083-5e-3 0.021 4e-3 -5e-3l0.026-0.093 0.043-0.19c0.024-0.127 0.037-0.257 0.044-0.387 0.011-0.26-0.015-0.518-0.078-0.767-0.123-0.498-0.402-0.966-0.79-1.329l7.456 5.724 31.757 24.416 2.47 1.899 0.286 3.141c0.966 10.606 4.238 20.954 9.523 30.172l1.56 2.721-0.934 3.025-7.505 24.32c-2.492 8.11-5.001 16.215-7.576 24.299l-2.653-7.977 25.979 19.118-8.086-0.116c3.465-2.358 6.981-4.643 10.479-6.955 3.486-2.327 7.04-4.556 10.566-6.826 3.528-2.267 7.113-4.451 10.665-6.681l10.684-6.655 2.248-1.4 2.102 0.58c2.778 0.768 5.606 1.408 8.475 1.832 2.868 0.426 5.768 0.715 8.681 0.798 2.913 0.069 5.832-0.024 8.739-0.283 2.904-0.281 5.787-0.765 8.638-1.392l1.995-0.44 1.58 1.113c3.43 2.415 6.94 4.711 10.414 7.059 3.47 2.356 7.023 4.589 10.53 6.89 3.542 2.249 7.083 4.499 10.65 6.714l10.703 6.634-6.745 0.125 6.29-5.084c2.099-1.691 4.184-3.402 6.307-5.061l6.347-5.008 6.405-4.928-2.506 7.623c-1.348-4.004-2.593-8.041-3.89-12.061-1.277-4.026-2.591-8.041-3.835-12.077l-3.774-12.096-3.7-12.119-0.917-3.003 1.536-2.668c5.304-9.221 8.577-19.573 9.533-30.186l0.278-3.096 2.442-1.878c5.559-4.277 11.142-8.523 16.657-12.856l8.292-6.475 8.248-6.532 4.124-3.267 1.031-0.816 0.645-0.51 0.064-0.051-0.039 0.024c-0.058 0.038-0.107 0.086-0.161 0.129-0.422 0.364-0.738 0.85-0.889 1.379-0.077 0.265-0.117 0.544-0.114 0.827 2e-3 0.141 0.015 0.283 0.034 0.424l0.04 0.209c9e-3 0.054 0.063 0.207 0 0.029l-0.883-2.477-1.848-4.927c-2.532-6.547-5.153-13.065-8.271-19.42l-8e-3 -0.017 9.179 6.658-114.62-1.378-57.308-0.639-42.981-0.48-7.163-0.079c-0.116-3e-3 -0.053 1e-3 -0.041 1e-3 0.018-1e-3 0.038-3e-3 0.056-7e-3 0.036-9e-3 0.077-3e-3 0.115-0.017 0.075-0.013 0.151-0.034 0.222-0.061 0.145-0.053 0.276-0.127 0.39-0.218 0.225-0.177 0.402-0.443 0.474-0.715" fill-rule="nonzero"/></g><g transform="translate(554.14 629.44)"><path d="m0-51.872c-14.322 8.175-19.312 26.419-11.135 40.747 8.175 14.322 26.422 19.303 40.744 11.128l14.003-18.068c2.02-7.373 1.222-15.512-2.865-22.672-8.179-14.328-26.419-19.313-40.747-11.135" fill="#fff" fill-rule="nonzero"/></g><g transform="translate(613.26 612.45)"><path d="m0 0c0 16.491-13.371 29.869-29.869 29.869-16.49 0-29.861-13.378-29.861-29.869h29.861l-21.111-21.119c5.402-5.409 12.866-8.75 21.111-8.75 16.498 0 29.869 13.371 29.869 29.869" fill-rule="nonzero"/></g><g transform="translate(266.71 554.11)"><path d="m0 98.683l14.999 48.559c-12.024 8.743-13.999 10.178-26.023 18.921l-41.483-28.305c-5.897 1.359-12.051 2.077-18.357 2.077-6.307 0-12.46-0.718-18.358-2.077l-41.457 28.305c-12.05-8.743-14.024-10.178-26.049-18.921l14.999-48.534c-5.64-9.921-9.255-21.126-10.306-33.073l-41.663-32.176c4.59-14.153 5.358-16.486 9.948-30.612l53.609-0.257c7.205-7.666 15.87-13.922 25.562-18.331l17.614-51.739h32.201l17.615 51.739c9.69 4.409 18.356 10.665 25.56 18.331l53.61 0.257c4.616 14.126 5.359 16.459 9.949 30.612l-41.663 32.176c-1.051 11.947-4.666 23.126-10.307 33.048" fill="#ffe797" fill-rule="nonzero"/></g><g transform="translate(167.92 629.44)"><path d="m0-51.872c-14.321 8.175-19.312 26.419-11.134 40.747 8.175 14.322 26.421 19.303 40.743 11.128l14.004-18.068c2.02-7.373 1.222-15.512-2.866-22.672-8.178-14.328-26.419-19.313-40.747-11.135" fill="#fff" fill-rule="nonzero"/></g><g transform="translate(259.75 555.78)"><path d="m0 96.262c0.432-1.498 1.109-3.125 1.836-4.447l0.914-1.771c0.59-1.192 1.152-2.395 1.686-3.612 1.058-2.436 1.986-4.928 2.776-7.463 1.582-5.07 2.613-10.31 3.081-15.609l0.27-3.055 2.424-1.872 41.662-32.176-2.379 7.699-9.944-30.597 6.621 4.825-53.61-0.255-3.01-0.015-2.057-2.192c-6.605-7.034-14.586-12.766-23.36-16.753l-2.752-1.251-0.975-2.865-17.614-51.738 6.626 4.744-0.019 1e-3c-5.364 0.48-10.727 0.645-16.091 0.697-2.682 0.025-5.363 0.023-8.046-0.08-2.682-0.112-5.363-0.259-8.045-0.618l6.627-4.744-7e-3 0.018-17.556 51.737-0.961 2.834-2.795 1.313-0.017 8e-3c-8.768 3.968-16.752 9.68-23.365 16.697l-2.067 2.193-3.001 0.014h-0.017l-53.593 0.255 6.624-4.837-9.946 30.609-2.38-7.699 41.662 32.176 2.428 1.875 0.266 3.052c0.927 10.607 4.154 20.979 9.419 30.227l1.497 2.631-0.894 2.896-14.998 48.533-2.572-7.728 0.011 9e-3c5.182 4.817 10.662 9.227 16.213 13.538 2.768 2.168 5.606 4.237 8.426 6.332l0.264 0.196 0.133 0.099c4e-3 3e-3 -1.202-0.774-1.829-0.851-0.775-0.192-1.589-0.212-2.408-0.036-0.582-1e-3 -2.161 0.958-1.787 0.75l0.034-0.023 0.549-0.364 1.097-0.729 2.194-1.459 4.39-2.917 17.555-11.666c2.934-1.934 5.837-3.913 8.747-5.883l4.364-2.954 0.272-0.185 0.494-0.316c0.375-0.224 0.761-0.431 1.16-0.612 0.794-0.363 1.63-0.639 2.487-0.811 0.855-0.173 1.731-0.254 2.603-0.23 0.437 0.014 0.872 0.045 1.304 0.109l0.683 0.094c2.977 0.412 6.217 0.442 9.638 0.392l5.27-0.104c1.631-0.034 3.258-0.118 4.88-0.252 3.243-0.273 6.464-0.747 9.633-1.435l1.186-0.266 0.296-0.068 0.457-0.093c0.221-0.037 0.441-0.067 0.665-0.087 0.893-0.082 1.808-0.015 2.693 0.198 0.886 0.215 1.743 0.577 2.511 1.07l0.691 0.453 1.1 0.724 4.403 2.897 35.153 23.28-8.102 0.15 25.951-19.153-2.532 7.698c-5.254-16.993-10.327-34.123-15.197-51.152m13.918 1.518c5.081 15.189 9.959 30.277 14.656 45.503l1.465 4.748-3.996 2.949-25.951 19.154-4.057 2.993-4.046-2.844-34.495-24.243-4.304-3.043-1.075-0.76-0.269-0.191-0.135-0.095c-0.024-0.018-0.16-0.11 4e-3 -2e-3 0.4 0.253 0.847 0.443 1.306 0.551 0.459 0.11 0.932 0.139 1.387 0.097 0.113-0.011 0.227-0.025 0.338-0.046l0.165-0.032c0.083-0.019-0.031 4e-3 -0.031 4e-3l-0.348 0.069-1.395 0.264c-3.724 0.677-7.487 1.101-11.254 1.291-1.884 0.093-3.77 0.126-5.653 0.1l-5.269-0.054c-3.599-0.045-7.41-0.144-11.386-0.792l-0.62-0.102c-2e-3 -7e-3 -5e-3 -5e-3 -8e-3 -0.01-6e-3 -8e-3 -0.01-9e-3 -0.016-0.016s-0.011-7e-3 -0.017-0.011l-0.01-6e-3h-2e-3c4e-3 -4e-3 2e-3 -6e-3 -0.061 0.036l-0.278 0.178-4.438 2.842c-2.958 1.895-5.923 3.781-8.857 5.712l-17.652 11.522-4.413 2.881-2.207 1.44-1.102 0.72-0.552 0.36-0.034 0.023c0.351-0.193-1.253 0.78-1.862 0.784-0.845 0.183-1.688 0.161-2.489-0.037-0.654-0.084-1.9-0.844-1.902-0.887l-0.134-0.096-0.269-0.191c-2.865-2.034-5.712-4.094-8.63-6.056-5.817-3.948-11.708-7.797-17.895-11.238l-0.012-7e-3 -4.146-2.631 1.575-5.098 14.998-48.533 0.603 5.526c-6.255-10.979-10.099-23.338-11.195-35.919l2.695 4.926-41.663-32.176-3.902-3.014 1.523-4.686 9.948-30.615 1.564-4.813 5.061-0.024 53.592-0.256h0.017l-5.067 2.206c7.823-8.358 17.29-15.186 27.721-19.95l0.02-8e-3 -3.757 4.147 17.659-51.703 6e-3 -0.018 1.287-4.031 5.34-0.714c2.682-0.358 5.363-0.506 8.045-0.618 2.683-0.103 5.364-0.105 8.046-0.08 5.364 0.052 10.727 0.218 16.091 0.697l0.019 2e-3 5.157 0.424 1.47 4.32 17.614 51.738-3.727-4.116c10.439 4.746 19.922 11.558 27.763 19.91l-5.068-2.206 53.61 0.256 5.06 0.024 1.561 4.802 9.952 30.626 1.522 4.686-3.902 3.014-41.662 32.176 2.694-4.926c-0.554 6.284-1.78 12.519-3.662 18.55-0.94 3.016-2.044 5.98-3.302 8.876-0.632 1.447-1.302 2.877-2.003 4.291l-1.085 2.104c0.028-0.047 1e-3 -0.403-0.269-0.628" fill-rule="nonzero"/></g><g transform="translate(227.04 612.45)"><path d="m0 0c0 16.491-13.371 29.869-29.868 29.869-16.491 0-29.862-13.378-29.862-29.869h29.862l-21.111-21.119c5.402-5.409 12.866-8.75 21.111-8.75 16.497 0 29.868 13.371 29.868 29.869" fill-rule="nonzero"/></g><g transform="matrix(-.55885 -.82927 -.82927 .55885 433.45 794.92)"><path d="m-43.968 83.277h92.452l-3.997-59.611-54.215-26.17-34.24 85.781z" fill="#ffaf37" fill-rule="nonzero"/></g><g transform="translate(345.96 852.52)"><path d="m0-50.942l43.034 63.857 45.731-63.542c1.009-1.402 0.556-3.373-0.965-4.193l-42.169-22.744c-1.622-0.99-3.659-1.006-5.296-0.042l-39.579 23.327c-1.166 0.687-1.513 2.214-0.756 3.337m42.972 88.816l-59.381-88.114c-1.214-1.801-0.651-4.252 1.227-5.342l55.685-32.334c1.55-0.9 3.464-0.898 5.013 5e-3l55.87 32.591c1.962 1.144 2.542 3.712 1.263 5.589l-59.677 87.605z" fill-rule="nonzero"/></g><g transform="translate(773.78 516.92)"><path d="m0-132.81v241.4c-1e-3 177.01-208.91 275.52-386.89 275.52-152.92 0-386.89-98.506-386.89-275.52v-274.21c0-155.71 91.99-289.94 224.59-351.3v293.59c0 114.59 331.3 114.59 331.3 0v-207.59c128.13 35.719 217.89 145.04 217.89 298.11" fill="#1a83af" fill-rule="nonzero"/></g><g transform="translate(468.72 720.54)"><path d="m0-163.66c-4.599 14.156-5.369 16.494-9.969 30.676l41.75 32.243c1.053 11.973 4.676 23.2 10.327 33.143l-15.029 48.634c12.05 8.761 14.028 10.2 26.104 18.961l41.543-28.364c5.909 1.362 12.075 2.081 18.395 2.081s12.486-0.719 18.396-2.081l41.569 28.364c12.049-8.761 14.027-10.2 26.077-18.961l-15.03-48.66c5.652-9.943 9.275-21.144 10.328-33.117l41.75-32.243c-4.6-14.182-5.345-16.52-9.969-30.676h-226.24z" fill="#ffe797" fill-rule="nonzero"/></g><g transform="translate(613.26 612.45)"><path d="m0 0c0 16.491-13.371 29.869-29.869 29.869-16.49 0-29.861-13.378-29.861-29.869h29.861l-21.111-21.119c5.402-5.409 12.866-8.75 21.111-8.75 16.498 0 29.869 13.371 29.869 29.869" fill-rule="nonzero"/></g><g transform="translate(266.71 554.11)"><path d="m0 98.683l14.999 48.559c-12.024 8.743-13.999 10.178-26.023 18.921l-41.483-28.305c-5.897 1.359-12.051 2.077-18.357 2.077-6.307 0-12.46-0.718-18.358-2.077l-41.457 28.305c-12.05-8.743-14.024-10.178-26.049-18.921l14.999-48.534c-5.64-9.921-9.255-21.126-10.306-33.073l-41.663-32.176c4.59-14.153 5.358-16.486 9.948-30.612l53.609-0.257c7.205-7.666 15.87-13.922 25.562-18.331l17.614-51.739h32.201l17.615 51.739c9.69 4.409 18.356 10.665 25.56 18.331l53.61 0.257c4.616 14.126 5.359 16.459 9.949 30.612l-41.663 32.176c-1.051 11.947-4.666 23.126-10.307 33.048" fill="#ffe797" fill-rule="nonzero"/></g><g transform="translate(227.04 612.45)"><path d="m0 0c0 16.491-13.371 29.869-29.868 29.869-16.491 0-29.862-13.378-29.862-29.869h29.862l-21.111-21.119c5.402-5.409 12.866-8.75 21.111-8.75 16.497 0 29.868 13.371 29.868 29.869" fill-rule="nonzero"/></g><g transform="matrix(-.55885 -.82927 -.82927 .55885 433.45 794.92)"><path d="m-43.968 83.277h92.452l-3.997-59.611-54.215-26.17-34.24 85.781z" fill="#ffaf37" fill-rule="nonzero"/></g></svg>