<svg viewBox="0 0 1535 1227" xmlns="http://www.w3.org/2000/svg" clip-rule="evenodd" fill-rule="evenodd" stroke-linejoin="round" stroke-miterlimit="2"><g transform="translate(589.9 991.17)"><path d="m0 178.89l2.297-4.235c1.326-2.444 2.026-5.205 2.026-7.986v-167.3c0-2.261-0.448-4.464-1.332-6.546l-2.297-5.408 30.313 5.761c-2.45 2.758-3.935 6.273-4.197 9.958l-1.82-6.08v173.4c0 2.772 0.697 5.526 2.014 7.964l2.702 4.998-29.706-4.527zm78.151 9.683c1.579-3.612 1.847-7.709 0.705-11.522l-30.049-100.41 32.85 106.68v-169.72c0-2.653-0.641-5.303-1.855-7.661l-2.516-4.893 29.519 2.818-2.386 3.935c-1.589 2.617-2.429 5.621-2.429 8.686v162.77c0 2.855 0.736 5.68 2.129 8.171l2.259 4.043-28.227-2.898z" fill-rule="nonzero"/></g><g transform="translate(585.23 1188.3)"><path d="m0-215.75c-1.216 0-2.11 1.261-1.607 2.446l4.668 10.993c0.617 1.453 0.935 3.015 0.935 4.592v167.3c0 1.956-0.489 3.882-1.421 5.602l-4.498 8.292c-0.58 1.07 0.077 2.391 1.28 2.575l40.705 6.203c0.094 0.014 0.187 0.021 0.276 0.021 1.29 0 2.18-1.402 1.535-2.595l-5.797-10.725c-0.928-1.716-1.413-3.636-1.413-5.586v-139.25l44.076 147.28c0.943 3.15 0.522 6.551-1.16 9.378l-1.508 2.532c-0.657 1.103 0.053 2.516 1.331 2.647l39.342 4.04c0.064 7e-3 0.127 0.01 0.189 0.01 1.313 0 2.188-1.43 1.525-2.615l-5.303-9.489c-0.979-1.751-1.492-3.725-1.492-5.731v-162.77c0-2.148 0.588-4.255 1.703-6.092l5.066-8.353c0.672-1.108-0.045-2.538-1.336-2.661l-40.566-3.873c-0.059-6e-3 -0.118-8e-3 -0.176-8e-3 -1.289 0-2.163 1.379-1.555 2.562l5.229 10.167c0.855 1.662 1.301 3.505 1.301 5.374v136.49l-44.889-145.78c0-3.26 1.354-6.373 3.74-8.596l3.5-3.262c1.053-0.981 0.545-2.743-0.87-3.012l-42.471-8.072c-0.115-0.021-0.229-0.032-0.339-0.032m90.257 25.524l13.082 1.249c-1.103 2.643-1.676 5.489-1.676 8.374v162.77c0 2.145 0.32 4.277 0.94 6.32l-11.274-1.157v-170.81c0-2.284-0.366-4.568-1.072-6.739m-76.927-12.843l11.333 2.153v174.28c0 2.233 0.348 4.455 1.02 6.578l-13.347-2.034c1.09-2.634 1.66-5.474 1.66-8.331v-167.3c0-1.819-0.224-3.609-0.666-5.35" fill-rule="nonzero"/></g><g transform="translate(869.42 974.69)"><path d="m0 205.61c0.923-1.91 1.384-2.864 2.306-4.77 1.33-2.748 2.032-5.649 2.032-8.388-9e-3 -54.569-0.018-109.14-0.026-163.7 0-2.241-0.451-4.302-1.338-6.131-0.921-1.901-1.382-2.854-2.303-4.764 10.184-0.728 20.383-1.71 30.524-2.89-2.475 3.474-3.974 7.395-4.24 11.115-0.733-2.187-1.101-3.281-1.835-5.473-0.011 56.813-0.021 113.62-0.032 170.44-1e-3 2.739 0.697 5.288 2.02 7.374 1.083 1.709 1.625 2.565 2.708 4.277-9.941 0.945-19.881 1.908-29.816 2.917m78.308-9.93c1.583-4.012 1.856-8.178 0.724-11.69-9.882-30.653-19.825-61.286-29.951-91.86 11.075 32.41 21.93 64.892 32.735 97.393 0.097-56.933 0.192-113.86 0.288-170.8 5e-3 -2.659-0.629-5.091-1.835-7.031-1-1.61-1.501-2.415-2.503-4.022 9.759-2.441 19.497-5.003 29.196-7.673-0.935 1.934-1.402 2.901-2.339 4.834-1.56 3.217-2.39 6.55-2.393 9.647-0.055 55.16-0.11 110.32-0.167 165.48-2e-3 2.869 0.726 5.502 2.106 7.613 0.896 1.371 1.346 2.056 2.242 3.424-9.346 1.673-18.722 3.223-28.103 4.681" fill-rule="nonzero"/></g><g transform="translate(864.72 1165.9)"><path d="m0-178.01c-1.215 0.307-2.107 1.79-1.604 2.848 1.864 3.923 2.797 5.871 4.667 9.747 0.618 1.281 0.936 2.745 0.937 4.307 6e-3 54.543 0.013 109.09 0.02 163.63 0 1.929-0.49 3.952-1.426 5.887-1.805 3.73-2.707 5.6-4.513 9.351-0.582 1.21 0.077 2.354 1.285 2.228 13.61-1.41 27.229-2.72 40.849-4.01 0.095-8e-3 0.187-0.025 0.277-0.048 1.294-0.317 2.187-1.926 1.54-2.95-2.322-3.68-3.484-5.519-5.809-9.188-0.93-1.469-1.417-3.246-1.416-5.174 0.016-45.659 0.032-91.317 0.048-136.98 14.964 44.53 29.656 89.143 44.092 133.84 0.937 2.901 0.511 6.405-1.174 9.652-0.604 1.165-0.906 1.747-1.51 2.91-0.659 1.266 0.049 2.492 1.325 2.297 13.086-1.999 26.152-4.138 39.174-6.522 0.063-0.012 0.126-0.026 0.187-0.044 1.303-0.374 2.171-2.056 1.514-3.053-2.105-3.192-3.155-4.795-5.258-8.008-0.971-1.483-1.478-3.323-1.477-5.342 0.036-55.291 0.071-110.58 0.107-165.87 2e-3 -2.176 0.58-4.521 1.67-6.783 1.981-4.115 2.969-6.174 4.937-10.293 0.654-1.367-0.043-2.544-1.297-2.193-13.318 3.725-26.692 7.21-40.099 10.595-0.059 0.015-0.118 0.032-0.176 0.052-1.291 0.442-2.169 2.115-1.561 3.087 2.089 3.34 3.132 5.011 5.216 8.361 0.852 1.369 1.294 3.059 1.29 4.931-0.077 45.711-0.155 91.422-0.232 137.13-14.67-44.048-29.712-87.962-44.924-131.83 2e-3 -3.223 1.37-6.715 3.78-9.651 1.415-1.725 2.123-2.589 3.538-4.32 1.064-1.302 0.551-2.889-0.877-2.715-14.243 1.645-28.462 3.018-42.761 4.056-0.115 7e-3 -0.229 0.026-0.339 0.053m90.725-2.573c5.2-1.332 7.792-2.01 12.945-3.382-1.089 3.058-1.659 6.129-1.663 9.041-0.071 55.027-0.141 110.06-0.212 165.08-3e-3 2.154 0.312 4.206 0.927 6.085-4.485 0.768-6.729 1.143-11.223 1.875 0.02-11.487 0.038-22.975 0.057-34.462 0.074-45.95 0.148-91.9 0.223-137.85 4e-3 -2.294-0.356-4.458-1.054-6.388m-77.36 11.664c4.557-0.393 6.841-0.609 11.412-1.07-1e-3 11.512-2e-3 23.025-2e-3 34.538-3e-3 45.516-4e-3 91.032-7e-3 136.55 0 2.204 0.349 4.314 1.024 6.246-5.359 0.518-8.039 0.778-13.399 1.309 1.094-2.875 1.666-5.82 1.665-8.636-7e-3 -54.606-0.015-109.21-0.022-163.82-1e-3 -1.8-0.225-3.511-0.671-5.115" fill-rule="nonzero"/></g><g transform="translate(774.78 996.85)"><path d="m0 204.65v-8.765c0-3.54-2.825-6.42-6.299-6.42-0.321 0-0.644 0.026-0.962 0.077-4.305 0.679-8.376 1.024-12.095 1.024-11.22 0-19.599-3.014-25.616-9.213-8.894-9.164-12.866-25.416-12.141-49.686l2e-3 -85.483c0-32.007 18.538-46.585 35.762-46.585 17.561 0 36.46 14.578 36.46 46.585v10.112h-22.28l2.307-2.751c2.299-2.742 3.526-6.22 3.457-9.796l-0.803-32.492c-0.049-1.942-0.94-3.722-2.446-4.885-4.746-3.663-12.059-4.209-15.996-4.209-2.72 0-9.497 0.293-13.669 3.01-1.835 1.196-2.918 3.228-2.895 5.436l1.65 171.81c0.024 2.541 1.543 4.832 3.87 5.836 3.51 1.516 7.497 2.285 11.849 2.285 4.424 0 9.23-0.768 14.694-2.347 2.994-0.864 4.929-3.307 4.929-6.221v-43.223c0-5.93-4.84-10.754-10.788-10.754-0.511 0-1.016 0.036-1.512 0.106l0.221-14.488 27.19 1.139v90.292l-14.889-0.398z" fill-rule="nonzero"/></g><g transform="translate(753.43 1207)"><path d="m0-215.55c-20.437 0-40.762 17.007-40.762 51.585v85.333c-1.173 39.284 9.67 64.048 42.754 64.048 3.966 0 8.254-0.356 12.877-1.086 0.061-9e-3 0.121-0.014 0.181-0.014 0.716 0 1.299 0.676 1.299 1.42v12.255c0 0.767 0.61 1.394 1.377 1.414l22.059 0.591c0.013 1e-3 0.027 1e-3 0.039 1e-3 0.779 0 1.413-0.632 1.413-1.415v-97.413c0-0.758-0.597-1.381-1.354-1.413l-34.305-1.438c-0.02-1e-3 -0.04-2e-3 -0.06-2e-3 -0.769 0-1.402 0.618-1.414 1.394l-0.366 23.989c-0.013 0.866 0.693 1.438 1.426 1.438 0.362 0 0.731-0.139 1.022-0.452h1e-3c1.183-1.268 2.681-1.836 4.152-1.836 2.947 0 5.788 2.278 5.788 5.754v43.224c0 0.743-0.605 1.211-1.318 1.417-4.195 1.213-8.787 2.15-13.305 2.15-3.399 0-6.756-0.531-9.868-1.875-0.514-0.22-0.846-0.734-0.852-1.293l-1.65-171.82c-5e-3 -0.48 0.224-0.934 0.626-1.196 2.142-1.395 6.437-2.2 10.937-2.2 4.92 0 10.084 0.962 12.94 3.166 0.322 0.249 0.495 0.645 0.506 1.052l0.801 32.465c0.046 2.368-0.767 4.672-2.289 6.486l-5.597 6.674c-1.425 1.699-0.217 4.29 2.001 4.29h30.987c0.781 0 1.414-0.633 1.414-1.414v-13.697c0-34.195-20.787-51.585-41.46-51.585m13.969 124.23l17.268 0.723v80.361l-4.888-0.13v-3.897c0-2.701-0.933-5.187-2.491-7.144 1.443-1.913 2.269-4.256 2.269-6.765v-43.224c0-7.466-5.231-13.734-12.228-15.349l0.07-4.575m10.353-100.3c4.347 6.675 7.138 15.832 7.138 27.654v5.111h-7.893c0.952-2.413 1.426-5.008 1.375-7.643v-0.028l-1e-3 -0.026-0.619-25.068m-45.152-4.166l1.578 164.28c-0.267-0.25-0.528-0.506-0.784-0.769-7.793-8.03-11.403-23.524-10.731-46.054l5e-3 -0.15v-85.482c0-13.352 3.433-24.344 9.932-31.82" fill-rule="nonzero"/></g><g transform="translate(817.89 997.24)"><path d="m0 185.56c2.15-2.537 3.334-5.766 3.334-9.092v-164.61c0-3.734-1.447-7.25-4.075-9.901l-2.141-2.16 29.5-1.435-1.613 2.599c-1.384 2.226-2.115 4.791-2.115 7.416v166.08c0 4.219 1.945 8.283 5.216 10.933l-29.493 1.806 1.387-1.636z" fill-rule="nonzero"/></g><g transform="translate(850.57 1189.9)"><path d="m0-199.6c-0.029 0-0.06 1e-3 -0.09 2e-3l-43.083 2.097c-1.482 0.072-2.179 1.865-1.134 2.919l7.332 7.396c1.683 1.697 2.626 3.99 2.626 6.381v164.61c0 2.147-0.76 4.223-2.148 5.86l-6.338 7.478c-0.961 1.135-0.14 2.853 1.314 2.853 0.037 0 0.075-1e-3 0.114-3e-3l45.798-2.805c1.595-0.098 2.218-2.12 0.955-3.099l-6.624-5.128c-2.217-1.715-3.515-4.362-3.515-7.166v-166.08c0-1.689 0.473-3.344 1.363-4.779l4.897-7.889c0.721-1.161-0.123-2.646-1.467-2.646m-14.227 10.702c-0.375 1.501-0.566 3.049-0.566 4.612v166.08c0 2.225 0.399 4.418 1.148 6.479l-11.418 0.699c0.47-1.671 0.714-3.409 0.714-5.168v-164.61c0-2.629-0.529-5.179-1.538-7.525l11.66-0.568" fill-rule="nonzero"/></g><g transform="translate(1070.9 1156.2)"><path d="m0-209.47c-2.51-0.9-5.159-1.384-7.825-1.416l7.825-2.914v4.33zm-19.501 77.848c-2.399-1.182-4.966-1.953-7.61-2.285 2.787-1.083 5.373-2.684 7.61-4.722v7.007zm9.324 122.34c3.361-1.708 6.316-4.19 8.615-7.275l1.836-2.466v7.418l-10.451 2.323zm-59.289 8.979c1.417-3.258 2.136-6.718 2.136-10.285v-159.53c0-5.979-2.077-11.78-5.848-16.335l-0.057-0.07 25.674-9.562v195.1l-23.922 5.314 2.017-4.639z" fill-rule="nonzero"/></g><g transform="translate(1075.9 1167)"><path d="m0-231.79l-84.708 31.55c-0.904 0.325-1.208 1.489-0.586 2.24l3.265 3.942c3.032 3.663 4.698 8.326 4.698 13.147v159.53c0 2.859-0.586 5.685-1.72 8.291l-4.833 11.112c-0.415 0.952 0.281 1.982 1.231 1.982 0.092 0 0.187-0.011 0.284-0.031l81.56-18.119c0.631-0.135 1.083-0.709 1.083-1.375v-21.248c0-0.861-0.677-1.408-1.372-1.408-0.387 0-0.78 0.17-1.063 0.551l-8.411 11.289c-2.8 3.759-6.79 6.38-11.271 7.404l-25.718 5.667v-120.4l8.162-1.724c1.42-0.331 2.861-0.494 4.295-0.494 3.773 0 7.5 1.13 10.708 3.302l2.792 1.889c0.236 0.16 0.492 0.232 0.741 0.232 0.707 0 1.362-0.582 1.362-1.407v-22.143c0-0.843-0.668-1.407-1.367-1.407-0.322 0-0.652 0.119-0.925 0.386l-5.579 5.448c-2.449 2.392-5.454 4.088-8.723 4.925l-11.466 2.945v-58.889l27.999-10.944c2.095-0.757 4.276-1.132 6.45-1.132 3.228 0 6.442 0.828 9.339 2.455l1.765 0.993c0.21 0.118 0.432 0.171 0.648 0.171 0.711 0 1.36-0.588 1.36-1.406v-17.323zm-57.561 32.109v183.9l-10.821 2.404c0.699-2.596 1.051-5.273 1.051-8.003v-159.53c0-4.863-1.151-9.63-3.312-13.897l13.082-4.873" fill-rule="nonzero"/></g><g transform="translate(1161 1134.7)"><path d="m0-228.24c-2.572-0.407-5.25-0.417-7.904-0.014-0.073 0.011-0.145 0.022-0.218 0.034 3.198-1.608 4.815-2.428 8.107-4.116 6e-3 1.629 9e-3 2.448 0.015 4.096m-18.599 82.223c-2.24-0.915-4.62-1.389-7.058-1.409 2.571-1.514 4.971-3.582 7.06-6.078 0 2.987-1e-3 4.484-2e-3 7.487m9.029 129.93c3.066-2.231 5.82-5.195 8.003-8.687 0.721-1.156 1.084-1.736 1.811-2.9-3e-3 3.102-4e-3 4.646-6e-3 7.716-3.993 1.604-5.949 2.375-9.808 3.871m-58.16 15.302c1.363-3.393 2.048-6.976 2.048-10.645 0.012-56.876 0.035-113.75 0.032-170.63 0-6.286-1.974-12.204-5.656-16.749-7e-3 -9e-3 -0.01-0.014-0.017-0.023 10.01-4.325 14.735-6.415 24.155-10.704 0.05 68.946-0.028 137.89-0.05 206.84-8.797 2.83-13.209 4.163-22.486 6.785 0.792-1.944 1.186-2.92 1.974-4.877" fill-rule="nonzero"/></g><g transform="translate(1165.9 1145.6)"><path d="m0-250.63c-27.18 13.616-54.735 26.205-82.704 38.111-0.904 0.381-1.211 1.608-0.587 2.36 1.31 1.577 1.96 2.367 3.253 3.945 3.003 3.667 4.614 8.45 4.614 13.53 1e-3 56.877-0.014 113.75-0.02 170.63-1e-3 2.941-0.569 5.867-1.677 8.586-1.89 4.635-2.842 6.935-4.765 11.496-0.412 0.978 0.282 1.97 1.221 1.918 0.092-5e-3 0.186-0.02 0.282-0.046 27.078-7.613 53.424-16.701 79.575-27.051 0.633-0.255 1.09-0.934 1.091-1.624 5e-3 -8.796 0.01-13.274 0.019-22.319 1e-3 -0.916-0.682-1.367-1.379-1.234-0.388 0.073-0.781 0.329-1.065 0.787-3.366 5.435-5.018 8.112-8.28 13.389-2.715 4.391-6.534 7.712-10.738 9.373-10.778 3.884-15.915 5.617-26.421 8.905 0.017-42.97 0.055-85.939 0.07-128.91 4.089-1.161 6.122-1.756 10.211-2.998 1.302-0.516 2.622-0.859 3.94-1.032 3.467-0.456 6.914 0.255 9.911 2.121 1.043 0.65 1.565 0.972 2.615 1.615 0.222 0.135 0.462 0.174 0.696 0.134 0.666-0.11 1.285-0.841 1.286-1.73 4e-3 -9.531 5e-3 -14.269 5e-3 -23.615 0-0.891-0.632-1.379-1.291-1.272-0.302 0.049-0.612 0.225-0.869 0.548-2.096 2.635-3.138 3.948-5.211 6.567-2.274 2.875-5.049 5.074-8.05 6.353-5.312 1.939-7.941 2.86-13.241 4.657 3e-3 -20.474 1e-3 -40.95-0.018-61.426 9.587-4.378 19.118-8.923 28.554-13.619 1.975-0.995 4.047-1.652 6.136-1.978 3.103-0.485 6.244-0.245 9.126 0.753 0.702 0.244 1.055 0.364 1.763 0.602 0.211 0.072 0.432 0.079 0.648 0.036 0.713-0.141 1.366-0.833 1.364-1.604-0.022-6.543-0.034-9.742-0.064-15.961m-56.719 37.667c9e-3 18.608 0.011 37.216 9e-3 55.824 0 3.683-1e-3 5.529-2e-3 9.228-0.013 42.938-0.042 85.878-0.056 128.82v1.736c-4.014 1.266-6.036 1.884-10.142 3.105 0.684-2.733 1.028-5.546 1.029-8.405 0.015-56.871 0.045-113.74 0.04-170.62 0-5.053-1.066-9.902-3.09-14.181 4.964-2.207 7.393-3.303 12.212-5.509" fill-rule="nonzero"/></g><g transform="translate(1280 844.9)"><path d="m0 229.01c1.982-3.25 3.066-6.99 3.06-10.552-0.118-65.164-0.227-130.33-0.344-195.49-8e-3 -4.016-1.377-7.216-3.82-9.058-1.314-0.99-1.967-1.487-3.266-2.487 10.441-5.064 20.826-10.223 31.211-15.403-0.962 2.162-1.443 3.246-2.403 5.418-1.318 2.981-2.014 6.045-2.015 8.866-0.037 66.981-0.07 133.96-0.107 200.94-2e-3 4.776 1.878 8.723 5.234 10.835 0.53 0.334 0.796 0.501 1.328 0.833-10.445 3.333-20.887 6.667-31.309 10.075 0.975-1.592 1.46-2.387 2.431-3.979" fill-rule="nonzero"/></g><g transform="translate(1312.4 1084.9)"><path d="m0-251.79c-0.03 0.013-0.061 0.027-0.091 0.042-14.338 7.075-28.563 14.381-43.075 21.098-1.401 0.639-2.053 2.942-1.069 3.76 2.761 2.295 4.172 3.413 7.021 5.633 1.635 1.275 2.567 3.527 2.571 6.292 0.121 64.896 0.234 129.79 0.355 194.68 4e-3 2.478-0.74 5.064-2.109 7.309-2.503 4.103-3.76 6.153-6.314 10.282-0.968 1.565-0.135 3.289 1.324 2.885 0.038-0.01 0.076-0.022 0.115-0.036 15.142-5.177 30.457-9.816 45.667-14.789 1.684-0.553 2.351-3.052 1.01-3.828-2.809-1.625-4.186-2.459-6.908-4.146-2.277-1.412-3.584-4.162-3.581-7.449 0.06-67.302 0.114-134.6 0.174-201.91 2e-3 -1.973 0.485-4.11 1.397-6.175 2.004-4.539 3.007-6.799 5.005-11.283 0.736-1.649-0.122-2.973-1.492-2.373m-14.028 17.049c-0.709 2.482-1.075 4.94-1.075 7.268 5e-3 66.652 9e-3 133.3 0.013 199.95 0 3.143 0.632 6.013 1.818 8.449-5.026 1.606-7.492 2.388-12.451 3.996 0.818-2.554 1.247-5.183 1.244-7.738-0.089-65.463-0.172-130.93-0.261-196.39-5e-3 -3.585-0.854-6.67-2.429-9.02 5.195-2.551 7.838-3.876 13.141-6.52" fill-rule="nonzero"/></g><g transform="translate(1329.8 796.47)"><path d="m0 264.15c1.139-3.289 1.701-4.932 2.815-8.217 1.147-3.378 1.737-6.772 1.728-9.825-0.189-66.973-0.373-133.94-0.562-200.92-6e-3 -2.472-0.378-4.612-1.11-6.357-1.025-2.454-1.54-3.676-2.574-6.111 8.905-4.384 17.92-8.67 27.055-12.559-0.08 0.164-0.119 0.246-0.197 0.41-2.392 4.991-3.846 10.553-4.036 15.425-0.613-2.479-0.921-3.714-1.535-6.177 0.389 70.059 0.765 140.12 1.152 210.18 0.017 3.064 0.579 5.801 1.616 7.934 1.182 2.432 1.771 3.652 2.942 6.096-9.19 3.055-18.322 6.483-27.294 10.125m65.622-23.228c1.632-5.067 2.009-10.405 1.005-14.762-9.749-42.612-19.008-85.333-28.726-127.95 10.49 44.583 20.441 89.29 31.061 133.84-0.208-70.214-0.405-140.43-0.61-210.64-9e-3 -2.988-0.536-5.746-1.514-7.963-1.128-2.552-1.689-3.82-2.805-6.341 8.951-3.205 18.686-5.656 28.077-7.102-1.26 2.91-1.885 4.375-3.122 7.322-1.427 3.4-2.165 7.038-2.162 10.497 0.063 67.497 0.121 134.99 0.185 202.49 3e-3 3.176 0.642 6.086 1.869 8.415 1.163 2.211 1.75 3.311 2.934 5.499-11.341 2.619-16.388 3.888-26.192 6.698" fill-rule="nonzero"/></g><g transform="translate(1325.6 1032.2)"><path d="m0-205.96c-1.112 0.817-1.941 2.908-1.477 3.967 1.725 3.927 2.581 5.899 4.282 9.871 0.561 1.312 0.851 2.955 0.854 4.827 0.112 66.817 0.223 133.64 0.335 200.45 4e-3 2.329-0.456 4.897-1.351 7.475-1.729 4.971-2.607 7.461-4.395 12.446-0.578 1.609 0.08 2.784 1.269 2.301 11.929-4.748 23.872-9.381 36.102-13.313 0.076-0.024 0.152-0.056 0.226-0.096 1.051-0.572 1.762-2.636 1.229-3.78-1.914-4.114-2.877-6.167-4.817-10.254-0.777-1.634-1.193-3.715-1.206-6.063-0.327-56.596-0.647-113.19-0.971-169.79 12.851 53.644 24.469 107.56 36.665 161.36 0.793 3.476 0.457 7.741-0.913 11.765-0.49 1.442-0.735 2.163-1.224 3.604-0.532 1.571 0.054 3 1.103 2.687 11.616-3.461 23.379-6.411 35.197-9.094 0.063-0.014 0.126-0.033 0.188-0.054 1.311-0.458 2.2-2.449 1.531-3.621-2.141-3.751-3.191-5.649-5.261-9.476-0.955-1.767-1.451-3.966-1.452-6.386-0.034-67.428-0.066-134.86-0.101-202.28 0-2.629 0.574-5.372 1.679-7.915 2.01-4.625 3.03-6.916 5.105-11.441 0.688-1.502-0.052-3.048-1.363-2.873-12.701 1.686-25.2 4.786-37.186 9.316-0.05 0.018-0.099 0.041-0.148 0.066-1.085 0.559-1.808 2.615-1.293 3.78 1.773 4.005 2.664 6.03 4.458 10.12 0.735 1.672 1.123 3.741 1.131 6.031 0.195 56.684 0.383 113.37 0.576 170.05-12.321-53.086-24.213-106.26-37.424-159.14-0.024-3.92 1.062-8.434 2.985-12.442 1.129-2.354 1.692-3.527 2.817-5.865 0.847-1.758 0.422-3.588-0.726-3.122-12.281 5.043-24.186 10.891-36.114 16.703-0.105 0.051-0.208 0.115-0.31 0.189m75.165-19.75c5.263-1.574 7.964-2.269 13.608-3.457-1.662 4.19-2.517 8.631-2.511 12.827 0.093 67.535 0.182 135.07 0.277 202.6 5e-3 3.283 0.545 6.339 1.586 8.942-4.43 1.067-6.562 1.604-10.73 2.709-0.037-14.6-0.073-29.199-0.108-43.799-0.136-56.791-0.267-113.58-0.405-170.37-9e-3 -3.501-0.605-6.762-1.717-9.455m-63.835 24.513c4.173-1.993 6.208-2.954 10.226-4.789 0.075 14.611 0.15 29.222 0.224 43.835 0.287 56.279 0.57 112.56 0.859 168.84 0.017 3.374 0.585 6.423 1.636 8.904-5.165 1.846-7.812 2.841-13.363 5.005 0.105-0.315 0.156-0.471 0.261-0.786 1.386-4.178 2.096-8.38 2.081-12.165-0.251-67.138-0.497-134.28-0.749-201.42-0.011-2.84-0.404-5.338-1.175-7.426" fill-rule="nonzero"/></g><g transform="translate(1232.6 900.25)"><path d="m0 182.62c0.318-1.89 0.366-3.824 0.142-5.741-4.665-40.118-9.006-80.272-13.459-120.41 16.431-11.171 19.554-37.4 17.296-55.151-1.339-10.54-7.587-23.997-20.309-23.124 1.821-0.506 3.705-0.821 5.497-1.053 18.132-2.353 33.269 13.753 33.108 31.339v5.887c3e-3 11.325-6.362 23.45-13.626 31.868-0.767 0.858-1.15 1.286-1.918 2.144 0.118 1.156 0.176 1.734 0.293 2.893 4.003 38.644 7.901 77.297 12.036 115.93 0.329 3.058 1.197 5.927 2.582 8.535 1.476 2.786 2.215 4.173 3.694 6.933-8.967 2.936-17.916 5.931-26.85 8.967 0.606-3.572 0.909-5.374 1.514-9.01m-50.213 20.45c1.409-3.395 2.127-7.029 2.129-10.79 0.027-60.076 0.052-120.15 0.078-180.23 3e-3 -6.415-2.066-12.32-5.835-16.666-7e-3 -9e-3 -0.01-0.013-0.017-0.021 8.658-4.125 17.325-8.229 26.002-12.313-0.018 26.543-0.034 53.086-0.049 79.629 0.092-0.037 0.137-0.055 0.229-0.092-0.024 41.013-0.048 82.026-0.074 123.04-2e-3 3.278 0.828 6.412 2.403 9.071 0.065 0.11 0.098 0.165 0.162 0.275 1.176 1.493 1.765 2.237 2.942 3.718-9.98 3.046-19.954 6.104-29.936 9.141 0.786-1.896 1.179-2.848 1.966-4.762" fill-rule="nonzero"/></g><g transform="translate(1209.7 1030.1)"><path d="m0-75.049c0.013-23.128 0.026-46.255 0.041-69.383 1.465-0.653 2.197-0.979 3.662-1.633 0.84-0.241 1.655-0.401 2.441-0.483 28.034-1.475 16.783 60.43-0.485 69.223-2.263 0.911-3.395 1.366-5.659 2.276m12.08-82.7c-4.258 0.451-8.618 1.631-12.94 3.643-12.225 5.688-24.43 11.417-36.616 17.19-0.913 0.425-1.213 1.667-0.591 2.383 1.311 1.502 1.967 2.256 3.278 3.771 3.036 3.521 4.695 8.288 4.693 13.449-0.019 60.015-0.036 120.03-0.054 180.04-2e-3 2.994-0.58 5.967-1.715 8.715-1.923 4.7-2.884 7.025-4.805 11.611-0.407 0.979 0.283 1.967 1.231 1.909 0.09-6e-3 0.184-0.022 0.28-0.048 13.847-4.169 27.684-8.367 41.528-12.546 1.419-0.422 2.021-2.199 1.121-3.33-2.254-2.837-3.381-4.266-5.633-7.145-1.117-1.897-1.705-4.132-1.704-6.451 0.025-39.834 0.047-79.667 0.07-119.5 2.04-0.815 3.06-1.222 5.101-2.039 4.206 38.024 8.34 76.054 12.761 114.05 0.159 1.364 0.129 2.757-0.102 4.134-0.927 5.572-1.391 8.325-2.318 13.748-0.201 1.402 0.851 2.513 2.118 2.444 0.188-0.011 0.38-0.047 0.574-0.112 11.446-3.85 22.914-7.638 34.414-11.325 1.458-0.461 2.203-2.196 1.569-3.628-2.161-4.044-3.241-6.082-5.401-10.181-1.055-2.002-1.728-4.234-1.98-6.574-4.14-38.717-8.038-77.458-12.052-116.19 8.484-10.079 15.001-22.936 15.3-36.313v-5.898c0.218-21.196-16.629-38.135-38.127-35.813m12.331 74.938c0.223 2.129 0.334 3.197 0.556 5.335 3.994 38.561 7.887 77.131 12.018 115.68 0.406 3.765 1.476 7.285 3.182 10.479 0.227 0.424 0.34 0.636 0.567 1.061-5.209 1.75-7.811 2.633-13.011 4.406 0.047-0.283 0.071-0.426 0.118-0.709 0.408-2.428 0.47-4.907 0.182-7.371-4.428-38.14-8.57-76.312-12.79-114.48-0.107-0.967-0.161-1.452-0.268-2.416 3.741-3.129 6.89-7.245 9.446-11.986m-34.35-56.176c-0.014 21.621-0.028 43.243-0.041 64.865-3e-3 5.898-5e-3 8.863-8e-3 14.805 0.092-0.037 0.136-0.055 0.228-0.091-0.022 38.495-0.045 76.991-0.069 115.49-2e-3 3.548 0.752 6.957 2.195 9.977-5.423 1.674-8.133 2.511-13.546 4.179 0.656-2.636 0.987-5.358 0.989-8.142 0.032-60.138 0.061-120.28 0.093-180.41 3e-3 -5.169-1.121-10.057-3.238-14.273 5.363-2.565 8.042-3.844 13.397-6.393m37.09-5.733c7.975 4.057 13.547 15.13 13.021 23.867v5.878c-0.037 9.998-5.798 19.916-11.94 27.433-1.278 1.413-1.917 2.12-3.195 3.535 6.593-13.887 9.345-30.665 6.789-45.934-0.9-5.837-2.499-10.785-4.675-14.779" fill-rule="nonzero"/></g><g transform="translate(1466 798.18)"><path d="m0 223.25c-3.767-1.729-7.734-4.455-11.402-8.708-8.268-9.585-12.638-24.531-12.638-43.222v-140.33c0-32.007 18.538-46.585 35.763-46.585 17.56 0 36.46 14.578 36.46 46.585v30.112h-22.282l2.308-2.751c2.299-2.742 3.526-6.221 3.457-9.796l-0.802-52.445c-0.047-1.987-0.94-3.77-2.451-4.935-4.742-3.66-12.056-4.207-15.993-4.207-2.72 0-9.496 0.294-13.667 3.011-1.835 1.194-2.919 3.227-2.897 5.437l1.651 222.8c0.021 2.007 0.963 3.849 2.493 5.034m33.071 15.203v-8.765c0-3.51-2.823-6.476-6.166-6.476-0.828 0-1.633 0.176-2.39 0.522-2.37 1.083-5.009 1.812-7.773 2.155 3.941-0.639 8.009-2.072 12.146-4.284 2.652-1.414 3.962-3.361 3.962-5.827v-57.222c0-5.93-4.84-10.754-10.788-10.754-0.511 0-1.016 0.036-1.513 0.106l0.222-14.488 27.189 1.14v104.29l-14.889-0.399z" fill-rule="nonzero"/></g><g transform="translate(1477.8 1042.1)"><path d="m0-264.55c-20.437 0-40.763 17.006-40.763 51.585v140.33c0 44.236 22.907 59.796 42.09 59.796 4.905 0 9.569-1.018 13.542-2.834 0.105-0.048 0.21-0.069 0.314-0.069 0.618 0 1.166 0.785 1.166 1.475v12.255c0 0.767 0.61 1.394 1.377 1.414l22.059 0.591c0.014 0 0.027 1e-3 0.039 1e-3 0.779 0 1.413-0.632 1.413-1.415v-111.41c0-0.758-0.597-1.381-1.354-1.413l-34.305-1.438c-0.02-1e-3 -0.041-2e-3 -0.06-2e-3 -0.769 0-1.402 0.617-1.414 1.394l-0.366 23.988c-0.013 0.867 0.693 1.439 1.426 1.439 0.361 0 0.731-0.139 1.023-0.452 1.183-1.268 2.68-1.836 4.152-1.836 2.947 0 5.788 2.278 5.788 5.754v57.223c0 0.743-0.663 1.067-1.318 1.418-4.955 2.647-9.793 4.077-14.461 4.077-2.978 0-5.888-0.582-8.712-1.802-0.514-0.221-0.846-0.734-0.852-1.294l-1.65-222.82c-5e-3 -0.48 0.223-0.934 0.626-1.196 2.142-1.395 6.437-2.2 10.937-2.2 4.92 0 10.084 0.962 12.94 3.166 0.322 0.249 0.496 0.645 0.506 1.052l0.801 52.465c0.046 2.367-0.767 4.672-2.289 6.486l-5.596 6.674c-1.426 1.699-0.218 4.29 2.001 4.29h30.986c0.78 0 1.414-0.633 1.414-1.415v-33.696c0-34.195-20.787-51.585-41.46-51.585m13.969 159.23l17.268 0.723v94.361l-4.888-0.13v-3.897c0-2.728-0.932-5.238-2.486-7.21 1.893-2.446 2.264-5.043 2.264-6.7v-57.223c0-7.466-5.231-13.735-12.229-15.35l0.071-4.574m10.282-135.41c4.387 6.684 7.209 15.878 7.209 27.763v25.111h-7.892c0.951-2.407 1.426-4.992 1.375-7.603l-0.692-45.271m-45.09-4.049l1.572 212.18c-0.024-0.027-0.048-0.056-0.072-0.084-7.473-8.664-11.424-22.48-11.424-39.955v-140.33c0-13.347 3.43-24.335 9.924-31.812" fill-rule="nonzero"/></g><g transform="translate(569.04 1144.1)"><path d="m0-167.31c-2.634-2.153-5.455-4.062-8.331-5.618 3.377 0.785 5.048 1.175 8.337 1.94-2e-3 1.465-3e-3 2.2-6e-3 3.678m-21.199 61.52c-2.633-2.292-5.468-4.286-8.402-5.905 3.096 0.304 5.955 0 8.418-0.884-6e-3 2.707-9e-3 4.066-0.016 6.789m9.808 125.69c3.56-0.412 6.635-1.788 9.002-4.03 0.757-0.717 1.134-1.077 1.885-1.795-6e-3 2.973-9e-3 4.461-0.013 7.434-4.262-0.596-6.445-0.923-10.874-1.609m-64.529-15.054c1.485-2.721 2.243-5.928 2.239-9.543-0.057-54.721-0.068-109.44-0.105-164.16-4e-3 -6.054-2.22-13.057-6.099-19.858-0.024-0.042-0.035-0.063-0.059-0.105 9.211 1.831 18.404 3.793 27.571 5.832 0.072 65.342 3e-3 130.68 0.121 196.02-10.53-1.82-15.788-2.735-25.777-4.311 0.841-1.549 1.262-2.324 2.109-3.875" fill-rule="nonzero"/></g><g transform="translate(574.26 1149.8)"><path d="m0-179.92c-30.481-7.473-60.957-15.062-91.707-21.361-0.899-0.194-1.199 0.824-0.582 1.954 1.295 2.371 1.949 3.553 3.267 5.912 3.062 5.478 4.802 11.146 4.805 16.068 0.026 54.989 0.037 109.98 0.077 164.96 3e-3 2.9-0.607 5.529-1.776 7.724-1.996 3.741-2.984 5.61-4.943 9.341-0.42 0.799 0.284 2.086 1.251 2.442 0.095 0.035 0.192 0.06 0.291 0.076 29.208 4.595 58.261 10.085 87.534 14.268 0.632 0.089 1.082-0.327 1.083-0.995 0.016-8.515 0.028-12.777 0.057-21.281 3e-3 -0.861-0.671-1.649-1.369-1.899-0.39-0.14-0.786-0.111-1.073 0.167-3.412 3.302-5.15 4.94-8.669 8.195-2.929 2.709-7.148 3.8-11.981 3.045-9.421-1.543-18.828-3.177-28.229-4.833-0.063-40.644-0.053-81.288-0.045-121.93 3.626 0.922 5.446 1.385 9.082 2.304 1.582 0.369 3.186 0.914 4.779 1.612 4.195 1.838 8.319 4.739 11.836 8.365 1.223 1.261 1.833 1.889 3.05 3.142 0.257 0.265 0.535 0.453 0.807 0.569 0.77 0.326 1.484 0.061 1.487-0.74 0.027-8.596 0.04-12.862 0.064-21.295 2e-3 -0.803-0.724-1.666-1.489-2.009-0.352-0.158-0.711-0.206-1.011-0.086-2.449 0.98-3.68 1.476-6.15 2.478-2.709 1.1-6.046 1.271-9.686 0.461-5.106-1.133-7.672-1.706-12.768-2.842 1e-3 -19.149-4e-3 -38.297-0.02-57.446 10.396 2.076 20.78 4.223 31.155 6.403 2.297 0.537 4.672 1.457 7.016 2.683 3.482 1.822 6.895 4.317 9.916 7.274 0.735 0.72 1.103 1.08 1.833 1.795 0.218 0.213 0.447 0.377 0.67 0.492 0.734 0.376 1.402 0.213 1.404-0.485 0.019-5.908 0.026-8.816 0.034-14.53m-63.096-4.821c0.019 17.841 0.03 35.68 0.037 53.52 1e-3 3.275 2e-3 4.915 3e-3 8.202 0.013 40.917 0.023 81.834 0.089 122.75l3e-3 1.494c-4.735-0.812-7.088-1.213-11.72-1.98 0.745-2.333 1.12-4.893 1.116-7.653-0.07-54.462-0.077-108.92-0.118-163.39-4e-3 -4.882-1.249-10.287-3.542-15.808 5.543 1.09 8.388 1.668 14.132 2.86" fill-rule="nonzero"/></g><g transform="translate(411.43 1055.2)"><path d="m0-8.942l32.343-23.782c0.459-0.337 1.107-0.23 1.432 0.238l22.145 31.845c0.053 0.074 0.035 0.177-0.04 0.229l-31.234 24.479c-0.073 0.052-0.174 0.035-0.228-0.037l-24.632-31.553c-0.334-0.451-0.238-1.087 0.214-1.419" fill-rule="nonzero"/></g><g transform="translate(414.39 1052.8)"><path d="m0-2.539c1.371-0.975 1.992-2.854 1.446-4.458-0.137-0.412-0.301-0.755-0.599-1.161l0.169 0.209 0.398 0.494 1.59 1.978 3.181 3.956 6.232 8.008c4.107 5.376 8.231 10.739 12.39 16.076l0.392 0.498 0.197 0.249 0.044 0.056c-0.187-0.249-0.451-0.536-0.756-0.789-0.3-0.249-0.63-0.462-0.979-0.631-1.388-0.685-3.101-0.645-4.468 0.122-0.551 0.329-0.626 0.421-0.528 0.339l0.031-0.024 0.062-0.05 0.124-0.098 0.249-0.197 0.497-0.393 1.99-1.576 3.979-3.15 7.959-6.298 7.989-6.257 8.054-6.171 0.254-0.19 0.032-0.023c0.084-0.06-8e-3 -8e-3 -0.331 0.272-0.573 0.515-1.023 1.181-1.287 1.899-0.546 1.423-0.334 3.143 0.547 4.399l-0.334-0.505-0.7-1.058-1.402-2.115-2.776-4.25c-1.85-2.834-3.655-5.699-5.469-8.557l-5.46-8.564-2.743-4.273-1.372-2.136-0.696-1.062-0.044-0.065c-0.016-0.025-9e-3 -0.014 0.018 0.025l0.06 0.079c0.084 0.102 0.176 0.205 0.277 0.295 0.202 0.185 0.433 0.338 0.68 0.449 0.493 0.223 1.04 0.284 1.573 0.178 0.265-0.051 0.523-0.152 0.756-0.282l0.17-0.103c0.05-0.034 0.133-0.099 0.08-0.06l-0.13 0.092-0.519 0.364-1.038 0.73-2.072 1.464-4.109 2.978c-2.751 1.97-5.426 4.041-8.045 6.19-5.205 4.343-10.191 8.982-15.563 13.097m-5.924-8.057c5.53-3.9 11.445-7.277 17.141-10.95 2.832-1.859 5.607-3.796 8.307-5.834l4.067-3.034 2.016-1.542 1.006-0.772 0.503-0.387 0.126-0.097 0.211-0.148c0.099-0.066 0.198-0.129 0.304-0.187 0.416-0.236 0.879-0.403 1.35-0.498 0.947-0.189 1.935-0.071 2.811 0.329 0.437 0.201 0.848 0.472 1.204 0.8 0.176 0.165 0.345 0.341 0.49 0.529l0.221 0.295 0.752 1.023 1.526 2.029 3.051 4.059 6.128 8.099c2.048 2.696 4.106 5.385 6.119 8.106l3.018 4.082 1.495 2.05 0.748 1.025 0.391 0.537c0.941 1.343 1.168 3.179 0.584 4.701-0.283 0.768-0.764 1.479-1.375 2.03l-0.424 0.347-0.245 0.201-7.921 6.349-7.986 6.263-8.015 6.221-4.009 3.111-2.004 1.554-0.502 0.389-0.25 0.194-0.125 0.098-0.063 0.048-0.032 0.024c0.077-0.065-0.018 0.044-0.592 0.385-1.459 0.819-3.29 0.862-4.773 0.13-0.373-0.181-0.726-0.407-1.046-0.674-0.325-0.268-0.607-0.576-0.811-0.846l-0.053-0.068-0.193-0.251-0.388-0.502c-4.168-5.329-8.37-10.632-12.589-15.923l-6.258-7.989-4.596-6.066-0.383-0.506-0.22-0.291c-0.422-0.578-0.682-1.113-0.886-1.724-0.392-1.21-0.39-2.518-2e-3 -3.711 0.377-1.193 1.169-2.279 2.172-3.008" fill-rule="nonzero"/></g><g transform="translate(404.81 1097.2)"><path d="m0-165.38c-1.881-2.094-3.874-4.049-5.916-5.797 2.403 1.094 3.589 1.636 5.922 2.704-2e-3 1.231-4e-3 1.849-6e-3 3.093m-19.118 61.515c-2.018-2.325-4.165-4.44-6.386-6.293 2.329 0.483 4.494 0.491 6.41 0.03-9e-3 2.497-0.014 3.75-0.024 6.263m10.562 135.28c2.631-0.314 4.913-1.372 6.732-3.129 0.51-0.492 0.764-0.738 1.27-1.233-6e-3 2.655-8e-3 3.978-0.013 6.619-3.131-0.862-4.734-1.317-7.989-2.257m-59.987-22.609c1.343-2.618 2.035-5.847 2.037-9.617 0.022-58.871 0.084-117.74 0.126-176.61 5e-3 -6.408-1.962-14.029-5.412-21.615 9.324 3.456 14.354 5.475 24.457 9.686-0.097 69.571-0.301 139.14-0.349 208.71-9.291-2.971-13.913-4.474-22.557-7.246 0.676-1.316 1.016-1.978 1.698-3.306" fill-rule="nonzero"/></g><g transform="translate(409.64 1100.8)"><path d="m0-174.57c-27.304-12.979-54.708-25.578-82.94-36.422-0.81-0.31-1.081 0.718-0.524 1.975 1.166 2.636 1.756 3.956 2.945 6.596 2.763 6.132 4.335 12.344 4.333 17.584-0.025 59.201-0.063 118.4-0.077 177.6-1e-3 2.994-0.546 5.62-1.585 7.718-1.772 3.576-2.647 5.345-4.369 8.83-0.369 0.747 0.249 2.13 1.1 2.614 0.083 0.048 0.169 0.086 0.256 0.115 26.305 8.5 52.548 17.331 79.249 24.53 0.566 0.157 0.97-0.22 0.971-0.901 0.014-8.685 0.025-13.077 0.051-21.899 3e-3 -0.894-0.6-1.781-1.225-2.113-0.349-0.184-0.704-0.195-0.962 0.065-3.06 3.081-4.629 4.601-7.816 7.594-2.653 2.491-6.485 3.167-10.887 1.878-10.108-3.046-15.409-4.728-25.758-8.033 0.041-43.431 0.148-86.862 0.252-130.29 3.306 1.432 4.966 2.153 8.279 3.589 1.442 0.593 2.902 1.378 4.353 2.328 3.816 2.501 7.559 6.14 10.74 10.475 1.107 1.509 1.659 2.26 2.758 3.757 0.232 0.315 0.484 0.553 0.729 0.71 0.697 0.445 1.342 0.25 1.346-0.611 0.039-9.229 0.058-13.803 0.094-22.804 3e-3 -0.858-0.651-1.875-1.341-2.345-0.318-0.216-0.643-0.315-0.914-0.228-2.216 0.721-3.333 1.088-5.576 1.84-2.461 0.825-5.496 0.58-8.81-0.753-4.649-1.867-6.99-2.805-11.638-4.658 0.048-20.376 0.093-40.753 0.125-61.129 9.476 3.74 18.903 7.635 28.276 11.625 2.065 0.932 4.194 2.27 6.287 3.912 3.11 2.443 6.14 5.553 8.806 9.067 0.65 0.856 0.973 1.282 1.617 2.133 0.191 0.253 0.393 0.458 0.589 0.61 0.646 0.503 1.233 0.442 1.235-0.27 0.016-6.032 0.023-8.976 0.031-14.689m-57.465-14.922c-0.024 18.663-0.053 37.327-0.083 55.99-7e-3 3.733-0.01 5.605-0.016 9.36-0.076 43.847-0.153 87.694-0.184 131.54 0 0.443-1e-3 0.664-1e-3 1.106-3.803-1.217-5.689-1.822-9.389-3.007 0.552-2.146 0.832-4.528 0.833-7.128 0.032-58.539 0.117-117.08 0.176-175.62 4e-3 -5.069-1.052-10.782-3.011-16.726 4.58 1.707 6.93 2.612 11.675 4.481" fill-rule="nonzero"/></g><g transform="translate(212.14 878.19)"><path d="m0 186.23l3.645-4.42c2.571-3.119 3.988-7.063 3.988-11.108v-188.32c0-1.121-0.108-2.245-0.322-3.341l-2.949-15.134 29.571 12.891-1.107 1.357 25.576 98.253-10.692 20.641-21.077-79.577v163.11c0 1.486 0.191 2.969 0.566 4.408l3.196 12.251-30.395-11.008zm67.534 26.429l3.446-4.175c2.576-3.122 3.994-7.069 3.994-11.114v-182.32c0-1.118-0.109-2.241-0.323-3.339l-2.863-14.704 29.386 14.147-2.809 3.172c-2.832 3.195-4.391 7.307-4.391 11.578v179.35c0 1.487 0.19 2.97 0.565 4.408l3.305 12.668-30.31-9.666z" fill-rule="nonzero"/></g><g transform="translate(212.16 1107.2)"><path d="m0-272.24c-1.056 0-1.963 0.969-1.739 2.118l4.123 21.162c0.154 0.785 0.231 1.583 0.231 2.384v188.32c0 2.894-1.007 5.697-2.847 7.928l-6.553 7.946c-0.78 0.947-0.388 2.381 0.765 2.799l40.46 14.654c0.206 0.074 0.412 0.108 0.611 0.108 1.103 0 2.017-1.055 1.711-2.226l-4.744-18.186c-0.268-1.028-0.403-2.084-0.403-3.146v-124.7l14.558 54.97 23.782-45.91v132.43c0 2.895-1.008 5.699-2.85 7.931l-6.48 7.853c-0.8 0.969-0.368 2.439 0.83 2.821l40.429 12.893c0.184 0.06 0.368 0.087 0.547 0.087 1.108 0 2.014-1.06 1.71-2.226l-4.783-18.334c-0.268-1.028-0.403-2.084-0.403-3.146v-179.34c0-3.045 1.114-5.985 3.133-8.263l5.639-6.365c0.781-0.882 0.503-2.266-0.559-2.777l-39.024-18.786c-0.256-0.123-0.518-0.18-0.772-0.18-1.052 0-1.966 0.964-1.741 2.119l4.094 21.016c0.152 0.784 0.23 1.582 0.23 2.382v29.878l-9.5 19.59-22.17-85.17 2.19-2.687c0.743-0.91 0.411-2.279-0.666-2.749l-39.096-17.044c-0.238-0.103-0.479-0.151-0.713-0.151m78.582 49.119l14.559 7.009c-2.714 3.795-4.186 8.352-4.186 13.059v179.34c0 1.912 0.244 3.82 0.727 5.67l1.013 3.885-14.706-4.691c2.568-3.731 3.966-8.188 3.966-12.743v-182.32c0-1.437-0.14-2.883-0.415-4.294l-0.958-4.92m-67.511-33.543l16.97 7.399 0.566 2.175 22.17 85.17 2.284 8.774-3.853 7.436-7.927-29.929-19.666-74.256v201.52c0 1.912 0.244 3.82 0.727 5.67l0.796 3.05-14.83-5.371c2.786-3.827 4.307-8.474 4.307-13.226v-188.32c0-1.438-0.14-2.884-0.415-4.297l-1.129-5.791" fill-rule="nonzero"/></g><g transform="translate(174.75 1041.5)"><path d="m0-221.3c-1.331-0.575-2.731-1.021-4.205-1.331-1.189-0.25-2.378-0.376-3.536-0.376-2.38 0-4.664 0.518-6.82 1.542 2.052-1.143 4.214-1.729 6.475-1.729 0.854 0 1.745 0.077 2.65 0.227 1.93 0.321 3.74 0.883 5.436 1.667m-19.084 218.73c-21.42-17.318-20.016-80.852-18.957-128.8l0.066-2.977c0.928-42.095 7.899-71.94 18.891-83.518v215.29zm11.878 4.466c-0.571 0-1.162-0.038-1.755-0.112-2.583-0.324-4.946-1.111-7.107-2.311 2.038 1.051 4.244 1.74 6.565 2.048 0.607 0.08 1.217 0.121 1.817 0.121 30.964 0 32.271-101.65 32.312-105.98 0.161-17.561 0.115-34.632-0.755-50.099 0.995 16.102 1.025 33.543 0.826 50.593-0.309 26.566-3.174 52.384-7.861 70.835-4.044 15.923-11.499 34.905-24.041 34.905h-1e-3z" fill-rule="nonzero"/></g><g transform="translate(167.06 823.56)"><path d="m0 214.58c-0.383 0-0.767-0.024-1.158-0.077-1.88-0.25-3.63-0.819-5.24-1.699v-210.85c1.935-1.314 4.045-2.018 6.341-2.018 0.813 0 1.649 0.087 2.509 0.268 24.12 5.07 25.34 60.99 24.86 113.35-0.382 40.867-8.754 101.03-27.312 101.03m-0.401-224.83c-24.737 0-33.854 46.874-34.887 93.735-1.33 60.67-3.62 136.55 33.39 141.2 0.807 0.1 1.601 0.151 2.377 0.151 28.35 0 36.387-66.239 36.903-110.68 0.67-57.34-1.02-118.57-34.31-124.11-1.189-0.198-2.349-0.295-3.473-0.295m-15.997 29.869v180.26c-2.779-6.379-4.956-14.742-6.49-24.951-3.852-25.617-3.117-58.89-2.468-88.245l0.065-2.974c0.556-25.188 3.356-46.515 8.101-61.675 0.238-0.761 0.503-1.571 0.792-2.412" fill-rule="nonzero"/></g><g transform="translate(85.757 941.53)"><path d="m0-76.73l2.447-2.618c3.863-4.134 5.843-8.27 5.885-12.293l-0.417-56.984c19.65 14.861 19.571 42.734 19.457 46.656-0.169 5.809-0.069 18.711-0.018 23.987 0.013 1.395 0.185 2.789 0.51 4.145l1.494 5.445-29.358-8.338zm-30.893 30.744c-13.471-12.192-20.411-27.893-20.411-62.172 0-7.068 1.124-38.242 20.411-47.135v109.31zm38.384 28.173c11.059 9.362 19.238 22.934 19.238 49.322 0 27.869-8.643 40.475-19.25 46.033l0.012-95.355zm-38.731 96.376c-13.778-5.943-20.371-20.518-20.075-44.145 0.01-0.811 0.018-1.48 0.01-1.983-0.046-3.102-0.028-10.601-0.013-14.794 0.01-3.097-0.76-6.16-2.228-8.86l-2.984-5.49 31.608 5.734-2.942 4.14c-2.208 3.106-3.376 6.784-3.376 10.634v54.764z" fill-rule="nonzero"/></g><g transform="translate(66.329 1028.2)"><path d="m0-249.38c-30.982-1e-3 -36.876 35.771-36.876 54.51 0 51.89 16.646 64.334 43.376 81.171 9.058 5.705 15.419 10.858 15.419 10.858l-0.012 93.396c-4.726 1.956-9.544 2.865-14.445 2.865-4.685 0-9.445-0.831-14.274-2.373v-53.96c0-2.786 0.859-5.499 2.451-7.738l5.69-8.005c0.831-1.17 0.189-2.841-1.188-3.091l-42.706-7.746c-0.115-0.02-0.227-0.03-0.337-0.03-1.389 0-2.345 1.589-1.621 2.921l6.012 11.058c1.07 1.969 1.628 4.193 1.62 6.456-0.015 4.384-0.032 11.763 0.015 14.885 0.106 7.223-3.293 51.194 37.774 54 1.952 0.134 3.881 0.204 5.776 0.204 24.946 0 44.483-12.246 44.483-55.204 0-39.77-18.215-52.786-34.786-62.667-11.856-7.067-22.836-16-22.836-16v-106.67c2.243-0.509 4.673-0.779 7.218-0.779 6.826 0 14.48 1.944 21.593 6.446l0.414 56.464c-0.035 3.34-2.302 6.537-4.538 8.931l-5.819 6.226c-0.997 1.069-0.528 2.86 0.853 3.251l39.485 11.214c0.171 0.048 0.339 0.07 0.503 0.07 1.196 0 2.152-1.207 1.798-2.496l-2.888-10.508c-0.238-0.991-0.363-2.005-0.373-3.025-0.044-4.547-0.154-17.962 0.016-23.794 0.32-11-2.641-54.049-45.137-60.333-2.339-0.346-4.558-0.511-6.66-0.511m-28.146 172.67l14.19 2.574c-1.875 3.42-2.856 7.253-2.856 11.227v45.628c-2.656-2.528-4.765-5.745-6.386-9.691-3.888-9.462-3.749-20.53-3.69-25.256 0.011-0.867 0.018-1.581 0.011-2.118-0.046-3.07-0.028-10.53-0.014-14.703 0.01-2.612-0.42-5.206-1.255-7.661m60.064-15.056c5.677 8.163 9.239 19.378 9.239 36.567 0 16.565-3.11 28.609-9.248 35.834l9e-3 -72.401m0.516-131.15c1.401 2.032 2.661 4.253 3.784 6.666 5.716 12.287 5.654 25.002 5.583 27.426-0.172 5.902-0.071 18.877-0.019 24.182 8e-3 0.801 0.056 1.6 0.146 2.395l-13.552-3.847c2.869-3.996 4.34-8.086 4.383-12.203l1e-3 -0.089-1e-3 -0.089-0.325-44.441m-48.899-9.167v86.054c-0.111-0.167-0.22-0.336-0.329-0.505-6.879-10.729-10.082-26.087-10.082-48.333 0-5.302 0.57-18.843 5.856-30.002 1.403-2.961 2.943-5.327 4.555-7.214" fill-rule="nonzero"/></g><g transform="translate(1253 481.43)"><path d="M0,0.05C-0.061,0.05 -0.12,0.04 -0.171,0.02C-0.12,0.02 -0.07,0.01 -0.011,0C0,0.01 0,0.03 0,0.05" fill-rule="nonzero"/></g><g transform="translate(1253 481.43)"><path d="M0,0.05C-0.061,0.05 -0.12,0.04 -0.171,0.02C-0.12,0.02 -0.07,0.01 -0.011,0C0,0.01 0,0.03 0,0.05" fill-rule="nonzero"/></g><g transform="translate(1160.6 629.59)"><path d="m0-208.75v251.4c0 341.46-773.78 341.46-773.78 0v-284.21c0-155.71 91.99-289.94 224.59-351.3v293.59c0 114.59 331.3 114.59 331.3 0v-207.59c128.13 35.718 217.89 145.04 217.89 298.11" fill="#1a83af" fill-rule="nonzero"/></g><g transform="translate(1141 547.33)"><path d="m0-127.49c-0.016-31.939-4.03-63.804-12.903-94.226-8.826-30.416-22.584-59.296-40.893-84.969-18.284-25.684-41.161-48.051-67.231-65.909-26.039-17.923-55.226-31.334-85.843-40.001l17.125-13.004v6e-3c-1.284 37.908-2.128 75.815-2.851 113.72l-0.935 56.861-0.383 28.431-0.079 7.108c-0.014 0.615 1e-3 1.134-0.034 1.827l-0.107 2.058c-0.089 1.371-0.12 2.743-0.271 4.111-0.42 2.729-0.699 5.478-1.454 8.147l-0.498 2.012c-0.159 0.672-0.331 1.341-0.573 1.988l-1.353 3.91c-0.209 0.658-0.491 1.284-0.776 1.909l-0.844 1.879c-0.566 1.251-1.11 2.513-1.811 3.681l-2 3.564c-0.724 1.144-1.493 2.252-2.243 3.376l-1.136 1.675-1.243 1.575c-0.832 1.045-1.655 2.101-2.503 3.13l-2.685 2.923c-0.452 0.483-0.893 0.979-1.354 1.448l-1.423 1.354c-7.561 7.283-16.075 13.106-24.916 17.894-8.848 4.807-18.035 8.663-27.362 11.863-9.334 3.186-18.8 5.767-28.344 7.822-9.542 2.063-19.158 3.609-28.8 4.772-9.642 1.166-19.319 1.916-29.005 2.286-19.369 0.724-38.783-0.014-58.065-2.389-19.265-2.421-38.457-6.337-57.088-12.829-9.305-3.261-18.462-7.178-27.282-12.024-8.816-4.826-17.236-10.794-24.727-18.11-0.966-0.874-1.832-1.879-2.728-2.846-0.878-0.986-1.809-1.914-2.637-2.957-1.646-2.095-3.353-4.132-4.795-6.421l-1.122-1.677-0.559-0.84-0.498-0.887-1.978-3.557c-0.659-1.185-1.153-2.471-1.731-3.706l-0.831-1.873c-0.281-0.623-0.466-1.288-0.703-1.931l-1.327-3.897-0.981-4.003c-0.152-0.669-0.337-1.334-0.457-2.008l-0.304-2.035c-0.184-1.358-0.425-2.715-0.546-4.076l-0.216-4.09-0.049-1.023c-0.019-0.349-0.032-0.683-0.029-0.962l-0.013-1.777-0.051-7.108-0.544-56.862c-0.401-37.907-0.917-75.815-1.578-113.72-0.673-37.907-1.39-75.815-2.478-113.72l19.169 12.252-4e-3 2e-3c-36.136 17.677-69.53 40.778-98.393 68.591-14.4 13.929-27.769 28.908-39.841 44.865-12.096 15.938-22.828 32.886-32.197 50.534l-3.496 6.628-3.255 6.749-1.629 3.373-0.815 1.686-0.752 1.715-3.015 6.857-1.519 3.424-1.392 3.476-2.786 6.952c-0.972 2.301-1.729 4.683-2.599 7.023l-2.536 7.046c-6.414 18.913-11.238 38.349-14.557 58.036-3.316 19.688-5.046 39.648-5.189 59.634-0.069 2.45-0.041 5.119-0.046 7.711l1e-3 7.817v15.634l3e-3 31.267 9e-3 125.07 5e-3 62.536 1e-3 15.633 1e-3 7.817v1.954c0 0.651-4e-3 1.319 0.015 1.895l0.077 3.588c0.223 9.566 1.2 19.086 2.949 28.462 3.478 18.76 10.108 36.904 19.307 53.838 9.185 16.951 20.911 32.685 34.333 47.028 13.428 14.354 28.535 27.339 44.679 39.049 16.167 11.695 33.386 22.104 51.249 31.376 17.867 9.275 36.401 17.396 55.369 24.396 18.965 7.008 38.355 12.936 58.004 17.737 19.652 4.782 39.571 8.428 59.566 10.762 9.997 1.166 20.013 1.995 30.009 2.433 2.499 0.121 4.994 0.166 7.491 0.254l7.479 0.101 7.562-0.052 7.565-0.171c40.352-1.259 80.696-7.383 119.7-18.081 19.502-5.339 38.672-11.843 57.279-19.589 18.606-7.735 36.671-16.68 53.856-26.956 17.184-10.268 33.46-21.915 48.355-34.974 14.884-13.058 28.359-27.571 39.712-43.471 11.355-15.888 20.553-33.172 26.963-51.422 6.41-18.247 10.044-37.421 10.809-56.828 0.082-2.426 0.104-4.857 0.163-7.286 0.018-0.592 0.023-1.228 0.02-1.891l4e-3 -1.954 6e-3 -3.909 0.023-15.634 0.049-31.268 0.097-62.535 0.192-125.07zm29.289 0l0.193 125.07 0.096 62.535 0.049 31.268 0.024 15.634 6e-3 3.909 3e-3 1.954c4e-3 0.639 1e-3 1.305-0.014 2.016-0.053 2.781-0.074 5.562-0.163 8.343-0.804 22.256-4.934 44.515-12.286 65.628-7.343 21.125-17.886 41.031-30.713 59.088-12.825 18.08-27.88 34.344-44.277 48.823-16.414 14.479-34.156 27.229-52.718 38.403-18.566 11.179-37.934 20.834-57.792 29.162-19.859 8.337-40.228 15.314-60.916 21.048-41.373 11.479-84.02 18.098-127 19.577l-8.063 0.207-8.072 0.08-8.154-0.083c-2.711-0.085-5.427-0.129-8.133-0.251-10.831-0.441-21.605-1.302-32.317-2.517-21.421-2.447-42.593-6.297-63.457-11.33-20.86-5.053-41.414-11.294-61.568-18.699-20.156-7.396-39.901-15.997-59.057-25.893-19.151-9.896-37.733-21.068-55.376-33.777-17.619-12.729-34.318-26.989-49.411-43.056-15.078-16.055-28.543-33.964-39.266-53.661-10.731-19.667-18.587-41.159-22.71-63.401-2.071-11.114-3.226-22.394-3.486-33.664l-0.084-4.227c-0.02-0.727-0.016-1.362-0.016-2.014v-1.954l1e-3 -7.817 1e-3 -15.633 5e-3 -62.536 0.01-125.07 3e-3 -46.901 1e-3 -7.817c6e-3 -2.619-0.023-5.162 0.048-7.923 0.157-21.7 2.038-43.403 5.65-64.821 3.611-21.419 9.001-42.539 16.038-63.089l2.783-7.654c0.955-2.542 1.797-5.126 2.858-7.626l3.057-7.55 1.531-3.773 1.661-3.717 3.342-7.426 0.837-1.856 0.9-1.825 1.801-3.652 3.607-7.298 3.858-7.169c20.574-38.239 47.66-72.854 79.381-102.32 1.942-1.887 3.998-3.651 6.024-5.445l6.091-5.367c2.059-1.755 4.172-3.447 6.256-5.173 2.104-1.7 4.15-3.472 6.303-5.11 8.568-6.608 17.283-13.025 26.345-18.927 18.047-11.907 37.062-22.316 56.783-31.078l4e-3 -2e-3 19.777-8.894-0.607 21.145c-1.089 37.908-1.806 75.816-2.478 113.72-0.662 37.908-1.178 75.816-1.579 113.72l-0.543 56.862-0.051 7.108-0.014 1.777c-7e-3 0.313 2e-3 0.571 0.016 0.813l0.032 0.751 0.106 3.011c0.072 0.998 0.252 1.979 0.364 2.971l0.185 1.485c0.079 0.492 0.217 0.971 0.321 1.457l0.655 2.914 0.934 2.842c0.165 0.47 0.276 0.96 0.483 1.417l0.599 1.38c0.42 0.912 0.739 1.865 1.227 2.752l1.44 2.675 0.356 0.672 0.421 0.642 0.839 1.286c1.043 1.758 2.391 3.355 3.641 5.009 0.631 0.824 1.387 1.571 2.071 2.364 0.708 0.777 1.371 1.588 2.163 2.307 6.013 5.988 13.107 11.215 20.868 15.558 7.745 4.376 16.046 8.005 24.605 11.059 17.146 6.092 35.274 9.989 53.596 12.289 18.337 2.281 36.927 3.099 55.434 2.319 18.5-0.754 36.956-2.931 54.9-6.951 17.906-4.006 35.431-9.863 50.984-18.536 7.779-4.301 14.907-9.49 20.907-15.464l1.138-1.109c0.36-0.383 0.696-0.783 1.047-1.172l2.088-2.343 1.887-2.459 0.945-1.226 0.827-1.287c0.546-0.859 1.122-1.703 1.653-2.567l1.418-2.668c0.516-0.871 0.871-1.804 1.259-2.722l0.587-1.375c0.201-0.456 0.402-0.912 0.531-1.391l0.908-2.828c0.173-0.465 0.279-0.948 0.376-1.434l0.316-1.447c0.526-1.907 0.629-3.902 0.92-5.855 0.087-0.988 0.068-1.991 0.116-2.984l0.056-1.492c0.021-0.491-5e-3 -1.156-6e-3 -1.726l-0.079-7.108-0.383-28.431-0.936-56.861c-0.722-37.908-1.566-75.815-2.85-113.72v-17.698l17.125 4.687c33.333 9.124 65.423 23.49 94.263 42.972 28.83 19.469 54.299 44.065 74.691 72.347 20.456 28.25 35.689 60.139 45.501 93.42 9.852 33.309 14.312 67.951 14.454 102.38" fill-rule="nonzero"/></g><g transform="translate(850.53 756.27)"><path d="m0-163.66c-4.599 14.156-5.37 16.494-9.969 30.676l41.749 32.243c1.054 11.973 4.676 23.2 10.328 33.143l-15.029 48.634c12.049 8.761 14.027 10.2 26.103 18.961l41.544-28.364c5.909 1.362 12.075 2.081 18.395 2.081s12.485-0.719 18.396-2.081l41.568 28.364c12.05-8.761 14.028-10.2 26.077-18.961l-15.029-48.66c5.652-9.943 9.274-21.144 10.328-33.117l41.749-32.243c-4.599-14.182-5.344-16.52-9.968-30.676h-226.24z" fill="#ffe797" fill-rule="nonzero"/></g><g transform="translate(842.61 753.36)"><path d="m0-159.01c0.806-2.547 2.462-4.837 4.636-6.4 1.085-0.786 2.297-1.4 3.58-1.809 0.642-0.205 1.301-0.359 1.968-0.46 0.333-0.044 0.668-0.093 1.004-0.111l0.502-0.024 0.408-0.011 7.163-0.08 42.981-0.48 57.308-0.639 114.62-1.378 7.951-0.095 1.228 6.753 3e-3 0.019c1.218 6.986 2.933 13.808 4.738 20.601l1.403 5.078 0.743 2.526 0.187 0.659c0.078 0.279 0.138 0.563 0.19 0.849 0.11 0.569 0.172 1.149 0.193 1.728 0.045 1.158-0.079 2.319-0.366 3.435-0.568 2.231-1.801 4.299-3.517 5.85-0.211 0.195-0.436 0.375-0.659 0.556l-0.362 0.278-0.525 0.396-1.051 0.791-4.203 3.165-8.404 6.328-8.361 6.387c-5.586 4.24-11.106 8.568-16.649 12.866l2.721-4.974c-1.068 12.609-4.89 25.014-11.124 36.047l0.619-5.67 3.779 12.094 3.705 12.118c1.248 4.035 2.428 8.091 3.644 12.136 1.195 4.052 2.443 8.087 3.589 12.154l1.374 4.877-3.881 2.746-6.597 4.669-6.657 4.588c-2.21 1.54-4.46 3.027-6.694 4.535l-6.712 4.513-3.643 2.448-3.103-2.323-10.081-7.547c-3.363-2.513-6.749-4.991-10.136-7.468-3.421-2.427-6.796-4.921-10.254-7.293-3.453-2.38-6.872-4.81-10.371-7.122l3.576 0.673c-3.177 0.761-6.399 1.317-9.64 1.73-3.238 0.435-6.503 0.687-9.774 0.757-3.272 0.081-6.556 0.025-9.833-0.242-3.275-0.269-6.554-0.671-9.801-1.291l4.349-0.819-10.089 7.526c-3.37 2.498-6.71 5.041-10.106 7.501-3.398 2.457-6.768 4.956-10.205 7.356-3.426 2.416-6.835 4.858-10.293 7.227l-4.053 2.776-4.035-2.892-26.225-18.804-4.151-2.976 1.498-5c2.434-8.128 4.935-16.235 7.453-24.336l7.524-24.315 0.627 5.746c-6.259-11.051-10.072-23.482-11.133-36.111l2.756 5.039-31.651-24.555-3.957-3.067-1.979-1.534-0.989-0.767-0.495-0.384-0.329-0.259c-0.212-0.174-0.424-0.349-0.624-0.535-1.622-1.489-2.781-3.459-3.312-5.573-0.267-1.057-0.383-2.155-0.34-3.248 0.018-0.546 0.082-1.093 0.182-1.63 0.054-0.268 0.103-0.538 0.178-0.799l0.205-0.7 1.571-4.755c2.093-6.341 4.207-12.675 6.212-19.045m13.313 4.328c-2.122 6.329-4.135 12.693-6.17 19.051l-1.524 4.769c-0.028 0.084-5e-3 0.021 4e-3 -5e-3l0.025-0.093 0.043-0.189c0.025-0.128 0.038-0.258 0.045-0.387 0.011-0.261-0.015-0.519-0.079-0.768-0.122-0.497-0.401-0.966-0.789-1.329l7.456 5.724 31.757 24.416 2.47 1.9 0.286 3.14c0.966 10.606 4.237 20.954 9.522 30.172l1.561 2.721-0.934 3.026-7.505 24.319c-2.492 8.11-5.001 16.215-7.576 24.299l-2.653-7.976 25.979 19.117-8.086-0.116c3.465-2.358 6.98-4.643 10.478-6.954 3.486-2.328 7.041-4.557 10.566-6.827 3.529-2.267 7.113-4.451 10.666-6.681l10.684-6.655 2.248-1.4 2.101 0.58c2.778 0.768 5.607 1.408 8.476 1.832 2.867 0.426 5.767 0.716 8.681 0.798 2.912 0.069 5.831-0.024 8.738-0.282 2.905-0.282 5.788-0.766 8.638-1.393l1.996-0.439 1.58 1.112c3.43 2.415 6.939 4.712 10.414 7.059 3.47 2.356 7.023 4.589 10.53 6.89 3.541 2.249 7.083 4.499 10.649 6.714l10.704 6.634-6.745 0.125 6.29-5.084c2.1-1.69 4.184-3.402 6.308-5.061l6.345-5.008 6.406-4.928-2.506 7.623c-1.348-4.004-2.593-8.04-3.891-12.06-1.276-4.026-2.59-8.042-3.835-12.078l-3.774-12.096-3.7-12.119-0.916-3.003 1.536-2.668c5.304-9.221 8.577-19.573 9.532-30.186l0.279-3.096 2.442-1.878c5.559-4.277 11.141-8.523 16.657-12.856l8.292-6.475 8.248-6.532 4.124-3.267 1.03-0.816 0.645-0.51 0.064-0.051-0.038 0.024c-0.059 0.038-0.106 0.086-0.161 0.129-0.422 0.364-0.737 0.85-0.89 1.379-0.077 0.265-0.116 0.544-0.114 0.827 3e-3 0.141 0.017 0.284 0.035 0.425l0.04 0.208c9e-3 0.054 0.063 0.208 0 0.029l-0.883-2.477-1.848-4.927c-2.532-6.547-5.154-13.065-8.271-19.419l-9e-3 -0.018 9.18 6.658-114.62-1.378-57.308-0.639-42.981-0.48-7.163-0.079c-0.116-2e-3 -0.053 1e-3 -0.041 1e-3 0.018-1e-3 0.038-3e-3 0.056-7e-3 0.036-9e-3 0.076-3e-3 0.114-0.017 0.076-0.013 0.151-0.034 0.223-0.061 0.145-0.053 0.276-0.127 0.39-0.218 0.225-0.177 0.401-0.443 0.473-0.715" fill-rule="nonzero"/></g><g transform="translate(935.96 665.17)"><path d="m0-51.872c-14.322 8.174-19.312 26.418-11.135 40.747 8.175 14.321 26.422 19.303 40.743 11.128l14.004-18.068c2.02-7.373 1.222-15.512-2.866-22.673-8.178-14.328-26.418-19.312-40.746-11.134" fill="#fff" fill-rule="nonzero"/></g><g transform="translate(995.08 648.18)"><path d="m0 0c0 16.491-13.371 29.869-29.869 29.869-16.49 0-29.861-13.378-29.861-29.869h29.861l-21.111-21.118c5.402-5.41 12.866-8.751 21.111-8.751 16.498 0 29.869 13.371 29.869 29.869" fill-rule="nonzero"/></g><g transform="translate(648.53 589.84)"><path d="m0 98.683l14.998 48.559c-12.024 8.743-13.998 10.178-26.022 18.921l-41.483-28.305c-5.897 1.359-12.051 2.077-18.358 2.077s-12.46-0.718-18.357-2.077l-41.457 28.305c-12.05-8.743-14.024-10.178-26.049-18.921l14.999-48.534c-5.641-9.921-9.256-21.126-10.307-33.073l-41.662-32.176c4.589-14.152 5.358-16.485 9.948-30.612l53.609-0.257c7.204-7.666 15.87-13.921 25.562-18.331l17.614-51.739h32.201l17.614 51.739c9.691 4.41 18.357 10.665 25.561 18.331l53.61 0.257c4.615 14.127 5.358 16.46 9.948 30.612l-41.662 32.176c-1.052 11.947-4.667 23.126-10.307 33.048" fill="#ffe797" fill-rule="nonzero"/></g><g transform="translate(549.74 665.17)"><path d="m0-51.872c-14.322 8.174-19.312 26.418-11.134 40.747 8.175 14.321 26.421 19.303 40.743 11.128l14.003-18.068c2.02-7.373 1.222-15.512-2.865-22.673-8.178-14.328-26.419-19.312-40.747-11.134" fill="#fff" fill-rule="nonzero"/></g><g transform="translate(641.57 591.5)"><path d="m0 96.262c0.432-1.498 1.109-3.125 1.835-4.447l0.915-1.771c0.589-1.191 1.152-2.394 1.686-3.611 1.058-2.437 1.985-4.929 2.776-7.464 1.581-5.07 2.613-10.31 3.08-15.609l0.27-3.054 2.425-1.873 41.662-32.176-2.379 7.699-9.944-30.597 6.621 4.826-53.61-0.256-3.01-0.015-2.057-2.192c-6.605-7.034-14.586-12.766-23.36-16.753l-2.752-1.251-0.976-2.865-17.613-51.738 6.626 4.744-0.019 1e-3c-5.364 0.48-10.728 0.646-16.092 0.697-2.681 0.025-5.363 0.023-8.045-0.08-2.682-0.111-5.364-0.259-8.045-0.618l6.626-4.744-6e-3 0.018-17.556 51.737-0.962 2.834-2.795 1.314-0.016 7e-3c-8.769 3.968-16.752 9.68-23.366 16.697l-2.066 2.193-3.001 0.014h-0.018l-53.592 0.256 6.624-4.837-9.947 30.608-2.379-7.699 41.662 32.176 2.428 1.875 0.267 3.052c0.926 10.607 4.153 20.979 9.418 30.227l1.497 2.631-0.895 2.896-14.998 48.533-2.571-7.728 0.01 9e-3c5.183 4.817 10.663 9.228 16.214 13.538 2.767 2.168 5.605 4.238 8.425 6.332l0.265 0.196 0.132 0.099c5e-3 3e-3 -1.201-0.774-1.828-0.851-0.775-0.191-1.589-0.212-2.409-0.036-0.581-1e-3 -2.16 0.958-1.786 0.75l0.034-0.023 0.549-0.364 1.097-0.729 2.194-1.459 4.389-2.916 17.556-11.667c2.934-1.934 5.837-3.913 8.747-5.882l4.364-2.955 0.272-0.185 0.494-0.316c0.375-0.224 0.761-0.431 1.159-0.612 0.795-0.363 1.63-0.639 2.487-0.811 0.856-0.173 1.732-0.254 2.604-0.23 0.436 0.014 0.872 0.045 1.304 0.109l0.683 0.095c2.977 0.411 6.216 0.441 9.638 0.391l5.27-0.104c1.63-0.034 3.258-0.118 4.88-0.252 3.242-0.273 6.464-0.747 9.633-1.435l1.186-0.266 0.296-0.068 0.457-0.093c0.22-0.036 0.441-0.067 0.665-0.087 0.892-0.082 1.808-0.015 2.693 0.198 0.886 0.215 1.743 0.577 2.511 1.07l0.69 0.453 1.101 0.724 4.403 2.898 35.153 23.279-8.102 0.15 25.951-19.153-2.532 7.698c-5.254-16.993-10.327-34.123-15.197-51.152m13.917 1.519c5.082 15.188 9.96 30.276 14.657 45.502l1.465 4.748-3.997 2.95-25.951 19.153-4.056 2.993-4.046-2.843-34.495-24.243-4.304-3.044-1.076-0.76-0.268-0.19-0.135-0.096c-0.024-0.018-0.161-0.11 3e-3 -1e-3 0.401 0.252 0.848 0.442 1.307 0.55 0.459 0.111 0.932 0.14 1.386 0.097 0.114-0.011 0.227-0.025 0.339-0.046l0.165-0.032c0.083-0.019-0.031 5e-3 -0.031 5e-3l-0.348 0.068-1.395 0.264c-3.724 0.677-7.487 1.101-11.254 1.291-1.884 0.093-3.77 0.126-5.653 0.1l-5.269-0.054c-3.599-0.045-7.411-0.144-11.386-0.792l-0.62-0.102c-2e-3 -7e-3 -6e-3 -5e-3 -8e-3 -0.01-6e-3 -8e-3 -0.01-9e-3 -0.016-0.015-7e-3 -8e-3 -0.011-8e-3 -0.017-0.012l-0.01-6e-3h-3e-3c5e-3 -4e-3 3e-3 -6e-3 -0.06 0.036l-0.278 0.178-4.438 2.842c-2.958 1.895-5.923 3.781-8.857 5.712l-17.652 11.522-4.413 2.881-2.207 1.44-1.103 0.72-0.552 0.36-0.034 0.023c0.352-0.193-1.252 0.78-1.861 0.784-0.845 0.183-1.688 0.161-2.49-0.037-0.654-0.083-1.9-0.844-1.901-0.887l-0.135-0.095-0.268-0.192c-2.865-2.034-5.712-4.093-8.63-6.056-5.818-3.948-11.708-7.797-17.895-11.237l-0.012-8e-3 -4.147-2.631 1.575-5.098 14.999-48.533 0.602 5.526c-6.254-10.979-10.098-23.338-11.194-35.919l2.695 4.926-41.663-32.176-3.902-3.013 1.522-4.686 9.949-30.616 1.564-4.813 5.06-0.024 53.593-0.256h0.017l-5.068 2.206c7.824-8.358 17.29-15.186 27.722-19.95l0.019-8e-3 -3.756 4.147 17.659-51.703 6e-3 -0.018 1.287-4.031 5.34-0.714c2.681-0.358 5.363-0.506 8.045-0.618 2.682-0.103 5.364-0.105 8.045-0.08 5.364 0.052 10.728 0.218 16.092 0.697l0.019 2e-3 5.156 0.424 1.471 4.32 17.614 51.738-3.728-4.115c10.44 4.745 19.922 11.557 27.763 19.909l-5.067-2.206 53.61 0.256 5.06 0.024 1.56 4.802 9.952 30.627 1.523 4.686-3.902 3.013-41.663 32.176 2.695-4.926c-0.554 6.284-1.78 12.519-3.662 18.55-0.94 3.016-2.044 5.98-3.302 8.876-0.633 1.447-1.302 2.877-2.003 4.291l-1.086 2.104c0.028-0.047 1e-3 -0.403-0.269-0.627" fill-rule="nonzero"/></g><g transform="translate(608.86 648.18)"><path d="m0 0c0 16.491-13.371 29.869-29.869 29.869-16.49 0-29.861-13.378-29.861-29.869h29.861l-21.111-21.118c5.402-5.41 12.866-8.751 21.111-8.751 16.498 0 29.869 13.371 29.869 29.869" fill-rule="nonzero"/></g><g transform="matrix(-.55886 -.82926 -.82926 .55886 815.27 830.64)"><path d="m-43.968 83.277h92.451l-3.996-59.612-54.215-26.169-34.24 85.781z" fill="#ffaf37" fill-rule="nonzero"/></g><g transform="translate(727.78 888.25)"><path d="m0-50.943l43.035 63.857 45.73-63.542c1.01-1.402 0.557-3.373-0.965-4.193l-42.17-22.743c-1.622-0.991-3.658-1.008-5.295-0.042l-39.58 23.326c-1.166 0.688-1.511 2.215-0.755 3.337m42.972 88.816l-59.381-88.114c-1.214-1.801-0.651-4.252 1.227-5.342l55.685-32.334c1.55-0.899 3.464-0.898 5.013 5e-3l55.87 32.591c1.962 1.145 2.542 3.712 1.264 5.589l-59.678 87.605z" fill-rule="nonzero"/></g><g transform="matrix(-.89227 -.45151 -.45151 .89227 1071.9 821.88)"><path d="m-9.162-39.889c-0.42 14.197 0.838 28.35 1.233 42.53 0.018 0.683-1.079 0.968-1.233 0.235-2.976-14.111-2.722-28.343-1.755-42.659 0.075-1.102 1.789-1.253 1.755-0.106" fill-rule="nonzero"/></g><g transform="translate(841.73 840.91)"><path d="m0-10.976c-1.704 0.874-3.031 2.165-4.895 2.714-2.037 0.599-4.555 0.364-6.679 0.308-3.604-0.093-7.212-2.766-10.659-1.703-1.71 0.528-2.789 2.295-2.308 4.065 1.471 5.419 9.918 5.945 14.548 4.885 4.221-0.966 9.841-5.12 11.439-9.157 0.341-0.862-0.759-1.465-1.446-1.112" fill-rule="nonzero"/></g><g transform="translate(697.51 835.84)"><path d="m0-5.004c1.316 4.88 8.55 8.854 13.323 9.34 5.515 0.561 14.867-3.307 18.203-7.584 1.668-2.139 0.956-6.653-2.585-6.242-5.332 0.62-8.655 4.919-13.575 6.672-5.889 2.098-9.254-3.04-14.552-3.253-0.554-0.023-0.952 0.556-0.814 1.067" fill-rule="nonzero"/></g><g transform="translate(804.9 897.26)"><path d="m0 0.1c0.064 0 0.064-0.1 0-0.1s-0.064 0.1 0 0.1" fill-rule="nonzero"/></g></svg>