<svg viewBox="0 0 2229.94 493.908" xmlns="http://www.w3.org/2000/svg"><path transform="translate(-4.979)" d="M1952.783,366.752c-7.881-15.042-35.454-41.674-55.271-46.15s-48.278-.461-62.244-4.259c-6.932-1.887-55.492-4.059-68.29-18.242l56.385-53.748c-.851-1.989.376-4.986,5.445-9.466l45.512-79.135-.013,0c.03-.052.068-.1.1-.151l50.813-88.35c14.043,12.287,37.55,30.306,62.415,38.319,39.578,12.761,72.945,15.8,98.486,40.491s32.683,43.022,28.663,60.7-10.661,26.561-25.964,43.139-56.729,37.362-69.137,58.293l-15.991,17.336s1.519.527,4.059,1.285c.749.223,1.591.464,2.508.715l.026.015c10.342,2.857,30.4,7.194,42.1,1.762,16.268-7.567,35.364-28.493,50.37-26.4s12.929,11.277,26.062,19.211,45.3,19.523,54.555,34.837,8.789,23.512-4.556,47.376-18.089,37.471-13.84,42.118a69.491,69.491,0,0,1,4.312,5.479c4.136,5.667,8.69,12.692,8.69,12.692a44.491,44.491,0,0,1-8.208,2.7c-8.05,1.842-20.094,2.345-27.08-8.134-.145-.21-.293-.433-.427-.661-6.687-10.778-9.771-14.663-11.014-20.846l-.011-.041c-.79-3.961-.826-8.873-.569-17.123.263-8.34,1.631-17.578,2.228-25.9.924-12.839.005-23.5-9.676-25.338-6.584-1.249-12.554-2.883-19.441-3.164-9.8-.41-21.456,1.884-39.359,11.811-30.49,16.91-51.37,31.815-74.976,29.394S1960.667,381.807,1952.783,366.752Z" fill="#ffe797"/><path transform="translate(-4.979)" d="m2169.4 381.98c-0.557 6.986-4.957 13.3-13.606 31.013s-4.562 34.675 12.379 38.65 9.671 15.945 9.671 15.945-40.109 1.542-45.539-23.114 7.815-59.722-5.687-66.334-27.66-14.754-27.66-14.754 32.164-13.8 52.022-3.535 18.42 22.129 18.42 22.129z" fill="#ffaf37"/><path transform="translate(-4.979)" d="m2090.3 309.57c9.217 16.067 31 31.674 31 31.674s-33.832 4-66.928 26.109c-18.979 12.68-62.411 17.8-58.208-12.015s12.345-28.589 12.345-28.589 26.592 12.6 41.041 5.53 40.75-22.709 40.75-22.709z" fill="#ffaf37"/><path transform="translate(-4.979)" d="m1890.8 306.74c-26.9 12.178 42.85-35.727 60.1-52.341s48.833-46.129 66.432-56 31.875-13.969 40.962-11.05 20.278 8.2 23.03 14.783 1.479 18.155-0.891 22.944-9.076 22.467-40.806 44.209-36.788 26.524-48.291 44.518-15.211 43.164-15.211 43.164-45.294-68.349-85.325-50.227z" fill="#ffaf37"/><path transform="translate(-4.979)" d="M1874.32,155.752l-.013,0c.03-.052.068-.1.1-.151,5.234-7.937,8.678-13.985,10.614-18.455L1910.067,93.6a97.158,97.158,0,0,0,16.864,13.46c30.149,18.885,67.2,35.624,98.724,41.4,49.957,9.155,66.357,37.344,67.01,38.515-8.023-9.217-25.541-18.387-55.67-7.335-21.9,8.035-58.6,35.98-158.069,8.38-9.16-2.542,29.328-51.154,21.488-45.765A132.94,132.94,0,0,1,1874.32,155.752Z" fill="#ffaf37"/><path transform="translate(-4.979)" d="m1837.8 228.09a85.275 85.275 0 0 0 -9.028 6.793l6.785-11.8c7.99-1.494 11.535-1.22 2.243 5.007z" fill="#ffaf37"/><path transform="translate(-4.979)" d="M1808.413,281.922c-1.145-1.259-2.473-2.841-3.975-4.663l18.925-32.906c2.185,5.087,17.895,3.647,17.895,3.647-15.915,13.411,39,7.056,54.423-4.588s37.854-34.628-6.542,13.161c-43.845,47.171,72.573-37.41,75.511-39.55-29.96,27.783-56.481,48.6-75.935,61.87a.8.8,0,0,1-.136.937c-6.763,7.347,1.376,13.273,11.554,11.824a23.024,23.024,0,0,0,5.924-1.656,24.913,24.913,0,0,0,6.872-4.366c13.641-12.146-4.324,9.3-23.872,20.106q-2.284,1.263-4.3,2.338c-.014,0-.005.009-.005.009-15.867,8.432-19.92,8.178-32.76,5.05a32.161,32.161,0,0,1-5.042-1.723C1833.431,305.677,1816.2,290.485,1808.413,281.922Z" fill="#ffaf37"/><path transform="translate(-4.979)" d="M2032.614,402.951c10.471-5.71,20.5-12.135,31.169-17.489,5.386-2.7,16.473-8.383,29.514-13.469,7.046-1.358,14.034-2.357,21.071-.11l.008,0a26.724,26.724,0,0,1,3.92,1.609,22.954,22.954,0,0,1,3.933,2.469,16.773,16.773,0,0,1,6.833,12.79c.379,7.4-1.556,14.921-2.4,22.254-1.673,14.622-1.025,30.626,6.964,43.492,7.3,11.764,18.62,17.388,32.241,17.654,7.616.158,39.979-2.94,69.037-30.86,1.035-1-38.779,26.309-56.749,13.667s-2.128-33.709,3.212-42.231c6.673-10.64,14.028-21.6,14.916-34.52,1.815-26.5-24.666-39.23-45.1-47.948-6.639-2.838-13.42-5.791-19.309-10.032-5.808-4.183-9.364-10.035-14.1-15.239-8.732-9.59-20.359-10.474-31.59-4.786-5.586,2.832-22.739,17.573-34.252,21.887-17.069,6.392-28.467,2.42-35.433-.19,21.228-27.624,52.261-47,77.552-70.457,13.848-12.846,26.8-28.182,27.222-48.115.878-40.781-30.417-68.2-49.833-80.317-36.809-22.97-78.287-19.969-116.018-40.976-5.379-3-16.426-11.294-26.261-21.633l-9.577,16.652c17,15.255,38.564,28.282,58.841,35.248,37.185,12.769,79.486,15.1,109.1,43.136,12.609,11.935,22.227,31.517,21.42,49.568-.911,20.218-20.065,35.169-34.149,47.3-15.372,13.228-31.565,25.5-46.358,39.4-13.936,13.119-28.747,28.642-35.462,46.917-6.495,17.652.406,42.039,21.976,43.728,9.4.732,18.047-3.741,26.4-7.384,7.318-3.2,19.023-10.712,25.736-15.284.005-.008.01-.017.019-.012,3.513-2.4,5.648-3.985,5.05-3.706-9.576,4.5-19.889,9.569-29.75,13.437-7.9,3.114-16.668,5.434-25.355,4.452-8.528-.959-13.82-8.305-14.964-16.4-1.16-8.154,1.89-16.125,5.939-23.105,11.073,4.637,25.719,5.747,34.6,4.173,13.327-2.372,26.317-9.955,37.441-18.265,3.79-2.839,7.575-5.911,11.746-8.207.689-.377,1.391-.735,2.1-1.065,5.821-2.72,14.572-4.6,19.019.106,4.358,4.618,7.79,9.844,12.74,13.914,6.061,4.986,12.97,8.578,20.119,11.732,11.9,5.251,21.5,8.606,30.907,18.029,9.544,9.562,8.909,24.966,3.044,36.648-8.531,17-26.675,38.138-18.258,57.641a30.393,30.393,0,0,0,4.893,7.74,25.989,25.989,0,0,0,7.12,5.814c-1.76.672-11.065,5.818-25.03-2.814-5.988-3.709-9.907-12.019-11.8-18.715-4.347-15.408,3.064-32.406,4.025-47.877.827-13.333-5.778-24.434-17.445-30a69.635,69.635,0,0,1,17.633-1.014c27.834,2.43,27.783,19.97,26.281,27.9a25.654,25.654,0,0,1-1.014,3.869s13.673-18.6-4.2-32.8c-8.73-6.924-24.021-10.123-35.131-9.441-13.249.813-26.16,4.969-38.555,9.492a287.3,287.3,0,0,0-38.619,17.345c-17.779,9.652-45.246,31.716-66.2,22.985-17.8-7.409-16.32-13.885-21.581-26.3-10.308-24.34-23.4-43.914-54.559-58.338a117.907,117.907,0,0,0-14.308-5.991c3.907-2.24,7.713-4.666,11.4-7.219,4.866-3.385,32.261,30.853,34.056,25.381,13.546-41.291,32.063-83.072,58.494-106.974,13.16-11.9,51.315-41.445,75.256-24.584,18.149,12.792,2.848,37.492-5.441,48.494-2.384,3.163-4.187,5.194-4.451,5.492,1.4-1.235,43.379-38.879,10.693-60.954-18.968-12.812-39.71-4.508-53.019,1.785-15.759,7.444-29.9,18.75-43.1,29.986-14.072,11.991-24.325,31.583-37.771,48.321-9.689,12.059-25.908,11.553-38.954,21.019-12.4,9-25.894,16.14-40.965,18.916a53.39,53.39,0,0,1-12.216.842c-18.486-.873-67.887-2.408-79.06-15.835l-4.042,11.167c11.18,13.244,57.787,15.026,77.492,17.13a72.882,72.882,0,0,0,29.38-3.106c12.608,2.51,47.068,9.847,71.044,38.621,15.332,18.393,9.743,33.266,29.9,47.2C1991.007,419.975,2013.691,413.248,2032.614,402.951Z"/><path transform="translate(-4.979)" d="M1874.32,155.752l-.013,0c.03-.052.068-.1.1-.151Z"/><path transform="translate(-4.979)" d="m1823.4 244.35c-0.851-1.989 0.376-4.986 5.445-9.466z"/><path transform="translate(-4.979)" d="m2044.9 187.03c15.285-0.977 10.173 31.335 9.435 35.352"/><path transform="translate(-4.979)" d="m1992.5 351.71c10.011 11.571 39.591 6.091 39.591 6.091"/><path transform="translate(-4.979)" d="M204.714,143.654c21.436-5.453,83.486-27.4,103.638-43.021,4.335-3.364,8.59-6.867,12.6-10.317L459.862,320.241c-8.3,8.472-48.651,4.263-54.715,7-15.822,7.128-25.507,8.609-45.4,6.785s-44.4-.4-74.6,20.2-33.067,39.895-51.569,47.988-52.772-2.025-62.9-5.174c-8.895-2.766-55.938-27.5-67.353-33.54-1.6-.843-2.5-1.324-2.5-1.324a61.984,61.984,0,0,0-10.884,14.31c-.552,1.023-1.068,2.073-1.54,3.145l0,.014a28.686,28.686,0,0,0-2.69,13.514,176.752,176.752,0,0,1,.324,19.522c-.108,2.768-.3,5.509-.578,8.129-.237,2.173-.531,4.252-.9,6.21-1.025,5.548-2.607,10.022-4.928,12.272-2.262,2.187-4.887,4.544-7.6,6.811-2.5,2.071-5.083,4.061-7.528,5.769a44.707,44.707,0,0,1-7.073,4.147c-4.825,2.111,1.311-3.088,4.709-10.063a19.012,19.012,0,0,0,1.88-5.873c.417-3.313-.613-10.184-2.343-18.014-3.23-14.679-8.913-32.738-12.018-37.024-4.765-6.564-14.278-21.187-12.768-30.138S46.9,341.365,59.133,336.762s34.208-12.806,42.4-21.784,13.881-20,32.785-7.451c7.576,5.031,17.243,11.01,26.491,16.281,13.84,7.878,26.749,14.2,30.4,13.484,2.68-.518,7.321-2.348,11.68-4.25,5.586-2.423,10.729-4.95,10.729-4.95s-72.929-57.127-85.58-82.542S114.4,191.216,126.8,178.721,183.278,149.108,204.714,143.654Z" fill="#ffe797"/><path transform="translate(-4.979)" d="m61.435 409.72c-2.163-13.321-6.486-41.453 2.674-50.48s39.646 3.847 39.646 3.847l-15.232 14.78-3.465 48.393-16.94 25.809-5.863-0.309z" fill="#ffaf37"/><path transform="translate(-4.979)" d="m232.24 370.86c-19.237 32.165-45.15 18.007-92.707-8.215-29.074-16.03-51.247-19.172-51.247-19.172s28.531-5.018 37.1-17.723 15.618-8.519 15.618-8.519l51.151 16.986 26.838-2.934 13.758 31.131z" fill="#ffaf37"/><path transform="translate(-4.979)" d="M190.306,198.857c22.15,5.473,71.566,53.717,97.919,79.752l.63.032s54.479,43.133,31.325,41.5-72.337,50.653-72.337,50.653a27.79,27.79,0,0,0,2.958-11.2.209.209,0,0,0,.009-.072c.349-7.87-2.558-17.75-11.141-32.076-13.176-21.981-52.381-48.633-52.381-48.633-44.366-33.768-44.609-65.919-39.019-78.14S165.97,192.853,190.306,198.857Z" fill="#ffaf37"/><path transform="translate(-4.979)" d="M310.936,291.97c.193.161.715.582,1.5,1.228A17.8,17.8,0,0,1,310.936,291.97Z" fill="#ffaf37"/><path transform="translate(-4.979)" d="M385.084,219.147c-.728-.587-1.478-1.2-2.241-1.81.107.058.746.377,1.765.852Z" fill="#ffaf37"/><path transform="translate(-4.979)" d="m350.9 241.44c0.951 0.543 47.83 26.994 8.2-8.943a206.83 206.83 0 0 1 -21.575 -24.626s36.3 21.263 57.327 30.9l24.465 49.147c-13.7 15.3-26.612 31.611-35.906 39.98-3.987 3.593-7.3 5.725-9.733 5.694-11.019-0.145-52.247-33.107-61.143-40.318a29.655 29.655 0 0 0 11.954 5.052c10.98 2.041 19.8-2.885 3.514-16.84-23.367-20.014-80.367-73.866-100.02-85.744-21.283-12.841-32.011-15.7-47.048-16.782 1.266-0.239 83.564-35.812 154.04 17.429 71.611 54.099 62.636 85.075 15.92 45.051z" fill="#ffaf37"/><path transform="translate(-4.979)" d="m333 114.5l10.347 20.787c-6.028-2.8-10.393-2.97-15.817-2.872-14.759 0.264-62.463 22.536-97.7 30.38-35.51 7.9-56.5 8.946-57.653 8.993 2.663-0.478 100.88-18.193 160.82-57.288z" fill="#ffaf37"/><path transform="translate(-4.979)" d="M151.6,155.317c-19.706,8.726-36.157,22.8-39.2,45.081-3.961,28.982,14.132,55.185,22.62,65.191,18.025,21.243,51.246,43.077,66.212,59.5-12.894,7.937-42.054-9.082-50.451-14.978-7.517-5.273-15.176-11.413-24.327-13.527-11.086-2.569-19.668,2.273-27.378,9.987a96.059,96.059,0,0,1-30.7,21.215c-10.263,4.36-23.359,5.271-31.254,13.893-14.97,16.355,3.821,39.474,10.443,55.111,5.077,11.972,10.432,25.827,11.075,38.968.276,5.693.834,16.642-11.1,20.024-18.64,4.833-41.828-2.458-42.557-2.687.545.331,18.111,10.89,44,9,14.425-1.047,28.571-8.782,35.114-21.981,6.226-12.537,5.652-26.93,6.41-40.555.374-6.877.994-13.732,3.564-20.172,3.064-7.669,7.291-10.8,8.613-12.364,5.689,2.475,9.268,4.234,19.874,10.013,20.6,11.239,28.831,18.378,51.088,26.132,19.925,6.95,44.528,10.956,64.565,2.154,10.7-4.7,16.283-15.019,23.981-23.185a131.557,131.557,0,0,1,24.4-20.278A145.972,145.972,0,0,1,320.17,345.75c10.7-3.483,21.6-5.167,32.685-6.552,2.208.711,4.421,1.341,6.665,1.9,15.4,3.85,33.9,6.428,47.87-2.818,4.6-3.051,46.081-2.888,54.248-12.03l-37.682-29.012c-2.813,2.494-5.546,5.083-8.211,7.74-5.569,5.553-11.057,11.268-17.376,15.988-4.63,3.444-10.619,6.269-14.958,6.932-.237.04-.465.075-.689.1-8.834.924-17.668-3.2-25.765-6.812-12.142-5.406-22.694-13.748-32.468-22.857-4.956-4.593-9.7-9.391-14.357-14.1-15.419-15.582-15.656,2.947-44.9-34.11-11.583-14.676-31.025-35.732-46.632-46.171a92.306,92.306,0,0,0-39.721-15.594c-16.547-2.185-30.688,2.709-35.5,12.768-10.149,21.193,22.029,60.95,31.618,67.782-.584-.681-1.174-1.37-1.763-2.083-18.542-22.147-38.892-56.185-19.4-66.928a22.3,22.3,0,0,1,12.223-2.912c-6.215,6.992-6.017,18.812,1.6,31.866-4.924-15.142-2.675-25.008,4.608-30.979a80.881,80.881,0,0,1,19.712,7.781c-8,6.8-4.288,17.237-4.288,17.237s.5-11.7,7.68-15.362c3.895,2.239,7.071,4.333,9.023,5.674a10.747,10.747,0,0,0,1.72.987l.013,0c27.387,18.416,63.239,64.565,72.636,98.441,4.759,17.155,23.308-4.57,37.2,6.689.375.3.76.605,1.144.9a111.858,111.858,0,0,0,13.61,9.21c-14.858,3.207-29.4,9.4-42.077,16.544a152.805,152.805,0,0,0-28.121,20.209,130.97,130.97,0,0,0-11.376,11.884c-4.145,4.868-7.751,10.952-13.281,14.408-9.428,5.878-22.992,5.849-33.665,4.717-11.572-1.233-22.8-4.746-33.525-9.183-23.761-9.832-45.331-24.552-69.59-33.231-10.387-3.721-23.647-6.191-33.292.643-7.541,5.339-7.526,17.307-7.212,21.887,0,.009,0,.022,0,.031.07,1.038.158,1.687.171,1.78.149-.665,4.967-21.394,19.7-19.879a53.52,53.52,0,0,1,12,2.347c-5.955,6.17-9.1,17.206-10.3,23.948-2.345,13.13-.065,26.439-1.851,39.615a34.33,34.33,0,0,1-12.338,22.563c2.542-6.136,2.394-13.412,1.507-19.975A123.6,123.6,0,0,0,59.7,397.915c-.681-1.705-1.416-3.383-2.182-5.035-5.061-10.84-12.008-20.083-15.133-30.648A16.6,16.6,0,0,1,43.8,349.856c3.005-5.048,10.282-5.621,15.5-7.146a112.942,112.942,0,0,0,32.843-15.321A113.078,113.078,0,0,0,106.222,315.9c4.1-3.906,9.161-8.772,15.238-8.636,4.741.1,10.274,4.146,17.228,9.342a170.281,170.281,0,0,0,18.77,12.73c16.378,9.206,27.208,12.695,34.782,13.773,6.738.969,16.76.66,23.174-2.365a75.06,75.06,0,0,1,9.357,14.757,46.039,46.039,0,0,1-14.108,3.682c-7.3.35-14.939-1.421-21.858-3.607a.212.212,0,0,0-.134.4c7.676,3.663,14.915,7.187,23.6,7.457a45.53,45.53,0,0,0,14.739-1.808,21.933,21.933,0,0,1,.342,11.079,51.282,51.282,0,0,1-10.5,3.773,46.459,46.459,0,0,1-14.616.752c-9.131-.973-18.3-4.674-26.586-8.481-.214-.095-.385.258-.179.38,9.212,5.512,18.034,10.939,28.85,12.582,3.912.588,12.678.268,18.35-.746-9.333,9.818-24.519,6.866-25.288,6.713a28.705,28.705,0,0,0,5.748,1.718c.013,0,.018.014.027.009a25.181,25.181,0,0,0,13.722-.91c9.693-3.708,14.329-7.993,17.619-16.958s2.253-32.388-19.249-54.827a.729.729,0,0,1-.049-.054c-13.151-13.426-37.744-33.188-50.661-42.911-23.474-17.671-44.565-44.827-41.216-72.321,4.339-35.671,72.734-44.717,89.576-49.593,34.01-9.836,75.863-23.956,105.424-43.876,2.131-1.441,5.122-3.533,8.454-5.951L316.347,81.06a272.045,272.045,0,0,1-30.057,20.066c-20.964,11.989-43.6,20.763-66.217,29.13C197.353,138.673,173.755,145.5,151.6,155.317Z"/><path transform="translate(-4.979)" d="m231.32 363.65a0.5 0.5 0 0 1 0.049 0.166 1.014 1.014 0 0 0 -0.09 -0.134c5e-3 -0.014 0.023-0.023 0.041-0.032z"/><path transform="translate(-4.979)" d="m231.32 363.65a0.5 0.5 0 0 1 0.049 0.166 1.014 1.014 0 0 0 -0.09 -0.134c5e-3 -0.014 0.023-0.023 0.041-0.032z"/><path transform="translate(-4.979)" d="m669.94 93.334l22.667 1.633s129.33 41.067 197.33 53.433 193.67 29.634 285.67 21.234 218.67-28.234 281.67-44.8 101.33-34.683 101.33-34.683l178.29-59.224 26.5 4.083 12.536-12.34 43.7-13.57s84.975-7.466 112.98 8.4 41.666 28.7 39 49-19 50.167-27 72.567-17.334 89.378-13.667 121.04 17 61.333 14.333 75 0.334 34.666-14.333 35.666-99-44-132-38.666-150 56-196.33 70-128.33 41.666-138 40.666-22.334-10.666-22.334-10.666-5 20.666-23.333 22-149 32.333-291.67 34-285.67-29.334-285.67-29.334l-25-30-21.667 16.334s-199-59-258-84.334-91.333-27-91.333-27-126 43.667-142 29.667 3.333-84.667 3.666-103 14-87.545-3.666-123.71-54.334-86.334-25.667-102.67 47.645-25.479 95-24.5c124.62 2.577 297 83.767 297 83.767z" fill="#ffe797"/><path transform="translate(-4.979)" d="m681.94 114.8s98 42.467 246 60.667 304.67 19.133 423.33-7 206.67-54.133 206.67-54.133-126 36.866-200 44.333-177.88 14.46-237.39 13.185c-49.938-1.07-198.61-15.518-198.61-15.518s-108.67-3.734-240-41.534z" fill="#ffaf37"/><path transform="translate(-4.979)" d="m315.94 40.6s-32.222 8.4-24.222 24.267 53.222 82.6 46.889 129.27c-6.605 48.663-56.334 168.64-3.667 162.31 46.559-5.6 110.67-22.667 110.67-22.667l196.33 65.667s95.333 8 138.67 21.333l-186-61.333-109.33-42.667-57.333-18.666s-55.333-3.334-58.667-6-36.888-13.556-9.555-36.223c0 0 12.222-89.755-11.111-133.16s-19.334-44.334-9.334-46.667-51.333 5.6-23.333-35.467z" fill="#ffaf37"/><path transform="translate(-4.979)" d="m1891.3 77.467c24.667 1.4 20.523 19.273 18.667 45.578-1.778 25.2-39.111 136.84-39.111 136.84 69.778 14.223-12.889 26.889-55.556 36.889s-208 78-208 78c66.667-24.666 174.67-41.333 174.67-41.333s79.333 8 120 28.667-3-120.84 5.667-171.71 47.666-110.13 40.333-126-46-31.266-86.667-32.666c60.75 12.242 75.146 27.226 30 45.733z" fill="#ffaf37"/><path transform="translate(-4.979)" d="m845.94 434.11s147.33 27.333 264 26.666 291.33-32.666 392-62c0 0-175.33 48-170 64.667 0 0-78.667 21.333-208.67 23.333s-190-13.333-190-13.333 38-14-87.333-39.333z" fill="#ffaf37"/><path transform="translate(-4.979)" d="m1972.9 34.663c-10.73-15.3-35.75-26.523-70.45-31.6a308.8 308.8 0 0 0 -77.2 -1.211c-15.89 1.722-32.83 4.48-37.88 5.46-9.83 1.9-23.47 20.461-23.47 20.461s-20.14-10.262-27.08-8.309c-48.84 13.727-99.58 32.991-149.07 51.779-4.17 1.582-61.78 23.149-74.11 27.517-84.86 30.058-267.44 63.07-387.71 63.07-1.38 0-2.76-7e-3 -4.12-0.014-116.01-0.749-206.05-11.984-310.78-38.787-34.91-8.932-77.9-22.512-122.87-37.387-2.77-0.91-7.42 1.428-10.66 3.409-5.35-8.442-9.738-10.162-19.83-13.58-12.21-4.095-24.48-8.239-36.66-12.355-63.62-21.483-123.71-41.776-161.47-50.862-13.42-3.227-34.016-7.1-64.18-9.667-57.71-3.969-115.13 4.564-131.06 32.949-8.5 15.141-7.51 34.111 5.82 51.912 56.67 75.74 31.34 155.57 23.22 196.26-5.52 27.72-13.94 53.64-6.7 72.47 1.56 4.05 14.11 31.34 63.44 16.16 54.22-16.68 113.89-41.314 173.48-7.56l2.03-14.9c-70.066-29.147-124.02-15.35-181.69 2.39-30.8 9.47-37.12-2.44-37.61-3.49l-0.05-0.13c-4.97-12.91 0.45-35.9 5.6-60.37 19.84-94.15 4.28-156.2-24.44-206.65-8.51-14.945-10.89-29.267-3.71-40.446 20.65-32.144 103.31-30.828 169.03-15.022 36.58 8.8 96.12 28.91 159.16 50.2 12.07 4.074 24.2 8.169 36.3 12.229 7.58 2.548 19.94 26.376 19.94 26.376s21.91-12.481 25.06-11.424c39.16 13.132 78.67 25.116 110.64 33.3 105.74 27.055 200.78 38.92 317.8 39.676 56.98 0.364 132.37-6.741 212.37-20.006 75.42-12.509 144.35-28.777 189.13-44.632 24.48-8.666 49.98-18.347 74.64-27.713 45.67-17.332 91.94-35.91 137.24-48.286 4.9-1.337 32.57 12.194 32.57 12.194s15.52-24.682 25.39-26.593c80.11-15.505 145.99-1.862 161.09 19.663 16.58 23.653-6 69.475-6 69.475-15.73 31.92-34.15 102.17-24.07 165.29 5.25 32.85 16.52 71.5 4.84 82.05-7.84 7.08-25.53-0.12-35.38-5.05-77.82-38.91-133.27-7-135.59-6.18 0 0 56.88-9.69 126.2 24.97q20.475 10.23 35.75 10.24c9.18 0 16.9-2.8 23.09-8.39 10.83-9.78 20.71-28.13 13.24-51.29-27.12-84.13-21.56-153.78 8.44-206.36 10.7-18.762 28.76-52.093 8.33-81.23z"/><path transform="translate(-4.979)" d="m1097.1 493.91a1133.5 1133.5 0 0 1 -156.34 -10.514c-35.84-5-73.109-10.641-109.88-19.669-5.171-1.27-14.723-21.664-14.723-21.664s-17.1 13.507-25.2 11.3c-101.88-27.833-194.22-58.8-233.9-73.619-70.771-26.443-118.42-42.96-165.31-51.849-27.111-4-58.209 0.652-82 10.445 14.291-18.67 37.174-28.518 69.984-28.171 64.9 1.5 112.24 22.835 184.68 49.9 38.892 14.531 126.67 48.268 224.55 75.227 5.242 1.443 33.453-18.07 33.453-18.07s18 31.333 25.056 33.065c32 7.853 64.691 13.025 96.755 17.684 80.559 11.707 211.24 18.129 374.26-7.167 36.526-5.667 70.441-11.919 102-18.576 8.008-1.689 20.817-28.117 20.817-28.117s17.052 19.7 24.009 18.037c105.25-25.179 181.84-54.471 241.77-79.672 202.22-85.032 213.78-8.81 213.78-8.81-41.778-37.111-146.15 4.872-206.12 28.364-62.424 24.454-141.48 51.117-251.14 77.421-5.471 1.313-18.742-12.092-18.742-12.092s-8.446 18.38-13.822 19.556c-33.631 7.355-69.961 14.225-109.34 20.335-84.109 13.048-159.75 16.655-224.6 16.656z"/><path transform="translate(-4.979)" d="m605.94 103.88" fill="#0054a3" stroke="#000" stroke-miterlimit="10" stroke-width="10px"/><path transform="translate(-4.979)" d="M1156.722,134.917a.05.05,0,0,0,0-.1.05.05,0,0,0,0,.1Z"/><path transform="translate(-4.979)" d="m642.26 119.38c3.823-1.355 13.4 24.292 9.346 29.73-1.746 1.789-41.564 45.6-66.024 88.19-24.465 42.171-24.642 49.616-21.435 46.756 92.049-87.954 186.55-115.18 188.92-115.04 4.452 0.99 11 22.053 4.814 23.693-17.072 5.109-58.318 52.091-78.356 75.2-52.839 61.857-57.715 89.929-60.691 88.707-3.268-0.923-11.122-11.244-7.386-18.066 38.55-67.722 118.39-142.73 120.71-145.54 1.448-1.912-30.631 7.9-80.108 39.394s-94.012 76.291-104.19 87.152c-1.455 1.491-12.306-11.313-9.456-18.08 22.539-51.732 94.836-154.48 94.545-154.18-16.362 12.5-77.656 63.37-98.674 80.644-51.95 43.427-79.651 49.6-92.153 44.476-12.8-5.252-16.2-14.162-18.34-18.8-1.853-4.937 1.693-5.154 2.9-3.824 1.211 1.749 3.077 7.528 7.826 8.64 46.6 10.764 205.99-138.53 207.76-139.06z"/><path transform="translate(-4.979)" d="m694.16 295.16c12.975-11.866 29.706-20.316 39.266-23.962 27.657-11.64 45.412 18.412 11.951 37.833-20.146 11.99-47.8 16.429-57.363 17.555-2.391 19 29.364 28.171 57.363 12.325 2.39-1.721 6.487 6.128 2.731 8.833-45.754 32.957-100.04-9.664-53.948-52.584zm50.534 1.762c14-9.362 12.975-22.665-13.658-10.682-9.56 4.725-21.852 11.779-30.73 20.333a55.84 55.84 0 0 0 -7.512 8.291c19.807-0.584 43.707-12.039 51.9-17.942z"/><path transform="translate(-4.979)" d="m760.76 316.12c13.228-12.712 30.284-22.254 40.031-26.525 28.2-13.445 46.3 15.447 12.184 37.053-20.538 13.3-48.734 19.551-58.481 21.3-2.436 19.157 29.937 26.252 58.481 8.579 2.436-1.878 6.613 5.7 2.784 8.654-46.645 35.942-101.99-3.131-54.999-49.061zm51.518-1.536c14.273-10.277 13.228-23.512-13.924-9.792-9.746 5.351-22.278 13.206-31.328 22.34a61.772 61.772 0 0 0 -7.658 8.781c20.189-1.877 44.556-14.892 52.91-21.329z"/><path transform="translate(-4.979)" d="m812.02 361.63c14.111-28.088 53.268-56.479 68.437-69.232l16.227-12.537c-23.283-3.658-43.038-6.959-52.21-9.186-12.346-3.232-6.7-14.324-0.352-14.111 2.116 0.07 33.866 5.452 67.731 10.9 22.578-18.086 45.86-36.747 49.388-38.55 5.644-2.811 10.583 9.355 5.291 13.318-1.411 1.512-14.816 12.1-35.277 28.461 32.1 5.092 61.382 9.971 63.5 10.4 9.172 1.866 8.819 14.035 4.938 13.245-17.638-2.51-51.5-6.882-83.958-11.686-27.163 20.752-53.974 39.055-90.309 81.7-8.114 9.869-2.47 21.1 11.994 15.761a162.53 162.53 0 0 0 26.81 -13.624c2.47-2.018 6.7 5.324 2.823 8.5a93.1 93.1 0 0 1 -13.056 8.865c-9.877 5.55-30.338 13.266-40.921 2.832-4.936-4.965-6.701-13.605-1.056-25.056z"/><path transform="translate(-4.979)" d="m1018.4 388.97c14.392-30.472 54.328-65.477 69.8-80.792l16.55-15.278c-23.746 0.274-43.894 0.31-53.248-0.366-12.593-1.148-6.836-13.193-0.36-14.053 2.159-0.286 34.54-0.268 69.079-0.536 23.027-21.9 46.773-44.493 50.37-46.891 5.757-3.766 10.794 7.565 5.4 12.423-1.439 1.751-15.111 14.607-35.979 34.419 32.741-0.329 62.6-0.4 64.762-0.322 9.354 0.317 9 12.544 5.037 12.411-17.989 0.468-52.528 1.817-85.629 2.494-27.7 25.34-55.048 48.173-92.106 96.955-8.275 11.239-2.518 21.515 12.233 13.735a207.07 207.07 0 0 0 27.344 -18.152c2.518-2.435 6.836 4.192 2.878 8.018a120.37 120.37 0 0 1 -13.312 11.068c-10.074 7.219-30.942 18.39-41.735 9.744-5.041-4.131-6.84-12.472-1.084-24.877z"/><path transform="translate(-4.979)" d="m1122.1 382.2c12.6-19.6 17.278-24.7 19.078-27.967 2.16-3.268-4.32 0.416-12.6 7.363-20.518 18.266-40.316 35.081-65.875 59.892-3.239 3.282-12.238-5.962-5.039-16.135 53.636-70.894 128.15-146.38 194.38-214.19 5.4-5.111 8.639 8.168 6.479 11.795-49.315 49.239-103.31 103.58-159.11 167.66-8.64 9.832-5.04 8.345 2.519 1.408 13.679-12.058 49.676-42.043 68.034-49.84 8.64-3.712 14.04 9.178 8.28 14.652-6.48 6.2-33.117 31.389-49.316 56.8-12.6 20.323 6.12 15.041 12.959 12.073 2.88-0.757 24.478-11.836 34.917-21.692 2.88-2.2 6.839 4.232 2.88 8.243-11.879 11.674-30.6 26.316-47.156 28.33-18.717 2.401-21.238-21.687-10.438-38.387z"/><path transform="translate(-4.979)" d="m1192.6 355.85c13.654-17.043 31.26-32.17 41.322-39.632 29.1-22.676 47.788 0.289 12.575 33.064-21.2 20.029-50.3 35.507-60.364 40.447-2.516 19.956 30.9 16.452 60.364-10.566 2.515-2.676 6.827 3.538 2.875 7.742-48.149 51.213-105.28 30.261-56.772-31.055zm53.179-18.4c14.731-14.95 13.653-27.844-14.373-5.233-10.061 8.541-23 20.5-32.338 32.6a98.966 98.966 0 0 0 -7.9 11.288c20.835-8.493 45.987-29.486 54.611-38.658z"/><path transform="translate(-4.979)" d="m1373.9 426.64c-10.547 18.69-10.624 2.11-8.772-7.4 4.915-22.241 124.41-198.46 164.14-241.53-54.287 19.528-119.02 43.645-122.85 45.388-6.927 3.65-9.681-5-3.411-7.752s124.34-49.755 208.03-74.956c10.2-3.08 1.3 8.316-7.868 10.759-3.172 0.846-28.729 10.186-60.254 21.479-19.013 25.995-114.01 157.06-169.01 254.01z"/><path transform="translate(-4.979)" d="m1475.6 313.71a326.09 326.09 0 0 1 39.956 -47.922c28.143-28.518 46.21-9.3 12.16 30.54-20.5 24.282-48.641 45.6-58.37 52.559-2.432 20.46 29.88 10.252 58.37-22.679 2.432-3.18 6.6 2.168 2.78 7.166-46.557 60.874-101.8 51.384-54.896-19.664zm51.421-29.074c14.246-17.906 13.2-30.583-13.9-2.348-9.729 10.559-22.237 25.114-31.27 39.086a130.89 130.89 0 0 0 -7.643 12.874c20.154-12.669 44.475-38.709 52.813-49.612z"/><path transform="translate(-4.979)" d="m1539 353.42c-8.544 2.108-27-8.345 3.758-56.324 31.1-49.172 65.278-71.643 74.848-65.449 3.759 2.356 4.784 6.337 4.1 10.883 2.05 1.841 3.759 5.6 2.05 9.042-3.076 5.338-38.619 51.66-43.746 65.236-7.518 19.769 2.735 13.5 11.962 3.962 10.253-9.873 19.822-21.32 21.19-22.853 2.392-3.311 6.493 1.812 2.734 7.016-4.1 5.677-8.886 11.221-12.646 15.7-20.164 23.233-39.986 27.633-33.834 2.557-10.933 14.783-22.556 27.989-30.416 30.23zm20.847-63.779c-21.531 30.525-26.316 46.868-22.9 50.777 4.785 5.257 20.164-15.312 44.088-44.829 8.885-16.261 22.214-34.712 30.417-45.346 2.734-7.745-1.026-8.661-4.443-7.89-6.15 0.956-25.972 17.235-47.162 47.288z"/><path transform="translate(-4.979)" d="m1707.6 257.16c3.74-6.345 5.439-11.979 1.7-8.153s-46.9 59.586-51.66 65.568c-7.476 9.093-16.993-0.9-11.554-11.8 3.4-6.587 23.11-38.674 28.548-46.695s6.8-11.734 2.039-7.551c-4.418 4.063-53.018 63.164-64.913 80.639-6.8 10.3-15.974 3.061-11.215-6.882 6.457-13.416 47.92-87.662 52.677-94.724s18.013-7.374 11.216 4.361c-4.079 7.545-19.372 35.569-25.83 45.385-4.758 7.422-4.078 8.984-1.7 5.993 2.379-2.631 41.463-51.566 66.612-75.834 5.1-5.02 12.575 2.807 9.517 10s-19.372 30.529-26.85 42.141-6.8 13.535-4.078 10.065c2.379-3.351 54.718-65.2 68.312-77.867 6.118-5.738 12.235 4.725 8.157 10.109s-14.954 20.345-34.326 49.794c-19.712 29.927-20.732 38.923-5.438 33.58 10.535-3.681 32.286-28.92 41.123-39.928 2.719-3.47 6.457 1.7 3.059 6.851-13.255 18.311-37.725 52.421-57.777 46.827-15.63-4.265-1.697-35.773 2.381-41.879z"/></svg>