<svg xmlns="http://www.w3.org/2000/svg" viewBox="0 0 2229.94 493.908"><path d="M1947.804 366.752c-7.881-15.042-35.454-41.674-55.271-46.15s-48.278-.461-62.244-4.259c-6.932-1.887-55.492-4.059-68.29-18.242l56.385-53.748c-.851-1.989.376-4.986 5.445-9.466l45.512-79.135h-.013c.03-.052.068-.1.1-.151l50.813-88.35c14.043 12.287 37.55 30.306 62.415 38.319 39.578 12.761 72.945 15.8 98.486 40.491s32.683 43.022 28.663 60.7-10.661 26.561-25.964 43.139-56.729 37.362-69.137 58.293l-15.991 17.336s1.519.527 4.059 1.285c.749.223 1.591.464 2.508.715l.026.015c10.342 2.857 30.4 7.194 42.1 1.762 16.268-7.567 35.364-28.493 50.37-26.4s12.929 11.277 26.062 19.211 45.3 19.523 54.555 34.837 8.789 23.512-4.556 47.376-18.089 37.471-13.84 42.118a69.491 69.491 0 014.312 5.479c4.136 5.667 8.69 12.692 8.69 12.692a44.491 44.491 0 01-8.208 2.7c-8.05 1.842-20.094 2.345-27.08-8.134-.145-.21-.293-.433-.427-.661-6.687-10.778-9.771-14.663-11.014-20.846l-.011-.041c-.79-3.961-.826-8.873-.569-17.123.263-8.34 1.631-17.578 2.228-25.9.924-12.839.005-23.5-9.676-25.338-6.584-1.249-12.554-2.883-19.441-3.164-9.8-.41-21.456 1.884-39.359 11.811-30.49 16.91-51.37 31.815-74.976 29.394s-28.778-25.51-36.662-40.565z" fill="#ffe797"/><path d="M2164.388 381.975c-.557 6.986-4.957 13.3-13.606 31.013s-4.562 34.675 12.379 38.65 9.671 15.945 9.671 15.945-40.109 1.542-45.539-23.114 7.815-59.722-5.687-66.334-27.66-14.754-27.66-14.754 32.164-13.8 52.022-3.535 18.42 22.129 18.42 22.129zM2085.289 309.567c9.217 16.067 31 31.674 31 31.674s-33.832 4-66.928 26.109c-18.979 12.68-62.411 17.8-58.208-12.015s12.345-28.589 12.345-28.589 26.592 12.6 41.041 5.53 40.75-22.709 40.75-22.709zM1885.807 306.738c-26.9 12.178 42.85-35.727 60.1-52.341s48.833-46.129 66.432-56 31.875-13.969 40.962-11.05 20.278 8.2 23.03 14.783 1.479 18.155-.891 22.944-9.076 22.467-40.806 44.209-36.788 26.524-48.291 44.518-15.211 43.164-15.211 43.164-45.294-68.349-85.325-50.227z" fill="#ffaf37"/><path d="M1869.341 155.752h-.013c.03-.052.068-.1.1-.151 5.234-7.937 8.678-13.985 10.614-18.455l25.046-43.546a97.158 97.158 0 0016.864 13.46c30.149 18.885 67.2 35.624 98.724 41.4 49.957 9.155 66.357 37.344 67.01 38.515-8.023-9.217-25.541-18.387-55.67-7.335-21.9 8.035-58.6 35.98-158.069 8.38-9.16-2.542 29.328-51.154 21.488-45.765a132.94 132.94 0 01-26.094 13.497zM1832.857 228.094a85.275 85.275 0 00-9.028 6.793l6.785-11.8c7.99-1.494 11.535-1.22 2.243 5.007zM1803.434 281.922c-1.145-1.259-2.473-2.841-3.975-4.663l18.925-32.906c2.185 5.087 17.895 3.647 17.895 3.647-15.915 13.411 39 7.056 54.423-4.588s37.854-34.628-6.542 13.161c-43.845 47.171 72.573-37.41 75.511-39.55-29.96 27.783-56.481 48.6-75.935 61.87a.8.8 0 01-.136.937c-6.763 7.347 1.376 13.273 11.554 11.824a23.024 23.024 0 005.924-1.656 24.913 24.913 0 006.872-4.366c13.641-12.146-4.324 9.3-23.872 20.106q-2.284 1.263-4.3 2.338c-.014 0-.005.009-.005.009-15.867 8.432-19.92 8.178-32.76 5.05a32.161 32.161 0 01-5.042-1.723c-13.519-5.735-30.75-20.927-38.537-29.49z" fill="#ffaf37"/><path d="M2027.635 402.951c10.471-5.71 20.5-12.135 31.169-17.489 5.386-2.7 16.473-8.383 29.514-13.469 7.046-1.358 14.034-2.357 21.071-.11h.008a26.724 26.724 0 013.92 1.609 22.954 22.954 0 013.933 2.469 16.773 16.773 0 016.833 12.79c.379 7.4-1.556 14.921-2.4 22.254-1.673 14.622-1.025 30.626 6.964 43.492 7.3 11.764 18.62 17.388 32.241 17.654 7.616.158 39.979-2.94 69.037-30.86 1.035-1-38.779 26.309-56.749 13.667s-2.128-33.709 3.212-42.231c6.673-10.64 14.028-21.6 14.916-34.52 1.815-26.5-24.666-39.23-45.1-47.948-6.639-2.838-13.42-5.791-19.309-10.032-5.808-4.183-9.364-10.035-14.1-15.239-8.732-9.59-20.359-10.474-31.59-4.786-5.586 2.832-22.739 17.573-34.252 21.887-17.069 6.392-28.467 2.42-35.433-.19 21.228-27.624 52.261-47 77.552-70.457 13.848-12.846 26.8-28.182 27.222-48.115.878-40.781-30.417-68.2-49.833-80.317-36.809-22.97-78.287-19.969-116.018-40.976-5.379-3-16.426-11.294-26.261-21.633l-9.577 16.652c17 15.255 38.564 28.282 58.841 35.248 37.185 12.769 79.486 15.1 109.1 43.136 12.609 11.935 22.227 31.517 21.42 49.568-.911 20.218-20.065 35.169-34.149 47.3-15.372 13.228-31.565 25.5-46.358 39.4-13.936 13.119-28.747 28.642-35.462 46.917-6.495 17.652.406 42.039 21.976 43.728 9.4.732 18.047-3.741 26.4-7.384 7.318-3.2 19.023-10.712 25.736-15.284.005-.008.01-.017.019-.012 3.513-2.4 5.648-3.985 5.05-3.706-9.576 4.5-19.889 9.569-29.75 13.437-7.9 3.114-16.668 5.434-25.355 4.452-8.528-.959-13.82-8.305-14.964-16.4-1.16-8.154 1.89-16.125 5.939-23.105 11.073 4.637 25.719 5.747 34.6 4.173 13.327-2.372 26.317-9.955 37.441-18.265 3.79-2.839 7.575-5.911 11.746-8.207a36.272 36.272 0 012.1-1.065c5.821-2.72 14.572-4.6 19.019.106 4.358 4.618 7.79 9.844 12.74 13.914 6.061 4.986 12.97 8.578 20.119 11.732 11.9 5.251 21.5 8.606 30.907 18.029 9.544 9.562 8.909 24.966 3.044 36.648-8.531 17-26.675 38.138-18.258 57.641a30.393 30.393 0 004.893 7.74 25.989 25.989 0 007.12 5.814c-1.76.672-11.065 5.818-25.03-2.814-5.988-3.709-9.907-12.019-11.8-18.715-4.347-15.408 3.064-32.406 4.025-47.877.827-13.333-5.778-24.434-17.445-30a69.635 69.635 0 0117.633-1.014c27.834 2.43 27.783 19.97 26.281 27.9a25.654 25.654 0 01-1.014 3.869s13.673-18.6-4.2-32.8c-8.73-6.924-24.021-10.123-35.131-9.441-13.249.813-26.16 4.969-38.555 9.492a287.3 287.3 0 00-38.619 17.345c-17.779 9.652-45.246 31.716-66.2 22.985-17.8-7.409-16.32-13.885-21.581-26.3-10.308-24.34-23.4-43.914-54.559-58.338a117.907 117.907 0 00-14.308-5.991 158.892 158.892 0 0011.4-7.219c4.866-3.385 32.261 30.853 34.056 25.381 13.546-41.291 32.063-83.072 58.494-106.974 13.16-11.9 51.315-41.445 75.256-24.584 18.149 12.792 2.848 37.492-5.441 48.494-2.384 3.163-4.187 5.194-4.451 5.492 1.4-1.235 43.379-38.879 10.693-60.954-18.968-12.812-39.71-4.508-53.019 1.785-15.759 7.444-29.9 18.75-43.1 29.986-14.072 11.991-24.325 31.583-37.771 48.321-9.689 12.059-25.908 11.553-38.954 21.019-12.4 9-25.894 16.14-40.965 18.916a53.39 53.39 0 01-12.216.842c-18.486-.873-67.887-2.408-79.06-15.835l-4.042 11.167c11.18 13.244 57.787 15.026 77.492 17.13a72.882 72.882 0 0029.38-3.106c12.608 2.51 47.068 9.847 71.044 38.621 15.332 18.393 9.743 33.266 29.9 47.2 19.316 13.384 42 6.657 60.923-3.64z"/><path d="M1869.341 155.752h-.013c.03-.052.068-.1.1-.151zM1818.384 244.353c-.851-1.989.376-4.986 5.445-9.466zM2039.881 187.026c15.285-.977 10.173 31.335 9.435 35.352M1987.49 351.711c10.011 11.571 39.591 6.091 39.591 6.091"/><path d="M199.735 143.654c21.436-5.453 83.486-27.4 103.638-43.021a324.504 324.504 0 0012.6-10.317l138.91 229.925c-8.3 8.472-48.651 4.263-54.715 7-15.822 7.128-25.507 8.609-45.4 6.785s-44.4-.4-74.6 20.2-33.067 39.895-51.569 47.988-52.772-2.025-62.9-5.174c-8.895-2.766-55.938-27.5-67.353-33.54-1.6-.843-2.5-1.324-2.5-1.324a61.984 61.984 0 00-10.884 14.31 43.782 43.782 0 00-1.54 3.145v.014a28.686 28.686 0 00-2.69 13.514 176.752 176.752 0 01.324 19.522c-.108 2.768-.3 5.509-.578 8.129a81.268 81.268 0 01-.9 6.21c-1.025 5.548-2.607 10.022-4.928 12.272a143.73 143.73 0 01-7.6 6.811c-2.5 2.071-5.083 4.061-7.528 5.769a44.707 44.707 0 01-7.073 4.147c-4.825 2.111 1.311-3.088 4.709-10.063a19.012 19.012 0 001.88-5.873c.417-3.313-.613-10.184-2.343-18.014-3.23-14.679-8.913-32.738-12.018-37.024-4.765-6.564-14.278-21.187-12.768-30.138s10.012-13.542 22.245-18.145 34.208-12.806 42.4-21.784 13.881-20 32.785-7.451c7.576 5.031 17.243 11.01 26.491 16.281 13.84 7.878 26.749 14.2 30.4 13.484 2.68-.518 7.321-2.348 11.68-4.25 5.586-2.423 10.729-4.95 10.729-4.95s-72.929-57.127-85.58-82.542-13.638-54.334-1.238-66.829 56.478-29.613 77.914-35.067z" fill="#ffe797"/><path d="M56.456 409.715c-2.163-13.321-6.486-41.453 2.674-50.48s39.646 3.847 39.646 3.847l-15.232 14.78-3.465 48.393-16.94 25.809-5.863-.309zM227.261 370.863c-19.237 32.165-45.15 18.007-92.707-8.215-29.074-16.03-51.247-19.172-51.247-19.172s28.531-5.018 37.1-17.723 15.618-8.519 15.618-8.519l51.151 16.986 26.838-2.934 13.758 31.131z" fill="#ffaf37"/><path d="M185.327 198.857c22.15 5.473 71.566 53.717 97.919 79.752l.63.032s54.479 43.133 31.325 41.5-72.337 50.653-72.337 50.653a27.79 27.79 0 002.958-11.2.209.209 0 00.009-.072c.349-7.87-2.558-17.75-11.141-32.076-13.176-21.981-52.381-48.633-52.381-48.633-44.366-33.768-44.609-65.919-39.019-78.14s17.701-7.82 42.037-1.816zM305.957 291.97c.193.161.715.582 1.5 1.228a17.8 17.8 0 01-1.5-1.228zM380.105 219.147c-.728-.587-1.478-1.2-2.241-1.81.107.058.746.377 1.765.852zM345.921 241.438c.951.543 47.83 26.994 8.2-8.943a206.834 206.834 0 01-21.575-24.626s36.3 21.263 57.327 30.9l24.465 49.147c-13.7 15.3-26.612 31.611-35.906 39.98-3.987 3.593-7.3 5.725-9.733 5.694-11.019-.145-52.247-33.107-61.143-40.318a29.655 29.655 0 0011.954 5.052c10.98 2.041 19.8-2.885 3.514-16.84-23.367-20.014-80.367-73.866-100.019-85.744-21.283-12.841-32.011-15.7-47.048-16.782 1.266-.239 83.564-35.812 154.044 17.429 71.611 54.099 62.636 85.075 15.92 45.051z" fill="#ffaf37"/><path d="M328.021 114.505l10.347 20.787c-6.028-2.8-10.393-2.97-15.817-2.872-14.759.264-62.463 22.536-97.7 30.38-35.51 7.9-56.5 8.946-57.653 8.993 2.663-.478 100.88-18.193 160.823-57.288z" fill="#ffaf37"/><path d="M146.621 155.317c-19.706 8.726-36.157 22.8-39.2 45.081-3.961 28.982 14.132 55.185 22.62 65.191 18.025 21.243 51.246 43.077 66.212 59.5-12.894 7.937-42.054-9.082-50.451-14.978-7.517-5.273-15.176-11.413-24.327-13.527-11.086-2.569-19.668 2.273-27.378 9.987a96.059 96.059 0 01-30.7 21.215c-10.263 4.36-23.359 5.271-31.254 13.893-14.97 16.355 3.821 39.474 10.443 55.111 5.077 11.972 10.432 25.827 11.075 38.968.276 5.693.834 16.642-11.1 20.024-18.64 4.833-41.828-2.458-42.557-2.687.545.331 18.111 10.89 44 9 14.425-1.047 28.571-8.782 35.114-21.981 6.226-12.537 5.652-26.93 6.41-40.555.374-6.877.994-13.732 3.564-20.172 3.064-7.669 7.291-10.8 8.613-12.364 5.689 2.475 9.268 4.234 19.874 10.013 20.6 11.239 28.831 18.378 51.088 26.132 19.925 6.95 44.528 10.956 64.565 2.154 10.7-4.7 16.283-15.019 23.981-23.185a131.557 131.557 0 0124.4-20.278 145.972 145.972 0 0133.578-16.109c10.7-3.483 21.6-5.167 32.685-6.552 2.208.711 4.421 1.341 6.665 1.9 15.4 3.85 33.9 6.428 47.87-2.818 4.6-3.051 46.081-2.888 54.248-12.03l-37.682-29.012a192.851 192.851 0 00-8.211 7.74c-5.569 5.553-11.057 11.268-17.376 15.988-4.63 3.444-10.619 6.269-14.958 6.932-.237.04-.465.075-.689.1-8.834.924-17.668-3.2-25.765-6.812-12.142-5.406-22.694-13.748-32.468-22.857-4.956-4.593-9.7-9.391-14.357-14.1-15.419-15.582-15.656 2.947-44.9-34.11-11.583-14.676-31.025-35.732-46.632-46.171a92.306 92.306 0 00-39.721-15.594c-16.547-2.185-30.688 2.709-35.5 12.768-10.149 21.193 22.029 60.95 31.618 67.782-.584-.681-1.174-1.37-1.763-2.083-18.542-22.147-38.892-56.185-19.4-66.928a22.3 22.3 0 0112.223-2.912c-6.215 6.992-6.017 18.812 1.6 31.866-4.924-15.142-2.675-25.008 4.608-30.979a80.881 80.881 0 0119.712 7.781c-8 6.8-4.288 17.237-4.288 17.237s.5-11.7 7.68-15.362a135.114 135.114 0 019.023 5.674 10.747 10.747 0 001.72.987h.013c27.387 18.416 63.239 64.565 72.636 98.441 4.759 17.155 23.308-4.57 37.2 6.689.375.3.76.605 1.144.9a111.858 111.858 0 0013.61 9.21c-14.858 3.207-29.4 9.4-42.077 16.544a152.805 152.805 0 00-28.121 20.209 130.97 130.97 0 00-11.376 11.884c-4.145 4.868-7.751 10.952-13.281 14.408-9.428 5.878-22.992 5.849-33.665 4.717-11.572-1.233-22.8-4.746-33.525-9.183-23.761-9.832-45.331-24.552-69.59-33.231-10.387-3.721-23.647-6.191-33.292.643-7.541 5.339-7.526 17.307-7.212 21.887v.031c.07 1.038.158 1.687.171 1.78.149-.665 4.967-21.394 19.7-19.879a53.52 53.52 0 0112 2.347c-5.955 6.17-9.1 17.206-10.3 23.948-2.345 13.13-.065 26.439-1.851 39.615a34.33 34.33 0 01-12.338 22.563c2.542-6.136 2.394-13.412 1.507-19.975a123.6 123.6 0 00-7.765-29.818 101.34 101.34 0 00-2.182-5.035c-5.061-10.84-12.008-20.083-15.133-30.648a16.6 16.6 0 011.415-12.376c3.005-5.048 10.282-5.621 15.5-7.146a112.942 112.942 0 0032.843-15.321 113.078 113.078 0 0014.079-11.489c4.1-3.906 9.161-8.772 15.238-8.636 4.741.1 10.274 4.146 17.228 9.342a170.281 170.281 0 0018.77 12.73c16.378 9.206 27.208 12.695 34.782 13.773 6.738.969 16.76.66 23.174-2.365a75.06 75.06 0 019.357 14.757 46.039 46.039 0 01-14.108 3.682c-7.3.35-14.939-1.421-21.858-3.607a.212.212 0 00-.134.4c7.676 3.663 14.915 7.187 23.6 7.457a45.53 45.53 0 0014.739-1.808 21.933 21.933 0 01.342 11.079 51.282 51.282 0 01-10.5 3.773 46.459 46.459 0 01-14.616.752c-9.131-.973-18.3-4.674-26.586-8.481-.214-.095-.385.258-.179.38 9.212 5.512 18.034 10.939 28.85 12.582 3.912.588 12.678.268 18.35-.746-9.333 9.818-24.519 6.866-25.288 6.713a28.705 28.705 0 005.748 1.718c.013 0 .018.014.027.009a25.181 25.181 0 0013.722-.91c9.693-3.708 14.329-7.993 17.619-16.958s2.253-32.388-19.249-54.827a.729.729 0 01-.049-.054c-13.151-13.426-37.744-33.188-50.661-42.911-23.474-17.671-44.565-44.827-41.216-72.321 4.339-35.671 72.734-44.717 89.576-49.593 34.01-9.836 75.863-23.956 105.424-43.876a326.985 326.985 0 008.454-5.951L311.368 81.06a272.045 272.045 0 01-30.057 20.066c-20.964 11.989-43.6 20.763-66.217 29.13-22.72 8.417-46.318 15.244-68.473 25.061z"/><path d="M226.339 363.648a.5.5 0 01.049.166 1.014 1.014 0 00-.09-.134c.005-.014.023-.023.041-.032z"/><path d="M226.339 363.648a.5.5 0 01.049.166 1.014 1.014 0 00-.09-.134c.005-.014.023-.023.041-.032z"/><path d="M664.965 93.334l22.667 1.633s129.333 41.067 197.333 53.433 193.667 29.634 285.667 21.234 218.666-28.234 281.666-44.8 101.334-34.683 101.334-34.683l178.289-59.224 26.5 4.083 12.536-12.34 43.7-13.57s84.975-7.466 112.975 8.4 41.666 28.7 39 49-19 50.167-27 72.567-17.334 89.378-13.667 121.045 17 61.333 14.333 75 .334 34.666-14.333 35.666-99-44-132-38.666-150 56-196.333 70-128.334 41.666-138 40.666-22.334-10.666-22.334-10.666-5 20.666-23.333 22-149 32.333-291.667 34-285.666-29.334-285.666-29.334l-25-30-21.667 16.334s-199-59-258-84.334-91.333-27-91.333-27-126 43.667-142 29.667 3.333-84.667 3.666-103 14-87.545-3.666-123.711S244.298 50.4 272.965 34.067s47.645-25.479 95-24.5c124.621 2.577 297 83.767 297 83.767z" fill="#ffe797"/><path d="M676.965 114.8s98 42.467 246 60.667 304.667 19.133 423.333-7 206.667-54.133 206.667-54.133-126 36.866-200 44.333-177.883 14.46-237.389 13.185c-49.938-1.07-198.611-15.518-198.611-15.518s-108.667-3.734-240-41.534zM310.965 40.6s-32.222 8.4-24.222 24.267 53.222 82.6 46.889 129.267c-6.605 48.663-56.334 168.644-3.667 162.311 46.559-5.6 110.667-22.667 110.667-22.667l196.333 65.667s95.333 8 138.667 21.333l-186-61.333-109.334-42.667-57.333-18.666s-55.333-3.334-58.667-6-36.888-13.556-9.555-36.223c0 0 12.222-89.755-11.111-133.155s-19.334-44.334-9.334-46.667-51.333 5.6-23.333-35.467zM1886.298 77.467c24.667 1.4 20.523 19.273 18.667 45.578-1.778 25.2-39.111 136.844-39.111 136.844 69.778 14.223-12.889 26.889-55.556 36.889s-208 78-208 78c66.667-24.666 174.667-41.333 174.667-41.333s79.333 8 120 28.667-3-120.845 5.667-171.712 47.666-110.133 40.333-126-46-31.266-86.667-32.666c60.75 12.242 75.146 27.226 30 45.733zM840.965 434.112s147.333 27.333 264 26.666 291.333-32.666 392-62c0 0-175.333 48-170 64.667 0 0-78.667 21.333-208.667 23.333s-190-13.333-190-13.333 38-14-87.333-39.333z" fill="#ffaf37"/><path d="M1967.962 34.663c-10.73-15.3-35.75-26.523-70.45-31.6a308.8 308.8 0 00-77.2-1.211c-15.89 1.722-32.83 4.48-37.88 5.46-9.83 1.9-23.47 20.461-23.47 20.461s-20.14-10.262-27.08-8.309c-48.84 13.727-99.58 32.991-149.07 51.779-4.17 1.582-61.78 23.149-74.11 27.517-84.86 30.058-267.44 63.07-387.71 63.07-1.38 0-2.76-.007-4.12-.014-116.01-.749-206.05-11.984-310.78-38.787-34.91-8.932-77.9-22.512-122.87-37.387-2.77-.91-7.42 1.428-10.66 3.409-5.35-8.442-9.738-10.162-19.83-13.58-12.21-4.095-24.48-8.239-36.66-12.355-63.62-21.483-123.71-41.776-161.47-50.862-13.42-3.227-34.016-7.1-64.18-9.667-57.71-3.969-115.13 4.564-131.06 32.949-8.5 15.141-7.51 34.111 5.82 51.912 56.67 75.74 31.34 155.566 23.22 196.256-5.52 27.72-13.94 53.64-6.7 72.47 1.56 4.05 14.11 31.34 63.44 16.16 54.22-16.68 113.888-41.314 173.48-7.56l2.03-14.9c-70.066-29.147-124.02-15.35-181.69 2.39-30.8 9.47-37.12-2.44-37.61-3.49l-.05-.13c-4.97-12.91.45-35.9 5.6-60.37 19.84-94.15 4.28-156.2-24.44-206.65-8.51-14.945-10.89-29.267-3.71-40.446 20.65-32.144 103.31-30.828 169.03-15.022 36.58 8.8 96.12 28.91 159.16 50.2 12.07 4.074 24.2 8.169 36.3 12.229 7.58 2.548 19.94 26.376 19.94 26.376s21.91-12.481 25.06-11.424c39.16 13.132 78.67 25.116 110.64 33.3 105.74 27.055 200.78 38.92 317.8 39.676 56.98.364 132.37-6.741 212.37-20.006 75.42-12.509 144.35-28.777 189.13-44.632 24.48-8.666 49.98-18.347 74.64-27.713 45.67-17.332 91.94-35.91 137.24-48.286 4.9-1.337 32.57 12.194 32.57 12.194s15.52-24.682 25.39-26.593c80.11-15.505 145.99-1.862 161.09 19.663 16.58 23.653-6 69.475-6 69.475-15.73 31.92-34.15 102.166-24.07 165.286 5.25 32.85 16.52 71.5 4.84 82.05-7.84 7.08-25.53-.12-35.38-5.05-77.82-38.91-133.27-7-135.59-6.18 0 0 56.88-9.69 126.2 24.97q20.475 10.23 35.75 10.24c9.18 0 16.9-2.8 23.09-8.39 10.83-9.78 20.71-28.13 13.24-51.29-27.12-84.13-21.56-153.781 8.44-206.358 10.7-18.762 28.76-52.093 8.33-81.23z"/><path d="M1092.098 493.908a1133.479 1133.479 0 01-156.34-10.514c-35.84-5-73.109-10.641-109.881-19.669-5.171-1.27-14.723-21.664-14.723-21.664s-17.1 13.507-25.2 11.3c-101.878-27.833-194.221-58.8-233.9-73.619-70.771-26.443-118.425-42.96-165.314-51.849-27.111-4-58.209.652-82 10.445 14.291-18.67 37.174-28.518 69.984-28.171 64.9 1.5 112.235 22.835 184.68 49.9 38.892 14.531 126.669 48.268 224.55 75.227 5.242 1.443 33.453-18.07 33.453-18.07s18 31.333 25.056 33.065c32 7.853 64.691 13.025 96.755 17.684 80.559 11.707 211.243 18.129 374.255-7.167 36.526-5.667 70.441-11.919 102.005-18.576 8.008-1.689 20.817-28.117 20.817-28.117s17.052 19.7 24.009 18.037c105.251-25.179 181.84-54.471 241.77-79.672 202.221-85.032 213.777-8.81 213.777-8.81-41.778-37.111-146.149 4.872-206.116 28.364-62.424 24.454-141.479 51.117-251.142 77.421-5.471 1.313-18.742-12.092-18.742-12.092s-8.446 18.38-13.822 19.556c-33.631 7.355-69.961 14.225-109.335 20.335-84.109 13.048-159.752 16.655-224.596 16.656zM1151.743 134.917a.05.05 0 000-.1.05.05 0 000 .1z"/><path d="M722.621 185.81c2.307-9.843-52.483-30.6-95.083-28.6-42.351 2.1-55.021 11.172-56.071 22.574-2.078 24.207 80.343 46.908 86.49 107.9 1.176 11.969-15.109 72.456-108.871 33.961-63.5-26.071-59.4-62.323-59.591-74.584-.609-38.188 51.341-25.561 60.98-8.378 2.028 3.618-.407 5.4-5.148 1.716-24.465-19.79-49.6-4.354-49.575 12.711.009 16.013 6.98 35.93 49.148 53.242 72.678 29.839 105.968.347 106.1-22.221.39-37.43-89.585-70.192-86.241-107.8 2.92-33.258 54.426-33 75.647-31.244 67.839 4.533 92.574 25.825 90.378 42.675-4.21 29.6-43.256 22.614-70.062 10.564-4.961-2.036-5.338-10.2-.366-7.459 8.954 5.075 57.42 15.576 62.265-5.057zM739.144 294.305a68.505 68.505 0 01-5.414 11.15c8.958 3.206 20.9 2.142 26.4-4.11 2-2.5 8.907.057 7.191 4.033-1.727 3.279-16.014 16.472-33.926 10.41a27.524 27.524 0 01-4.872-2.25c-11.444 15.841-27.493 30.213-39.151 33.108-15.465 3.42-30.868-20.287-12.241-48.107 18.882-27.738 34.256-36.756 44.936-37.178a11.139 11.139 0 0110.778 5.526c7.159 2.284 12.401 11.613 6.299 27.418zm-56.7 18.111c-14.847 25.545 6.071 28.737 28.319 4.508a123.643 123.643 0 009.229-11.326c-4.441-6.985-4.585-15.732-4.427-21.6a22.26 22.26 0 011.659-7.476c-11.123 4.459-25.132 19.134-34.78 35.894zm48.708-24.489c3.954-7.092-1.515-14.754-5.964-6.775-3.949 7.441-3.34 13.553-.474 17.6a106.591 106.591 0 006.438-10.825z"/><path d="M814.808 342.237c6-6.667 9.667-15.778-1.055-7.308-2.642 2.087-35.5 33.821-39.106 37.192-5.667 5-13.233-9.576-9.182-17.371 2.535-4.653 17.342-25.7 21.44-30.7s5.094-7.909 1.462-6.286c-3.37 1.683-40.2 34.161-49.169 45.033-5.118 6.512-12.374-5.206-8.836-12.42 4.8-9.714 35.836-60.546 39.421-64.964s13.889 2.064 8.8 9.973c-3.048 5.235-14.485 24.6-19.347 30.824-3.579 4.768-3.025 6.632-1.223 4.947 1.807-1.335 31.406-28.821 50.57-39.5 3.882-2.264 9.827 9.161 7.565 14.571s-14.567 19.712-20.192 27.154-5.065 9.657-3.008 7.681c1.8-2.035 41.492-35.266 51.858-40.6 4.664-2.436 9.594 10.849 6.51 13.988s-11.55 11.895-25.882 30.753c-6.51 8.565-9.177 19.648-3.01 20.981 8.147 1.762 22.624-2.284 30.119-6.159 2.059-1.975 5.051 4.959 2.492 8.215-10.009 10.986-33.555 14.333-40.667 7.444-12.379-11.991-2.847-29.795.44-33.448z"/><path d="M864.845 333.084a149.421 149.421 0 0130.032-31.546c21.241-17.145 35.5 8.217 9.892 34.132-15.413 15.892-36.793 29.061-44.183 32.178-1.536 18.923 23.246 18.075 44.682-3.218 1.823-2.175 5.129 4.564 2.264 7.982-34.911 41.637-77.697 11.842-42.687-39.528zm39.194-9c10.693-12.042 9.678-24.716-10.763-7.459-7.331 6.608-16.74 16.049-23.478 26.222-2.333 3.494-5.212 8.088-5.7 12.63 14.988-6.712 33.688-23.939 39.941-31.397zM1123.743 220.112c48.838-17.17 112.55-17.428 112.963 6.236.17 9.743-11.512 20.992-31.992 23.274s-21.159-5.715-21.2-8.151c-.337-3.825 4.774-4.918 6.443-2.149 5.543 8.3 39.081-3.852 37.057-11.49-1.735-6.6-18.208-6.788-47.632-6.508s-101.392 22.542-103.323 51.1c-2.207 28.214 64.58 18.531 64.58 18.531s20.474-2.631 27.5-2c7.3.627 7.207 10.721 2.685 14.592-4.252 3.869-2.711-.67-9.743-1.3-15.14-1.249-86.063 3.6-146.426 41.068-38.993 24.386-41.831 78.36 38.882 77.594 76.394-.726 121.035-41.871 122.36-43.277 2.65-2.809 8.189 5.144-1.407 12.2-90.869 68.378-196.427 53.368-195.069-8.248 1.6-63.011 94.457-79.555 106.053-80.362-11.465-7.2-15.708-18.3-16.461-30.472-1.478-22.609 23.329-39.899 54.73-50.638zM1228.626 378.644a182.579 182.579 0 0112.5-25.559c1.834-2.961-.055-3.128-3.762.708-9.526 10.309-29.9 32.1-46.753 55.29-6.057 8.237-11.67-4.452-4.359-18.03 4.443-8.082 36.076-64.71 38.694-69.137 5.256-7.812 11.126 4.157 7.729 10.4-1.046 1.841-21.5 34.775-22.539 36.963-.771 2.162.837 1.66 4.276-2.15 6.607-7.593 39.166-42.034 50.354-49.717 8.258-5.664 12.752 4.7 9.852 8.454-2.643 3.037-31.079 41.957-37.559 56.846-2.846 6.886-3.855 10.811-3.017 12.471 3.631 7.31 21.709-7.3 25.153-10.761 6.093-6.151 16.338-18.534 19.507-22.318 2.116-2.291 5.449 3.307 2.554 7.413-9.207 13.062-26.548 35.87-40.525 38.252-15.052 2.831-17.776-14.312-12.105-29.125z"/><path d="M1287.36 403.647c2.6-4.9 4.943-9.071 7.025-12.855l1.309-1.93c-20.884 18.7-25.525-1.166-23-10.581 6.54-25.315 34.281-66.586 54.465-79.263 11.425-6.881 19.591-.409 19.217 9.043 3.262 2.31 6.067 9.212-.5 17.822a652.143 652.143 0 00-43.648 68.294c16.2-10.01 29.734-24.171 44.191-41.934 1.839-2.355 5.155 3.08 2.276 7.327-15.183 22.393-35.136 37.835-54.54 49.007-17.953 32.888-25.238 46.771-55.9 52.1-44.236 7.694-52.359-35.956-13.666-42.666 38.441-6.663 45.552-5.996 62.771-14.364zm-61.885 23.479c-27.931 6.955-18.009 28.717 9.777 24.222 22.667-3.667 33.849-14.682 45.556-36.222-20.222 7.555-34.398 6.787-55.333 12zm100.023-115.338c-13.756 11.745-36.839 42.942-42.959 61.582-5.1 15.707.307 17.706 11.136 7.431 7.657-7.377 16.575-19.462 24.172-30.31 8.6-15.171 15.116-26.212 19.555-33.47 2.527-9.068-1.319-14.079-11.904-5.233z"/><path d="M1378.747 294.788c3.655-4.861 8.843 1.825 7.022 4.6-3.116 5.108-16.615 27.476-26.95 47.511-12.671 23.953-14.017 38.823-3.679 34.451 3.708-1.739 28.382-22.974 37.252-35.076 2.087-2.829 5.123 2.869 2.527 7.183-9.112 13.541-38.616 48.907-50.3 37.172-2.444-2.327-3.84-5.893-4.214-12.089-2.057-26.413 36.516-81.322 38.342-83.752zm26.814-24.513c-.709 5.353-4.878 11.355-8.906 10.021-2.958-1.186-4.361-5.1-3.9-9.363.437-5.651 5.138-11.752 9.172-10.071 2.958 1.186 3.828 5.2 3.634 9.413z"/><path d="M1422.313 350.659a216.269 216.269 0 0112.241-27.271c1.8-3.211-.054-3.119-3.685 1.224-9.333 11.612-29.3 36.191-45.806 61.689-5.935 9.066-11.434-2.855-4.271-17.433 4.353-8.691 35.345-69.649 37.911-74.434 5.148-8.531 10.9 2.633 7.573 9.34-1.026 1.983-21.065 37.718-22.084 40.048-.755 2.267.821 1.546 4.189-2.735 6.474-8.5 38.373-47.395 49.335-56.61 8.091-6.794 12.494 2.951 9.654 7.106-2.59 3.4-30.451 46.21-36.8 61.988-2.787 7.275-4.679 12.115-2.873 16 2 4.334 9 2.222 26-14.222 11.333-11.889 16.222-17 20.163-21.286 2.073-2.58 5.338 2.562 2.5 7.064-11.837 12.825-28.5 32.7-42.2 37-14.739 4.89-17.405-11.88-11.847-27.468z"/><path d="M1478.293 304.268a278.561 278.561 0 0129.341-44.409c20.752-26.24 34.686-6.986 9.665 29.9-14.659 22.474-24.269 34.481-43.142 54.138-2.794 14.9 27.255 10.289 48.883-25.391 1.782-2.956 5.012 2.366 2.212 7.012-34.107 56.582-81.163 45.111-46.959-21.25zm38.291-25.789c10.449-16.621 9.456-28.861-10.514-2.85-7.162 9.747-16.355 23.218-22.938 36.277-2.279 4.493-5.991 13.22-7.1 19.22 15.331-15.834 34.444-42.511 40.552-52.647z"/><path d="M1529.288 288.556a278.463 278.463 0 0128.694-44.83c20.369-26.539 34.58-7.488 10.1 29.754-14.332 22.684-23.766 34.829-42.352 54.757-2.577 14.938 22.147 9.969 43.256-26.02 1.738-2.982 5.045 2.293 2.313 6.979-33.286 57.077-75.249 46.21-42.011-20.64zm37.913-26.342c10.206-16.771 9.037-29-10.555-2.7-7.02 9.85-16.016 23.453-22.409 36.605-2.214 4.526-5.8 13.306-6.822 19.322 15.106-16.051 33.825-43.004 39.786-53.227z"/><path d="M1587.999 307.53c6.1-18.949 19.527-44.075 24.283-51.044s7.943-15.8 4.392-13.449c-3.041 2.162-7.623 4.195-10.721 2.9-6.687 14.292-16.056 33.22-35.534 64.746-4.988 8.448-6.169-.864-4.419-3.595 12.757-19.31 28.372-48.191 36.541-65.814-1.649-6.7 3.039-17.824 6.793-23.381 6.506-9.7 11.736-3.619 8.572 6.594-2.192 7.07.357 6.133 7.47 2.125 7.374-3.755 11.965 10.219 5.443 18.883-6.779 8.757-21.953 36.961-31.866 57.661-6.936 14.732-2.308 15.467 3.491 9.506 6.059-5.709 15.34-18.171 23.85-30.7 1.745-3.077 4.907 2.026 2.165 6.862-6.726 11.871-20.033 28.946-29.4 36.219-8.857 7.084-16.664.209-11.06-17.513z"/><path d="M1694.5 182.59a206.811 206.811 0 00-16.628 42.242c-5.5 20.9-9.324 41.5-14.633 56.31 9.852-5.281 40.013-13.127 61.952-63.971 1.784-3.175 5.477 1.74 2.95 6.621-24.222 56.889-58.023 63.491-71.974 71.088q-5.733 10.206-14.332 15.173c-8.2 4.63-15.626 3.3-19.788-.013-7.705-5.816-3.5-15.6 2.486-14.766 4.84.575 13.228-.949 24.183-6.664 11.424-21.1 21.217-73.392 21.217-73.392-5.882 14.685-20.386 40.887-41.26 73.833-5.414 8.491-6.836-.852-5.031-3.683 21.15-33.054 41.429-71.071 59.819-107.639 3.27-6.587 15.223-5.268 11.039 4.861z"/></svg>